<svg width="242" height="146" viewBox="0 0 242 146" fill="none" xmlns="http://www.w3.org/2000/svg">
<path d="M0.76 32.4C0.68 36.18 3.92 39.32 7.78 39.24C10.32 39.24 12.48 38.02 13.62 35.96L11.58 34.52C10.64 36 9.38 36.74 7.8 36.74C5.34 36.74 3.54 34.94 3.54 32.42C3.54 29.9 5.34 28.06 7.8 28.06C9.38 28.06 10.64 28.8 11.58 30.28L13.62 28.84C12.44 26.78 10.3 25.56 7.8 25.56C3.96 25.48 0.7 28.62 0.76 32.4ZM23.9369 33.12C23.9369 30.38 22.2769 28.88 19.6969 28.88C17.9569 28.88 16.5169 29.56 15.3769 30.92L16.7769 32.58C17.6569 31.64 18.3769 31.22 19.3969 31.22C20.5969 31.22 21.2369 31.86 21.2369 32.96V33.4H18.7569C16.4569 33.4 15.0169 34.5 15.0169 36.28C15.0169 38.02 16.3369 39.24 18.4369 39.24C19.6969 39.24 20.7369 38.78 21.4569 38.04V39H23.9369V33.12ZM21.2369 35.3C21.2369 36.44 20.3369 37.26 19.1569 37.26C18.2969 37.26 17.7369 36.84 17.7369 36.18C17.7369 35.52 18.2369 35.18 19.1169 35.18H21.2369V35.3ZM25.9753 34.04C25.9353 36.9 28.3753 39.3 31.2753 39.24C33.1953 39.24 34.7153 38.3 35.5753 36.78L33.6953 35.34C33.0553 36.24 32.3353 36.76 31.3153 36.76C29.7953 36.76 28.7153 35.62 28.7153 34.04C28.7153 32.5 29.7953 31.34 31.3153 31.34C32.3553 31.34 33.0753 31.88 33.6953 32.78L35.5753 31.32C34.7153 29.8 33.2153 28.88 31.2753 28.88C28.3353 28.88 25.9753 31.14 25.9753 34.04ZM43.9305 36.74C43.2305 36.8 42.8105 36.82 42.6505 36.82C41.3705 36.82 40.8105 36.4 40.8105 35.28V31.38H43.6105V29.1H40.8105V26.6H38.1105V29.1H36.5505V31.38H38.1105V35.52C38.1105 38 39.5705 39.24 42.0705 39.24C42.6705 39.24 43.2905 39.16 43.9305 39V36.74ZM45.7908 34.64C45.7908 37.4 47.7308 39.24 50.3708 39.24C52.9508 39.24 54.9108 37.4 54.9108 34.64V29.1H52.2108V34.86C52.2108 36 51.4108 36.76 50.3708 36.76C49.2708 36.76 48.4908 36 48.4908 34.86V29.1H45.7908V34.64ZM56.5923 37.32C57.4923 38.52 58.9523 39.24 60.6923 39.24C61.8123 39.24 62.7323 38.96 63.4523 38.4C64.1923 37.84 64.5523 37.06 64.5523 36.08C64.5523 34.62 63.6923 33.84 61.7723 33.06L60.8123 32.66C60.0323 32.34 59.7723 32.16 59.7723 31.78C59.7723 31.32 60.1723 31.08 60.8323 31.08C61.6523 31.08 62.3923 31.4 63.0523 32.02L64.4123 30.36C63.5123 29.38 62.3323 28.88 60.8523 28.88C58.6923 28.88 57.2123 29.98 57.2123 31.84C57.2123 33.3 58.0923 34.12 59.9123 34.86L60.9723 35.3C61.7123 35.62 61.9923 35.78 61.9923 36.2C61.9923 36.74 61.4523 37.02 60.7323 37.02C59.7523 37.02 58.8123 36.58 57.9523 35.68L56.5923 37.32ZM83.7194 33.12L81.6394 31.64C81.3994 32 81.1594 32.34 80.9194 32.66C80.5794 33.16 80.1994 33.72 79.7794 34.3L77.8394 31.96C79.3594 30.7 79.9994 29.72 79.9994 28.46C79.9994 26.76 78.6394 25.56 76.6994 25.56C74.6394 25.56 73.2794 26.82 73.2794 28.72C73.2794 29.68 73.6394 30.56 74.4394 31.6C73.4594 32.38 72.7594 33.06 72.3594 33.64C71.9794 34.22 71.7794 34.86 71.7794 35.56C71.7794 37.74 73.5594 39.24 76.1194 39.24C77.4394 39.24 78.6394 38.84 79.6994 38.02L80.4994 39H83.6594L81.4394 36.3C81.7794 35.88 82.3794 35.06 83.1994 33.88L83.7194 33.12ZM75.6994 28.76C75.6994 28.2 76.0794 27.86 76.6594 27.86C77.2394 27.86 77.5794 28.18 77.5794 28.72C77.5794 29.26 77.2994 29.66 76.5194 30.28L76.4794 30.3C75.8994 29.58 75.6994 29.22 75.6994 28.76ZM78.1394 36.12C77.5394 36.62 76.9194 36.86 76.2794 36.86C75.2194 36.86 74.4794 36.24 74.4794 35.3C74.4794 34.66 74.7594 34.26 75.8594 33.36L78.1394 36.12ZM90.5414 36.32C91.5614 38.1 93.4014 39.24 95.6414 39.24C98.2814 39.24 100.261 37.7 100.261 35.28C100.261 33.5 99.2214 32.4 97.0014 31.42L95.5014 30.76C94.3814 30.26 93.9614 29.94 93.9614 29.24C93.9614 28.42 94.6614 27.96 95.6014 27.96C96.6014 27.96 97.4414 28.46 98.1214 29.48L99.9614 28.06C99.1414 26.54 97.6214 25.56 95.6014 25.56C93.1014 25.56 91.2214 27.04 91.2214 29.3C91.2214 31.06 92.4014 32.2 94.4214 33.1L95.8414 33.74C97.1014 34.32 97.5214 34.6 97.5214 35.38C97.5214 36.28 96.8214 36.84 95.6414 36.84C94.2014 36.84 93.2614 36.1 92.4014 34.92L90.5414 36.32ZM102.353 34.64C102.353 37.4 104.293 39.24 106.933 39.24C109.513 39.24 111.473 37.4 111.473 34.64V29.1H108.773V34.86C108.773 36 107.973 36.76 106.933 36.76C105.833 36.76 105.053 36 105.053 34.86V29.1H102.353V34.64ZM113.495 34.04C113.455 36.9 115.895 39.3 118.795 39.24C120.715 39.24 122.235 38.3 123.095 36.78L121.215 35.34C120.575 36.24 119.855 36.76 118.835 36.76C117.315 36.76 116.235 35.62 116.235 34.04C116.235 32.5 117.315 31.34 118.835 31.34C119.875 31.34 120.595 31.88 121.215 32.78L123.095 31.32C122.235 29.8 120.735 28.88 118.795 28.88C115.855 28.88 113.495 31.14 113.495 34.04ZM124.335 34.04C124.295 36.9 126.735 39.3 129.635 39.24C131.555 39.24 133.075 38.3 133.935 36.78L132.055 35.34C131.415 36.24 130.695 36.76 129.675 36.76C128.155 36.76 127.075 35.62 127.075 34.04C127.075 32.5 128.155 31.34 129.675 31.34C130.715 31.34 131.435 31.88 132.055 32.78L133.935 31.32C133.075 29.8 131.575 28.88 129.635 28.88C126.695 28.88 124.335 31.14 124.335 34.04ZM135.83 34.64C135.83 37.4 137.77 39.24 140.41 39.24C142.99 39.24 144.95 37.4 144.95 34.64V29.1H142.25V34.86C142.25 36 141.45 36.76 140.41 36.76C139.31 36.76 138.53 36 138.53 34.86V29.1H135.83V34.64ZM147.531 39H150.231V24H147.531V39ZM162.003 34.96C162.122 34.46 162.183 33.96 162.183 33.48C162.183 30.9 160.263 28.88 157.523 28.88C154.663 28.82 152.283 31.2 152.343 34.06C152.283 36.92 154.703 39.3 157.763 39.24C159.223 39.24 160.543 38.74 161.723 37.76L160.603 35.92C159.743 36.58 158.823 36.92 157.843 36.92C156.403 36.92 155.383 36.22 155.063 34.96H162.003ZM155.063 33.06C155.363 31.84 156.283 31.06 157.423 31.06C158.603 31.06 159.543 31.84 159.563 33.06H155.063ZM173.389 32.86C173.389 30.46 171.969 28.88 169.669 28.88C168.489 28.88 167.469 29.3 166.769 30V29.1H164.289V39H166.989V33.22C166.989 32.08 167.769 31.3 168.869 31.3C169.969 31.3 170.709 32.08 170.709 33.22V39H173.389V32.86ZM182.348 36.74C181.648 36.8 181.228 36.82 181.068 36.82C179.788 36.82 179.228 36.4 179.228 35.28V31.38H182.028V29.1H179.228V26.6H176.528V29.1H174.968V31.38H176.528V35.52C176.528 38 177.988 39.24 180.488 39.24C181.088 39.24 181.708 39.16 182.348 39V36.74ZM0.76 58.4C0.68 62.18 3.92 65.32 7.78 65.24C10.32 65.24 12.48 64.02 13.62 61.96L11.58 60.52C10.64 62 9.38 62.74 7.8 62.74C5.34 62.74 3.54 60.94 3.54 58.42C3.54 55.9 5.34 54.06 7.8 54.06C9.38 54.06 10.64 54.8 11.58 56.28L13.62 54.84C12.44 52.78 10.3 51.56 7.8 51.56C3.96 51.48 0.7 54.62 0.76 58.4ZM23.9369 59.12C23.9369 56.38 22.2769 54.88 19.6969 54.88C17.9569 54.88 16.5169 55.56 15.3769 56.92L16.7769 58.58C17.6569 57.64 18.3769 57.22 19.3969 57.22C20.5969 57.22 21.2369 57.86 21.2369 58.96V59.4H18.7569C16.4569 59.4 15.0169 60.5 15.0169 62.28C15.0169 64.02 16.3369 65.24 18.4369 65.24C19.6969 65.24 20.7369 64.78 21.4569 64.04V65H23.9369V59.12ZM21.2369 61.3C21.2369 62.44 20.3369 63.26 19.1569 63.26C18.2969 63.26 17.7369 62.84 17.7369 62.18C17.7369 61.52 18.2369 61.18 19.1169 61.18H21.2369V61.3ZM32.6153 55.1C32.3553 55.02 32.0753 54.98 31.7353 54.98C30.6353 54.98 29.6753 55.46 29.0153 56.28V55.1H26.5353V65H29.2353V60.06C29.2353 58.36 30.2753 57.48 31.8953 57.48H32.6153V55.1ZM43.1939 60.96C43.3139 60.46 43.3739 59.96 43.3739 59.48C43.3739 56.9 41.4539 54.88 38.7139 54.88C35.8539 54.82 33.4739 57.2 33.5339 60.06C33.4739 62.92 35.8939 65.3 38.9539 65.24C40.4139 65.24 41.7339 64.74 42.9139 63.76L41.7939 61.92C40.9339 62.58 40.0139 62.92 39.0339 62.92C37.5939 62.92 36.5739 62.22 36.2539 60.96H43.1939ZM36.2539 59.06C36.5539 57.84 37.4739 57.06 38.6139 57.06C39.7939 57.06 40.7339 57.84 40.7539 59.06H36.2539ZM53.25 65H55.95V54.24H60.19V51.8H49.03V54.24H53.25V65ZM61.7892 65H64.4892V55.1H61.7892V65ZM61.4092 51.5C61.4092 52.44 62.1692 53.16 63.1292 53.16C64.0892 53.16 64.8692 52.44 64.8692 51.5C64.8692 50.54 64.0892 49.82 63.1292 49.82C62.1692 49.82 61.4092 50.54 61.4092 51.5ZM77.6203 60.04C77.6203 57.08 75.5803 54.88 72.8203 54.88C71.4603 54.88 70.3003 55.4 69.6403 56.34V55.1H67.1603V68.6H69.8603V64.04C70.5803 64.82 71.6203 65.24 72.8203 65.24C75.5803 65.24 77.6203 63 77.6203 60.04ZM74.8803 60.06C74.8803 61.68 73.7603 62.78 72.3203 62.78C70.9403 62.78 69.8203 61.8 69.8203 60.04C69.8203 58.26 70.9603 57.32 72.3203 57.32C73.7803 57.32 74.8803 58.4 74.8803 60.06ZM78.8384 63.32C79.7384 64.52 81.1984 65.24 82.9384 65.24C84.0584 65.24 84.9784 64.96 85.6984 64.4C86.4384 63.84 86.7984 63.06 86.7984 62.08C86.7984 60.62 85.9384 59.84 84.0184 59.06L83.0584 58.66C82.2784 58.34 82.0184 58.16 82.0184 57.78C82.0184 57.32 82.4184 57.08 83.0784 57.08C83.8984 57.08 84.6384 57.4 85.2984 58.02L86.6584 56.36C85.7584 55.38 84.5784 54.88 83.0984 54.88C80.9384 54.88 79.4584 55.98 79.4584 57.84C79.4584 59.3 80.3384 60.12 82.1584 60.86L83.2184 61.3C83.9584 61.62 84.2384 61.78 84.2384 62.2C84.2384 62.74 83.6984 63.02 82.9784 63.02C81.9984 63.02 81.0584 62.58 80.1984 61.68L78.8384 63.32Z" fill="#3D3D3D"/>
<path d="M0.504 10.152C1.218 11.398 2.478 12.154 3.99 12.154C5.768 12.154 7.084 11.09 7.084 9.48C7.084 8.262 6.37 7.534 4.872 6.848L3.836 6.372C2.926 5.91 2.604 5.784 2.548 5.056C2.548 4.328 3.164 3.936 3.948 3.936C4.732 3.936 5.404 4.328 5.894 5.056L6.93 4.258C6.356 3.264 5.25 2.606 3.948 2.606C2.352 2.606 1.036 3.6 1.036 5.112C1.036 6.344 1.848 7.058 3.192 7.674L4.214 8.15C5.18 8.598 5.572 8.878 5.572 9.536C5.572 10.32 4.928 10.824 3.976 10.824C2.912 10.824 2.17 10.25 1.554 9.354L0.504 10.152ZM15.0723 9.046C15.1423 8.724 15.1843 8.416 15.1843 8.122C15.1843 6.33 13.8263 4.972 12.0063 4.972C10.0603 4.93 8.40831 6.596 8.45031 8.57C8.45031 10.6 10.0463 12.154 12.1463 12.154C13.1963 12.154 14.1063 11.79 14.8903 11.048L14.1903 10.04C13.5743 10.586 12.9023 10.852 12.1883 10.852C11.0123 10.852 10.1303 10.166 9.94831 9.046H15.0723ZM9.97631 7.898C10.2003 6.876 10.9843 6.218 11.9503 6.218C12.9163 6.218 13.7003 6.848 13.7143 7.898H9.97631ZM24.0087 8.556C24.0087 6.526 22.5807 4.972 20.6347 4.972C19.6267 4.972 18.7447 5.378 18.2407 6.092V5.126H16.8687V14.52H18.3387V11.16C18.8847 11.79 19.6967 12.154 20.6347 12.154C22.5807 12.154 24.0087 10.614 24.0087 8.556ZM22.4967 8.57C22.4967 9.886 21.5727 10.81 20.3967 10.81C19.3187 10.81 18.3247 10.068 18.3247 8.556C18.3247 7.058 19.3187 6.316 20.3967 6.316C21.5867 6.316 22.4967 7.254 22.4967 8.57ZM29.7887 10.754C29.3827 10.796 29.0887 10.824 28.8787 10.824C27.9827 10.824 27.5207 10.516 27.5207 9.634V6.4H29.5647V5.126H27.5207V3.32H26.0367V5.126H24.9167V6.4H26.0367V9.76C26.0367 11.37 26.9887 12.154 28.5707 12.154C28.9207 12.154 29.3267 12.098 29.7887 12V10.754ZM37.3301 9.046C37.4001 8.724 37.4421 8.416 37.4421 8.122C37.4421 6.33 36.0841 4.972 34.2641 4.972C32.3181 4.93 30.6661 6.596 30.7081 8.57C30.7081 10.6 32.3041 12.154 34.4041 12.154C35.4541 12.154 36.3641 11.79 37.1481 11.048L36.4481 10.04C35.8321 10.586 35.1601 10.852 34.4461 10.852C33.2701 10.852 32.3881 10.166 32.2061 9.046H37.3301ZM32.2341 7.898C32.4581 6.876 33.2421 6.218 34.2081 6.218C35.1741 6.218 35.9581 6.848 35.9721 7.898H32.2341ZM49.4445 7.702C49.4445 6.064 48.4785 4.972 46.8965 4.972C45.9305 4.972 45.0765 5.392 44.5725 6.05C44.1665 5.378 43.4385 4.972 42.4865 4.972C41.6605 4.972 40.9885 5.266 40.4985 5.77V5.126H39.1265V12H40.5965V7.912C40.5965 6.96 41.2125 6.316 42.1085 6.316C42.9905 6.316 43.5505 6.96 43.5505 7.912V12H45.0205V7.842C45.0205 6.96 45.6365 6.316 46.5325 6.316C47.4145 6.316 47.9605 6.946 47.9605 7.912V12H49.4445V7.702ZM58.6259 8.57C58.6259 6.526 57.1979 4.972 55.2519 4.972C54.2999 4.972 53.4739 5.336 52.9559 5.966V1.5H51.4859V12H52.8579V11.048C53.3759 11.762 54.2579 12.154 55.2659 12.154C57.1839 12.154 58.6259 10.6 58.6259 8.57ZM57.1139 8.556C57.1139 9.872 56.2039 10.81 55.0139 10.81C53.9359 10.81 52.9419 10.068 52.9419 8.57C52.9419 7.058 53.9359 6.316 55.0139 6.316C56.1899 6.316 57.1139 7.24 57.1139 8.556ZM66.5059 9.046C66.5759 8.724 66.6179 8.416 66.6179 8.122C66.6179 6.33 65.2599 4.972 63.4399 4.972C61.4939 4.93 59.8419 6.596 59.8839 8.57C59.8839 10.6 61.4799 12.154 63.5799 12.154C64.6299 12.154 65.5399 11.79 66.3239 11.048L65.6239 10.04C65.0079 10.586 64.3359 10.852 63.6219 10.852C62.4459 10.852 61.5639 10.166 61.3819 9.046H66.5059ZM61.4099 7.898C61.6339 6.876 62.4179 6.218 63.3839 6.218C64.3499 6.218 65.1339 6.848 65.1479 7.898H61.4099ZM72.2363 5.126C72.0683 5.084 71.8863 5.056 71.6763 5.056C70.8923 5.056 70.1643 5.406 69.6743 6.022V5.126H68.3023V12H69.7723V8.332C69.7723 7.114 70.6263 6.428 71.7883 6.428H72.2363V5.126ZM79.9541 2.76L76.7481 3.81L77.1121 5.112L78.9881 4.51V12H80.4721V2.76H79.9541ZM85.2272 10.712L86.8512 8.99C87.4952 8.304 87.9852 7.716 88.3072 7.198C88.6432 6.68 88.8112 6.106 88.8112 5.476C88.8112 3.852 87.5092 2.606 85.7452 2.606C83.8552 2.606 82.6372 4.048 82.6372 5.56C82.6372 5.84 82.6652 6.106 82.7352 6.358H84.2332C84.1912 6.078 84.1632 5.84 84.1632 5.644C84.1632 4.692 84.7932 3.964 85.7312 3.964C86.6692 3.964 87.2712 4.65 87.2712 5.588C87.2712 6.372 86.8232 7.044 85.8012 8.122L82.5112 11.664V12H89.1332V10.712H85.2272ZM98.8886 12H100.373V2.76H98.8886V12ZM114.131 12L111.359 8.192C112.465 7.758 113.137 6.806 113.137 5.588C113.137 3.922 111.863 2.76 110.001 2.76H106.627V12H108.111V8.43H109.805L112.437 12H114.131ZM108.111 4.076H109.973C110.995 4.076 111.611 4.692 111.611 5.602C111.611 6.498 110.995 7.114 109.973 7.114H108.111V4.076ZM121.344 9.046C121.414 8.724 121.456 8.416 121.456 8.122C121.456 6.33 120.098 4.972 118.278 4.972C116.332 4.93 114.68 6.596 114.722 8.57C114.722 10.6 116.318 12.154 118.418 12.154C119.468 12.154 120.378 11.79 121.162 11.048L120.462 10.04C119.846 10.586 119.174 10.852 118.46 10.852C117.284 10.852 116.402 10.166 116.22 9.046H121.344ZM116.248 7.898C116.472 6.876 117.256 6.218 118.222 6.218C119.188 6.218 119.972 6.848 119.986 7.898H116.248ZM128.6 7.842C128.6 5.994 127.48 4.972 125.786 4.972C124.596 4.972 123.574 5.448 122.888 6.442L123.742 7.31C124.316 6.624 124.876 6.288 125.646 6.288C126.584 6.288 127.116 6.806 127.116 7.758V8.206H125.17C123.616 8.206 122.636 8.976 122.636 10.166C122.636 11.356 123.588 12.154 125.03 12.154C125.968 12.154 126.724 11.832 127.228 11.23V12H128.6V7.842ZM127.116 9.396C127.116 10.334 126.332 11.02 125.338 11.02C124.624 11.02 124.134 10.684 124.134 10.11C124.134 9.55 124.568 9.27 125.352 9.27H127.116V9.396ZM135.868 1.5V5.966C135.35 5.336 134.524 4.972 133.572 4.972C131.668 4.93 130.17 6.568 130.212 8.57C130.212 10.6 131.64 12.154 133.572 12.154C134.594 12.154 135.476 11.734 135.98 11.02V12H137.352V1.5H135.868ZM135.896 8.57C135.896 10.068 134.902 10.81 133.824 10.81C132.606 10.81 131.71 9.872 131.71 8.556C131.71 7.24 132.648 6.316 133.824 6.316C134.888 6.316 135.896 7.086 135.896 8.57ZM143.402 12H144.872V5.126H143.402V12ZM143.136 2.564C143.136 3.11 143.584 3.53 144.144 3.53C144.69 3.53 145.138 3.11 145.138 2.564C145.138 2.018 144.69 1.584 144.144 1.584C143.584 1.584 143.136 2.018 143.136 2.564ZM153.004 7.702C153.004 6.064 152.038 4.972 150.428 4.972C149.574 4.972 148.888 5.252 148.37 5.798V5.126H146.998V12H148.468V7.898C148.468 6.96 149.126 6.302 150.036 6.302C150.932 6.302 151.534 6.946 151.534 7.898V12H153.004V7.702ZM165.078 8.962C165.078 7.212 163.65 5.868 162.04 5.868C161.886 5.868 161.76 5.882 161.634 5.91L163.86 2.76H162.11L159.8 6.022C159.478 6.484 159.24 6.834 159.086 7.086C158.932 7.338 158.806 7.618 158.694 7.94C158.596 8.248 158.54 8.584 158.54 8.948C158.498 10.768 160.052 12.182 161.802 12.154C163.566 12.154 165.078 10.768 165.078 8.962ZM163.608 8.962C163.608 9.48 163.426 9.928 163.076 10.278C162.726 10.628 162.306 10.796 161.802 10.796C161.284 10.796 160.864 10.628 160.514 10.278C160.164 9.928 159.996 9.48 159.996 8.962C159.996 8.444 160.164 8.01 160.514 7.66C160.864 7.31 161.284 7.128 161.802 7.128C162.306 7.128 162.726 7.31 163.076 7.66C163.426 8.01 163.608 8.444 163.608 8.962ZM180.995 7.702C180.995 6.064 180.029 4.972 178.447 4.972C177.481 4.972 176.627 5.392 176.123 6.05C175.717 5.378 174.989 4.972 174.037 4.972C173.211 4.972 172.539 5.266 172.049 5.77V5.126H170.677V12H172.147V7.912C172.147 6.96 172.763 6.316 173.659 6.316C174.541 6.316 175.101 6.96 175.101 7.912V12H176.571V7.842C176.571 6.96 177.187 6.316 178.083 6.316C178.965 6.316 179.511 6.946 179.511 7.912V12H180.995V7.702ZM183.037 12H184.507V5.126H183.037V12ZM182.771 2.564C182.771 3.11 183.219 3.53 183.779 3.53C184.325 3.53 184.773 3.11 184.773 2.564C184.773 2.018 184.325 1.584 183.779 1.584C183.219 1.584 182.771 2.018 182.771 2.564ZM192.638 7.702C192.638 6.064 191.672 4.972 190.062 4.972C189.208 4.972 188.522 5.252 188.004 5.798V5.126H186.632V12H188.102V7.898C188.102 6.96 188.76 6.302 189.67 6.302C190.566 6.302 191.168 6.946 191.168 7.898V12H192.638V7.702ZM194.615 9.116C194.615 10.964 195.903 12.154 197.625 12.154C199.305 12.154 200.607 10.964 200.607 9.116V5.126H199.137V9.228C199.137 10.18 198.479 10.796 197.625 10.796C196.729 10.796 196.071 10.18 196.071 9.228V5.126H194.615V9.116ZM206.757 10.754C206.351 10.796 206.057 10.824 205.847 10.824C204.951 10.824 204.489 10.516 204.489 9.634V6.4H206.533V5.126H204.489V3.32H203.005V5.126H201.885V6.4H203.005V9.76C203.005 11.37 203.957 12.154 205.539 12.154C205.889 12.154 206.295 12.098 206.757 12V10.754ZM214.299 9.046C214.369 8.724 214.411 8.416 214.411 8.122C214.411 6.33 213.053 4.972 211.233 4.972C209.287 4.93 207.635 6.596 207.677 8.57C207.677 10.6 209.273 12.154 211.373 12.154C212.423 12.154 213.333 11.79 214.117 11.048L213.417 10.04C212.801 10.586 212.129 10.852 211.415 10.852C210.239 10.852 209.357 10.166 209.175 9.046H214.299ZM209.203 7.898C209.427 6.876 210.211 6.218 211.177 6.218C212.143 6.218 212.927 6.848 212.941 7.898H209.203ZM215.451 10.824C216.067 11.622 217.047 12.154 218.223 12.154C218.951 12.154 219.553 11.972 220.043 11.608C220.533 11.23 220.771 10.712 220.771 10.054C220.771 9.088 220.197 8.528 218.895 7.982L218.237 7.716C217.565 7.436 217.327 7.254 217.327 6.904C217.327 6.47 217.691 6.246 218.265 6.246C218.867 6.246 219.441 6.498 219.875 6.946L220.673 6.036C220.071 5.322 219.287 4.972 218.293 4.972C216.893 4.972 215.871 5.728 215.871 6.96C215.871 7.926 216.445 8.458 217.663 8.962L218.363 9.256C219.035 9.536 219.329 9.704 219.329 10.11C219.329 10.614 218.853 10.88 218.223 10.88C217.495 10.88 216.893 10.53 216.291 9.9L215.451 10.824Z" fill="#46A358"/>
<path d="M0.672 86.38C0.616 89.026 2.856 91.196 5.474 91.154C7.112 91.154 8.54 90.384 9.31 89.166L8.498 88.522C7.784 89.544 6.762 90.146 5.488 90.146C3.402 90.146 1.806 88.522 1.806 86.38C1.806 84.238 3.402 82.614 5.488 82.614C6.762 82.614 7.784 83.216 8.498 84.238L9.31 83.594C8.526 82.376 7.112 81.606 5.474 81.606C2.856 81.564 0.616 83.734 0.672 86.38ZM16.2395 86.8C16.2395 85.008 15.1895 84.028 13.5795 84.028C12.4455 84.028 11.4235 84.518 10.8075 85.526L11.5215 86.114C12.0815 85.386 12.6835 85.022 13.5095 85.022C14.5315 85.022 15.1615 85.624 15.1615 86.744V87.332H13.0055C11.5355 87.332 10.5555 88.074 10.5555 89.236C10.5555 90.412 11.5355 91.154 12.9355 91.154C13.9295 91.154 14.7275 90.79 15.2315 90.118V91H16.2395V86.8ZM15.1615 88.382C15.1615 89.432 14.1955 90.258 13.0755 90.258C12.2775 90.258 11.6615 89.866 11.6615 89.18C11.6615 88.55 12.1795 88.214 13.1315 88.214H15.1615V88.382ZM18.0359 87.584C18.0359 89.558 19.6319 91.154 21.6059 91.154C22.7959 91.154 23.7899 90.58 24.4059 89.67L23.6359 89.068C23.0899 89.796 22.4179 90.16 21.6199 90.16C20.2059 90.16 19.1419 89.012 19.1419 87.584C19.1419 86.17 20.2059 85.022 21.6199 85.022C22.4179 85.022 23.1039 85.386 23.6499 86.128L24.4199 85.512C23.8039 84.602 22.7959 84.028 21.6059 84.028C19.6599 84 17.9939 85.638 18.0359 87.584ZM29.9609 90.09C29.6109 90.146 29.3169 90.174 29.0509 90.174C28.1129 90.174 27.6089 89.838 27.6089 88.872V85.148H29.7369V84.182H27.6089V82.32H26.5309V84.182H25.3829V85.148H26.5309V88.942C26.5309 90.44 27.4129 91.154 28.8269 91.154C29.1489 91.154 29.5269 91.098 29.9609 91V90.09ZM31.5689 91H32.6469V84.182H31.5689V91ZM31.3029 81.578C31.3029 82.026 31.6669 82.362 32.1149 82.362C32.5629 82.362 32.9129 82.026 32.9129 81.578C32.9129 81.144 32.5489 80.794 32.1149 80.794C31.6669 80.794 31.3029 81.144 31.3029 81.578ZM44.048 86.8C44.048 85.008 42.998 84.028 41.388 84.028C40.254 84.028 39.232 84.518 38.616 85.526L39.33 86.114C39.89 85.386 40.492 85.022 41.318 85.022C42.34 85.022 42.97 85.624 42.97 86.744V87.332H40.814C39.344 87.332 38.364 88.074 38.364 89.236C38.364 90.412 39.344 91.154 40.744 91.154C41.738 91.154 42.536 90.79 43.04 90.118V91H44.048V86.8ZM42.97 88.382C42.97 89.432 42.004 90.258 40.884 90.258C40.086 90.258 39.47 89.866 39.47 89.18C39.47 88.55 39.988 88.214 40.94 88.214H42.97V88.382ZM49.9605 84.182C49.7785 84.14 49.6105 84.126 49.4565 84.126C48.6305 84.126 47.8325 84.49 47.3425 85.148V84.182H46.3345V91H47.4125V87.136C47.4125 85.876 48.4065 85.134 49.5545 85.134H49.9605V84.182ZM57.2901 87.92C57.3461 87.64 57.3741 87.374 57.3741 87.108C57.3741 85.302 56.0301 84.028 54.2661 84.028C52.3201 84.028 50.7801 85.624 50.7801 87.598C50.7801 89.6 52.3621 91.154 54.3921 91.154C55.4701 91.154 56.4081 90.706 57.1221 89.964L56.4921 89.236C55.8761 89.852 55.1761 90.16 54.4061 90.16C53.0621 90.16 52.0261 89.264 51.9001 87.92H57.2901ZM51.9421 86.968C52.1801 85.792 53.1041 85.008 54.2381 85.008C55.3721 85.008 56.2541 85.75 56.2681 86.968H51.9421ZM62.548 89.824C63.15 90.608 64.074 91.154 65.208 91.154C65.88 91.154 66.44 90.986 66.902 90.636C67.364 90.286 67.602 89.782 67.602 89.152C67.602 88.214 67.07 87.682 65.796 87.136L65.166 86.87C64.34 86.52 64.06 86.31 64.06 85.876C64.06 85.33 64.522 85.022 65.194 85.022C65.824 85.022 66.412 85.316 66.874 85.778L67.532 85.106C66.972 84.434 66.202 84.028 65.25 84.028C63.948 84.028 62.954 84.742 62.954 85.932C62.954 86.842 63.514 87.36 64.648 87.822L65.306 88.102C66.146 88.438 66.496 88.648 66.496 89.194C66.496 89.796 65.936 90.16 65.194 90.16C64.424 90.16 63.892 89.782 63.234 89.11L62.548 89.824ZM69.4654 88.284C69.4654 90.006 70.6974 91.154 72.2934 91.154C73.8754 91.154 75.1074 90.006 75.1074 88.284V84.182H74.0294V88.354C74.0294 89.432 73.2874 90.16 72.2934 90.16C71.2854 90.16 70.5294 89.46 70.5294 88.354V84.182H69.4654V88.284ZM76.8934 87.584C76.8934 89.558 78.4894 91.154 80.4634 91.154C81.6534 91.154 82.6474 90.58 83.2634 89.67L82.4934 89.068C81.9474 89.796 81.2754 90.16 80.4774 90.16C79.0634 90.16 77.9994 89.012 77.9994 87.584C77.9994 86.17 79.0634 85.022 80.4774 85.022C81.2754 85.022 81.9614 85.386 82.5074 86.128L83.2774 85.512C82.6614 84.602 81.6534 84.028 80.4634 84.028C78.5174 84 76.8514 85.638 76.8934 87.584ZM84.4676 87.584C84.4676 89.558 86.0636 91.154 88.0376 91.154C89.2276 91.154 90.2216 90.58 90.8376 89.67L90.0676 89.068C89.5216 89.796 88.8496 90.16 88.0516 90.16C86.6376 90.16 85.5736 89.012 85.5736 87.584C85.5736 86.17 86.6376 85.022 88.0516 85.022C88.8496 85.022 89.5356 85.386 90.0816 86.128L90.8516 85.512C90.2356 84.602 89.2276 84.028 88.0376 84.028C86.0916 84 84.4256 85.638 84.4676 87.584ZM92.5845 88.284C92.5845 90.006 93.8165 91.154 95.4125 91.154C96.9945 91.154 98.2265 90.006 98.2265 88.284V84.182H97.1485V88.354C97.1485 89.432 96.4065 90.16 95.4125 90.16C94.4045 90.16 93.6485 89.46 93.6485 88.354V84.182H92.5845V88.284ZM100.503 91H101.581V80.5H100.503V91ZM109.968 87.92C110.024 87.64 110.052 87.374 110.052 87.108C110.052 85.302 108.708 84.028 106.944 84.028C104.998 84.028 103.458 85.624 103.458 87.598C103.458 89.6 105.04 91.154 107.07 91.154C108.148 91.154 109.086 90.706 109.8 89.964L109.17 89.236C108.554 89.852 107.854 90.16 107.084 90.16C105.74 90.16 104.704 89.264 104.578 87.92H109.968ZM104.62 86.968C104.858 85.792 105.782 85.008 106.916 85.008C108.05 85.008 108.932 85.75 108.946 86.968H104.62ZM117.588 86.716C117.588 85.106 116.636 84.028 115.054 84.028C114.2 84.028 113.458 84.35 112.954 84.91V84.182H111.946V91H113.024V86.842C113.024 85.778 113.766 85.022 114.816 85.022C115.866 85.022 116.51 85.764 116.51 86.842V91H117.588V86.716ZM123.6 90.09C123.25 90.146 122.956 90.174 122.69 90.174C121.752 90.174 121.248 89.838 121.248 88.872V85.148H123.376V84.182H121.248V82.32H120.17V84.182H119.022V85.148H120.17V88.942C120.17 90.44 121.052 91.154 122.466 91.154C122.788 91.154 123.166 91.098 123.6 91V90.09ZM124.564 89.824C125.166 90.608 126.09 91.154 127.224 91.154C127.896 91.154 128.456 90.986 128.918 90.636C129.38 90.286 129.618 89.782 129.618 89.152C129.618 88.214 129.086 87.682 127.812 87.136L127.182 86.87C126.356 86.52 126.076 86.31 126.076 85.876C126.076 85.33 126.538 85.022 127.21 85.022C127.84 85.022 128.428 85.316 128.89 85.778L129.548 85.106C128.988 84.434 128.218 84.028 127.266 84.028C125.964 84.028 124.97 84.742 124.97 85.932C124.97 86.842 125.53 87.36 126.664 87.822L127.322 88.102C128.162 88.438 128.512 88.648 128.512 89.194C128.512 89.796 127.952 90.16 127.21 90.16C126.44 90.16 125.908 89.782 125.25 89.11L124.564 89.824ZM140.599 86.8C140.599 85.008 139.549 84.028 137.939 84.028C136.805 84.028 135.783 84.518 135.167 85.526L135.881 86.114C136.441 85.386 137.043 85.022 137.869 85.022C138.891 85.022 139.521 85.624 139.521 86.744V87.332H137.365C135.895 87.332 134.915 88.074 134.915 89.236C134.915 90.412 135.895 91.154 137.295 91.154C138.289 91.154 139.087 90.79 139.591 90.118V91H140.599V86.8ZM139.521 88.382C139.521 89.432 138.555 90.258 137.435 90.258C136.637 90.258 136.021 89.866 136.021 89.18C136.021 88.55 136.539 88.214 137.491 88.214H139.521V88.382ZM146.511 84.182C146.329 84.14 146.161 84.126 146.007 84.126C145.181 84.126 144.383 84.49 143.893 85.148V84.182H142.885V91H143.963V87.136C143.963 85.876 144.957 85.134 146.105 85.134H146.511V84.182ZM153.841 87.92C153.897 87.64 153.925 87.374 153.925 87.108C153.925 85.302 152.581 84.028 150.817 84.028C148.871 84.028 147.331 85.624 147.331 87.598C147.331 89.6 148.913 91.154 150.943 91.154C152.021 91.154 152.959 90.706 153.673 89.964L153.043 89.236C152.427 89.852 151.727 90.16 150.957 90.16C149.613 90.16 148.577 89.264 148.451 87.92H153.841ZM148.493 86.968C148.731 85.792 149.655 85.008 150.789 85.008C151.923 85.008 152.805 85.75 152.819 86.968H148.493ZM165.763 87.92C165.819 87.64 165.847 87.374 165.847 87.108C165.847 85.302 164.503 84.028 162.739 84.028C160.793 84.028 159.253 85.624 159.253 87.598C159.253 89.6 160.835 91.154 162.865 91.154C163.943 91.154 164.881 90.706 165.595 89.964L164.965 89.236C164.349 89.852 163.649 90.16 162.879 90.16C161.535 90.16 160.499 89.264 160.373 87.92H165.763ZM160.415 86.968C160.653 85.792 161.577 85.008 162.711 85.008C163.845 85.008 164.727 85.75 164.741 86.968H160.415ZM172.851 86.8C172.851 85.008 171.801 84.028 170.191 84.028C169.057 84.028 168.035 84.518 167.419 85.526L168.133 86.114C168.693 85.386 169.295 85.022 170.121 85.022C171.143 85.022 171.773 85.624 171.773 86.744V87.332H169.617C168.147 87.332 167.167 88.074 167.167 89.236C167.167 90.412 168.147 91.154 169.547 91.154C170.541 91.154 171.339 90.79 171.843 90.118V91H172.851V86.8ZM171.773 88.382C171.773 89.432 170.807 90.258 169.687 90.258C168.889 90.258 168.273 89.866 168.273 89.18C168.273 88.55 168.791 88.214 169.743 88.214H171.773V88.382ZM174.493 89.824C175.095 90.608 176.019 91.154 177.153 91.154C177.825 91.154 178.385 90.986 178.847 90.636C179.309 90.286 179.547 89.782 179.547 89.152C179.547 88.214 179.015 87.682 177.741 87.136L177.111 86.87C176.285 86.52 176.005 86.31 176.005 85.876C176.005 85.33 176.467 85.022 177.139 85.022C177.769 85.022 178.357 85.316 178.819 85.778L179.477 85.106C178.917 84.434 178.147 84.028 177.195 84.028C175.893 84.028 174.899 84.742 174.899 85.932C174.899 86.842 175.459 87.36 176.593 87.822L177.251 88.102C178.091 88.438 178.441 88.648 178.441 89.194C178.441 89.796 177.881 90.16 177.139 90.16C176.369 90.16 175.837 89.782 175.179 89.11L174.493 89.824ZM186.339 84.182L184.085 89.614L181.831 84.182H180.669L183.497 90.79L183.133 91.602C182.783 92.428 182.307 92.694 181.593 92.694C181.397 92.694 181.117 92.666 180.767 92.624V93.534C181.117 93.632 181.467 93.674 181.817 93.674C182.867 93.674 183.609 93.142 184.127 91.952L187.487 84.182H186.339ZM192.475 87.584C192.475 89.558 194.071 91.154 196.045 91.154C197.235 91.154 198.229 90.58 198.845 89.67L198.075 89.068C197.529 89.796 196.857 90.16 196.059 90.16C194.645 90.16 193.581 89.012 193.581 87.584C193.581 86.17 194.645 85.022 196.059 85.022C196.857 85.022 197.543 85.386 198.089 86.128L198.859 85.512C198.243 84.602 197.235 84.028 196.045 84.028C194.099 84 192.433 85.638 192.475 87.584ZM205.786 86.8C205.786 85.008 204.736 84.028 203.126 84.028C201.992 84.028 200.97 84.518 200.354 85.526L201.068 86.114C201.628 85.386 202.23 85.022 203.056 85.022C204.078 85.022 204.708 85.624 204.708 86.744V87.332H202.552C201.082 87.332 200.102 88.074 200.102 89.236C200.102 90.412 201.082 91.154 202.482 91.154C203.476 91.154 204.274 90.79 204.778 90.118V91H205.786V86.8ZM204.708 88.382C204.708 89.432 203.742 90.258 202.622 90.258C201.824 90.258 201.208 89.866 201.208 89.18C201.208 88.55 201.726 88.214 202.678 88.214H204.708V88.382ZM211.699 84.182C211.517 84.14 211.349 84.126 211.195 84.126C210.369 84.126 209.571 84.49 209.081 85.148V84.182H208.073V91H209.151V87.136C209.151 85.876 210.145 85.134 211.293 85.134H211.699V84.182ZM219.028 87.92C219.084 87.64 219.112 87.374 219.112 87.108C219.112 85.302 217.768 84.028 216.004 84.028C214.058 84.028 212.518 85.624 212.518 87.598C212.518 89.6 214.1 91.154 216.13 91.154C217.208 91.154 218.146 90.706 218.86 89.964L218.23 89.236C217.614 89.852 216.914 90.16 216.144 90.16C214.8 90.16 213.764 89.264 213.638 87.92H219.028ZM213.68 86.968C213.918 85.792 214.842 85.008 215.976 85.008C217.11 85.008 217.992 85.75 218.006 86.968H213.68ZM8.148 109.584C8.148 107.582 6.72 106.028 4.774 106.028C3.71 106.028 2.716 106.49 2.198 107.274V106.182H1.19V115.52H2.268V112.02C2.828 112.734 3.766 113.154 4.774 113.154C6.692 113.154 8.148 111.586 8.148 109.584ZM7.042 109.598C7.042 111.068 6.006 112.16 4.62 112.16C3.36 112.16 2.254 111.32 2.254 109.584C2.254 107.862 3.402 107.022 4.62 107.022C6.006 107.022 7.042 108.128 7.042 109.598ZM10.0357 113H11.1137V102.5H10.0357V113ZM18.591 108.8C18.591 107.008 17.541 106.028 15.931 106.028C14.797 106.028 13.775 106.518 13.159 107.526L13.873 108.114C14.433 107.386 15.035 107.022 15.861 107.022C16.883 107.022 17.513 107.624 17.513 108.744V109.332H15.357C13.887 109.332 12.907 110.074 12.907 111.236C12.907 112.412 13.887 113.154 15.287 113.154C16.281 113.154 17.079 112.79 17.583 112.118V113H18.591V108.8ZM17.513 110.382C17.513 111.432 16.547 112.258 15.427 112.258C14.629 112.258 14.013 111.866 14.013 111.18C14.013 110.55 14.531 110.214 15.483 110.214H17.513V110.382ZM26.5195 108.716C26.5195 107.106 25.5675 106.028 23.9855 106.028C23.1315 106.028 22.3895 106.35 21.8855 106.91V106.182H20.8775V113H21.9555V108.842C21.9555 107.778 22.6975 107.022 23.7475 107.022C24.7975 107.022 25.4415 107.764 25.4415 108.842V113H26.5195V108.716ZM32.5312 112.09C32.1812 112.146 31.8872 112.174 31.6212 112.174C30.6832 112.174 30.1792 111.838 30.1792 110.872V107.148H32.3072V106.182H30.1792V104.32H29.1012V106.182H27.9532V107.148H29.1012V110.942C29.1012 112.44 29.9832 113.154 31.3972 113.154C31.7192 113.154 32.0972 113.098 32.5312 113V112.09ZM33.4952 111.824C34.0972 112.608 35.0212 113.154 36.1552 113.154C36.8272 113.154 37.3872 112.986 37.8492 112.636C38.3112 112.286 38.5492 111.782 38.5492 111.152C38.5492 110.214 38.0172 109.682 36.7432 109.136L36.1132 108.87C35.2872 108.52 35.0072 108.31 35.0072 107.876C35.0072 107.33 35.4692 107.022 36.1412 107.022C36.7712 107.022 37.3592 107.316 37.8212 107.778L38.4792 107.106C37.9192 106.434 37.1492 106.028 36.1972 106.028C34.8952 106.028 33.9012 106.742 33.9012 107.932C33.9012 108.842 34.4612 109.36 35.5952 109.822L36.2532 110.102C37.0932 110.438 37.4432 110.648 37.4432 111.194C37.4432 111.796 36.8832 112.16 36.1412 112.16C35.3712 112.16 34.8392 111.782 34.1812 111.11L33.4952 111.824ZM45.6665 104.628C45.6665 103.662 46.1845 103.326 47.0945 103.326C47.2765 103.326 47.4725 103.34 47.6965 103.368V102.458C47.4305 102.388 47.1365 102.346 46.8425 102.346C45.4565 102.346 44.5885 103.06 44.5885 104.558V106.182H43.6085V107.148H44.5885V113H45.6665V107.148H47.3745V106.182H45.6665V104.628ZM48.1688 109.584C48.1408 111.502 49.7788 113.182 51.7248 113.14C53.6708 113.182 55.3508 111.502 55.3088 109.584C55.3508 107.638 53.6848 106 51.7388 106.028C49.7928 105.986 48.1268 107.638 48.1688 109.584ZM54.2028 109.598C54.2028 111.026 53.1108 112.146 51.7248 112.146C50.3388 112.146 49.2748 111.026 49.2748 109.598C49.2748 108.128 50.3388 107.022 51.7388 107.022C53.1248 107.022 54.2028 108.128 54.2028 109.598ZM60.8297 106.182C60.6477 106.14 60.4797 106.126 60.3257 106.126C59.4997 106.126 58.7017 106.49 58.2117 107.148V106.182H57.2037V113H58.2817V109.136C58.2817 107.876 59.2757 107.134 60.4237 107.134H60.8297V106.182ZM71.3098 108.8C71.3098 107.008 70.2598 106.028 68.6498 106.028C67.5158 106.028 66.4938 106.518 65.8778 107.526L66.5918 108.114C67.1518 107.386 67.7538 107.022 68.5798 107.022C69.6018 107.022 70.2318 107.624 70.2318 108.744V109.332H68.0758C66.6058 109.332 65.6258 110.074 65.6258 111.236C65.6258 112.412 66.6058 113.154 68.0058 113.154C68.9998 113.154 69.7978 112.79 70.3018 112.118V113H71.3098V108.8ZM70.2318 110.382C70.2318 111.432 69.2658 112.258 68.1458 112.258C67.3478 112.258 66.7318 111.866 66.7318 111.18C66.7318 110.55 67.2498 110.214 68.2018 110.214H70.2318V110.382ZM79.2383 108.716C79.2383 107.106 78.2863 106.028 76.7043 106.028C75.8503 106.028 75.1083 106.35 74.6043 106.91V106.182H73.5963V113H74.6743V108.842C74.6743 107.778 75.4163 107.022 76.4663 107.022C77.5163 107.022 78.1603 107.764 78.1603 108.842V113H79.2383V108.716ZM86.3699 106.182L84.1159 111.614L81.8619 106.182H80.6999L83.5279 112.79L83.1639 113.602C82.8139 114.428 82.3379 114.694 81.6239 114.694C81.4279 114.694 81.1479 114.666 80.7979 114.624V115.534C81.1479 115.632 81.4979 115.674 81.8479 115.674C82.8979 115.674 83.6399 115.142 84.1579 113.952L87.5179 106.182H86.3699ZM98.6386 108.716C98.6386 107.106 97.6866 106.028 96.1186 106.028C95.2646 106.028 94.5366 106.378 94.0746 106.952V102.5H92.9966V113H94.0746V108.856C94.0746 107.792 94.8166 107.022 95.8666 107.022C96.9166 107.022 97.5606 107.75 97.5606 108.856V113H98.6386V108.716ZM100.436 109.584C100.408 111.502 102.046 113.182 103.992 113.14C105.938 113.182 107.618 111.502 107.576 109.584C107.618 107.638 105.952 106 104.006 106.028C102.06 105.986 100.394 107.638 100.436 109.584ZM106.47 109.598C106.47 111.026 105.378 112.146 103.992 112.146C102.606 112.146 101.542 111.026 101.542 109.598C101.542 108.128 102.606 107.022 104.006 107.022C105.392 107.022 106.47 108.128 106.47 109.598ZM119.425 108.716C119.425 107.092 118.515 106.028 116.947 106.028C115.939 106.028 115.113 106.49 114.609 107.204C114.217 106.462 113.503 106.028 112.509 106.028C111.669 106.028 110.969 106.336 110.479 106.896V106.182H109.471V113H110.549V108.856C110.549 107.778 111.263 107.022 112.285 107.022C113.279 107.022 113.909 107.75 113.909 108.856V113H114.987V108.758C114.987 107.792 115.715 107.022 116.737 107.022C117.745 107.022 118.347 107.75 118.347 108.856V113H119.425V108.716ZM127.728 109.92C127.784 109.64 127.812 109.374 127.812 109.108C127.812 107.302 126.468 106.028 124.704 106.028C122.758 106.028 121.218 107.624 121.218 109.598C121.218 111.6 122.8 113.154 124.83 113.154C125.908 113.154 126.846 112.706 127.56 111.964L126.93 111.236C126.314 111.852 125.614 112.16 124.844 112.16C123.5 112.16 122.464 111.264 122.338 109.92H127.728ZM122.38 108.968C122.618 107.792 123.542 107.008 124.676 107.008C125.81 107.008 126.692 107.75 126.706 108.968H122.38ZM133.139 109.584C133.111 111.502 134.749 113.182 136.695 113.14C138.641 113.182 140.321 111.502 140.279 109.584C140.321 107.638 138.655 106 136.709 106.028C134.763 105.986 133.097 107.638 133.139 109.584ZM139.173 109.598C139.173 111.026 138.081 112.146 136.695 112.146C135.309 112.146 134.245 111.026 134.245 109.598C134.245 108.128 135.309 107.022 136.709 107.022C138.095 107.022 139.173 108.128 139.173 109.598ZM145.8 106.182C145.618 106.14 145.45 106.126 145.296 106.126C144.47 106.126 143.672 106.49 143.182 107.148V106.182H142.174V113H143.252V109.136C143.252 107.876 144.246 107.134 145.394 107.134H145.8V106.182ZM158.128 109.584C158.128 107.582 156.7 106.028 154.754 106.028C153.69 106.028 152.696 106.49 152.178 107.274V106.182H151.17V115.52H152.248V112.02C152.808 112.734 153.746 113.154 154.754 113.154C156.672 113.154 158.128 111.586 158.128 109.584ZM157.022 109.598C157.022 111.068 155.986 112.16 154.6 112.16C153.34 112.16 152.234 111.32 152.234 109.584C152.234 107.862 153.382 107.022 154.6 107.022C155.986 107.022 157.022 108.128 157.022 109.598ZM165.126 108.8C165.126 107.008 164.076 106.028 162.466 106.028C161.332 106.028 160.31 106.518 159.694 107.526L160.408 108.114C160.968 107.386 161.57 107.022 162.396 107.022C163.418 107.022 164.048 107.624 164.048 108.744V109.332H161.892C160.422 109.332 159.442 110.074 159.442 111.236C159.442 112.412 160.422 113.154 161.822 113.154C162.816 113.154 163.614 112.79 164.118 112.118V113H165.126V108.8ZM164.048 110.382C164.048 111.432 163.082 112.258 161.962 112.258C161.164 112.258 160.548 111.866 160.548 111.18C160.548 110.55 161.066 110.214 162.018 110.214H164.048V110.382ZM171.137 112.09C170.787 112.146 170.493 112.174 170.227 112.174C169.289 112.174 168.785 111.838 168.785 110.872V107.148H170.913V106.182H168.785V104.32H167.707V106.182H166.559V107.148H167.707V110.942C167.707 112.44 168.589 113.154 170.003 113.154C170.325 113.154 170.703 113.098 171.137 113V112.09ZM172.745 113H173.823V106.182H172.745V113ZM172.479 103.578C172.479 104.026 172.843 104.362 173.291 104.362C173.739 104.362 174.089 104.026 174.089 103.578C174.089 103.144 173.725 102.794 173.291 102.794C172.843 102.794 172.479 103.144 172.479 103.578ZM175.7 109.584C175.672 111.502 177.31 113.182 179.256 113.14C181.202 113.182 182.882 111.502 182.84 109.584C182.882 107.638 181.216 106 179.27 106.028C177.324 105.986 175.658 107.638 175.7 109.584ZM181.734 109.598C181.734 111.026 180.642 112.146 179.256 112.146C177.87 112.146 176.806 111.026 176.806 109.598C176.806 108.128 177.87 107.022 179.27 107.022C180.656 107.022 181.734 108.128 181.734 109.598ZM184.486 112.272C184.486 112.776 184.878 113.154 185.368 113.154C185.858 113.154 186.25 112.776 186.25 112.272C186.25 111.768 185.858 111.39 185.368 111.39C184.878 111.39 184.486 111.768 184.486 112.272Z" fill="#727272"/>
<path d="M8.666 141L5.894 137.192C7 136.758 7.672 135.806 7.672 134.588C7.672 132.922 6.398 131.76 4.536 131.76H1.162V141H2.646V137.43H4.34L6.972 141H8.666ZM2.646 133.076H4.508C5.53 133.076 6.146 133.692 6.146 134.602C6.146 135.498 5.53 136.114 4.508 136.114H2.646V133.076ZM15.879 138.046C15.949 137.724 15.991 137.416 15.991 137.122C15.991 135.33 14.633 133.972 12.813 133.972C10.867 133.93 9.21495 135.596 9.25695 137.57C9.25695 139.6 10.853 141.154 12.953 141.154C14.003 141.154 14.913 140.79 15.697 140.048L14.997 139.04C14.381 139.586 13.709 139.852 12.995 139.852C11.819 139.852 10.937 139.166 10.755 138.046H15.879ZM10.783 136.898C11.007 135.876 11.791 135.218 12.757 135.218C13.723 135.218 14.507 135.848 14.521 136.898H10.783ZM23.1353 136.842C23.1353 134.994 22.0153 133.972 20.3213 133.972C19.1313 133.972 18.1093 134.448 17.4233 135.442L18.2773 136.31C18.8513 135.624 19.4113 135.288 20.1813 135.288C21.1193 135.288 21.6513 135.806 21.6513 136.758V137.206H19.7053C18.1513 137.206 17.1713 137.976 17.1713 139.166C17.1713 140.356 18.1233 141.154 19.5653 141.154C20.5033 141.154 21.2593 140.832 21.7633 140.23V141H23.1353V136.842ZM21.6513 138.396C21.6513 139.334 20.8673 140.02 19.8733 140.02C19.1593 140.02 18.6693 139.684 18.6693 139.11C18.6693 138.55 19.1033 138.27 19.8873 138.27H21.6513V138.396ZM30.4032 130.5V134.966C29.8852 134.336 29.0592 133.972 28.1072 133.972C26.2032 133.93 24.7052 135.568 24.7472 137.57C24.7472 139.6 26.1752 141.154 28.1072 141.154C29.1292 141.154 30.0112 140.734 30.5152 140.02V141H31.8872V130.5H30.4032ZM30.4312 137.57C30.4312 139.068 29.4372 139.81 28.3592 139.81C27.1412 139.81 26.2452 138.872 26.2452 137.556C26.2452 136.24 27.1832 135.316 28.3592 135.316C29.4232 135.316 30.4312 136.086 30.4312 137.57ZM46.309 131.606L42.431 136.772L38.553 131.606H38.035V141H39.519V135.19L42.179 138.676H42.683L45.329 135.204V141H46.813V131.606H46.309ZM48.5363 137.556C48.4943 139.502 50.1883 141.196 52.1623 141.154C54.1643 141.196 55.8583 139.502 55.8162 137.556C55.8583 135.61 54.1643 133.93 52.1623 133.972C50.1883 133.944 48.4943 135.582 48.5363 137.556ZM54.3043 137.57C54.3043 138.816 53.3803 139.796 52.1623 139.796C50.9583 139.796 50.0343 138.844 50.0343 137.57C50.0343 136.296 50.9583 135.316 52.1763 135.316C53.3663 135.316 54.3043 136.296 54.3043 137.57ZM61.4355 134.126C61.2675 134.084 61.0855 134.056 60.8755 134.056C60.0915 134.056 59.3635 134.406 58.8735 135.022V134.126H57.5015V141H58.9715V137.332C58.9715 136.114 59.8255 135.428 60.9875 135.428H61.4355V134.126ZM68.8028 138.046C68.8728 137.724 68.9148 137.416 68.9148 137.122C68.9148 135.33 67.5568 133.972 65.7368 133.972C63.7908 133.93 62.1388 135.596 62.1808 137.57C62.1808 139.6 63.7768 141.154 65.8768 141.154C66.9268 141.154 67.8368 140.79 68.6208 140.048L67.9208 139.04C67.3048 139.586 66.6328 139.852 65.9188 139.852C64.7428 139.852 63.8608 139.166 63.6788 138.046H68.8028ZM63.7068 136.898C63.9308 135.876 64.7148 135.218 65.6808 135.218C66.6468 135.218 67.4308 135.848 67.4448 136.898H63.7068Z" fill="#3D3D3D"/>
<path d="M75.6667 137.817C75.6667 137.564 75.8548 137.355 76.0988 137.322L76.1667 137.317H86.1667C86.4428 137.317 86.6667 137.541 86.6667 137.817C86.6667 138.07 86.4786 138.279 86.2345 138.313L86.1667 138.317H76.1667C75.8905 138.317 75.6667 138.093 75.6667 137.817Z" fill="#3D3D3D"/>
<path d="M81.7807 134.155C81.585 133.96 81.5843 133.644 81.7791 133.448C81.9563 133.27 82.234 133.253 82.4301 133.398L82.4862 133.447L86.5196 137.463C86.698 137.64 86.7142 137.919 86.5683 138.115L86.5196 138.171L82.4863 142.188C82.2906 142.383 81.974 142.382 81.7792 142.186C81.602 142.008 81.5865 141.731 81.7321 141.535L81.7806 141.479L85.458 137.817L81.7807 134.155Z" fill="#3D3D3D"/>
</svg>
