<svg width="242" height="146" viewBox="0 0 242 146" fill="none" xmlns="http://www.w3.org/2000/svg">
<path d="M0.76 32.4C0.68 36.18 3.92 39.32 7.78 39.24C10.32 39.24 12.48 38.02 13.62 35.96L11.58 34.52C10.64 36 9.38 36.74 7.8 36.74C5.34 36.74 3.54 34.94 3.54 32.42C3.54 29.9 5.34 28.06 7.8 28.06C9.38 28.06 10.64 28.8 11.58 30.28L13.62 28.84C12.44 26.78 10.3 25.56 7.8 25.56C3.96 25.48 0.7 28.62 0.76 32.4ZM23.9369 33.12C23.9369 30.38 22.2769 28.88 19.6969 28.88C17.9569 28.88 16.5169 29.56 15.3769 30.92L16.7769 32.58C17.6569 31.64 18.3769 31.22 19.3969 31.22C20.5969 31.22 21.2369 31.86 21.2369 32.96V33.4H18.7569C16.4569 33.4 15.0169 34.5 15.0169 36.28C15.0169 38.02 16.3369 39.24 18.4369 39.24C19.6969 39.24 20.7369 38.78 21.4569 38.04V39H23.9369V33.12ZM21.2369 35.3C21.2369 36.44 20.3369 37.26 19.1569 37.26C18.2969 37.26 17.7369 36.84 17.7369 36.18C17.7369 35.52 18.2369 35.18 19.1169 35.18H21.2369V35.3ZM25.9753 34.04C25.9353 36.9 28.3753 39.3 31.2753 39.24C33.1953 39.24 34.7153 38.3 35.5753 36.78L33.6953 35.34C33.0553 36.24 32.3353 36.76 31.3153 36.76C29.7953 36.76 28.7153 35.62 28.7153 34.04C28.7153 32.5 29.7953 31.34 31.3153 31.34C32.3553 31.34 33.0753 31.88 33.6953 32.78L35.5753 31.32C34.7153 29.8 33.2153 28.88 31.2753 28.88C28.3353 28.88 25.9753 31.14 25.9753 34.04ZM43.9305 36.74C43.2305 36.8 42.8105 36.82 42.6505 36.82C41.3705 36.82 40.8105 36.4 40.8105 35.28V31.38H43.6105V29.1H40.8105V26.6H38.1105V29.1H36.5505V31.38H38.1105V35.52C38.1105 38 39.5705 39.24 42.0705 39.24C42.6705 39.24 43.2905 39.16 43.9305 39V36.74ZM45.8908 39H48.5908V29.1H45.8908V39ZM45.5108 25.5C45.5108 26.44 46.2708 27.16 47.2308 27.16C48.1908 27.16 48.9708 26.44 48.9708 25.5C48.9708 24.54 48.1908 23.82 47.2308 23.82C46.2708 23.82 45.5108 24.54 45.5108 25.5ZM68.3873 33.12L66.3073 31.64C66.0673 32 65.8273 32.34 65.5873 32.66C65.2473 33.16 64.8673 33.72 64.4473 34.3L62.5073 31.96C64.0273 30.7 64.6673 29.72 64.6673 28.46C64.6673 26.76 63.3073 25.56 61.3673 25.56C59.3073 25.56 57.9473 26.82 57.9473 28.72C57.9473 29.68 58.3073 30.56 59.1073 31.6C58.1273 32.38 57.4273 33.06 57.0273 33.64C56.6473 34.22 56.4473 34.86 56.4473 35.56C56.4473 37.74 58.2273 39.24 60.7873 39.24C62.1073 39.24 63.3073 38.84 64.3673 38.02L65.1673 39H68.3273L66.1073 36.3C66.4473 35.88 67.0473 35.06 67.8673 33.88L68.3873 33.12ZM60.3673 28.76C60.3673 28.2 60.7473 27.86 61.3273 27.86C61.9073 27.86 62.2473 28.18 62.2473 28.72C62.2473 29.26 61.9673 29.66 61.1873 30.28L61.1473 30.3C60.5673 29.58 60.3673 29.22 60.3673 28.76ZM62.8073 36.12C62.2073 36.62 61.5873 36.86 60.9473 36.86C59.8873 36.86 59.1473 36.24 59.1473 35.3C59.1473 34.66 59.4273 34.26 60.5273 33.36L62.8073 36.12ZM75.2094 36.32C76.2294 38.1 78.0694 39.24 80.3094 39.24C82.9494 39.24 84.9294 37.7 84.9294 35.28C84.9294 33.5 83.8894 32.4 81.6694 31.42L80.1694 30.76C79.0494 30.26 78.6294 29.94 78.6294 29.24C78.6294 28.42 79.3294 27.96 80.2694 27.96C81.2694 27.96 82.1094 28.46 82.7894 29.48L84.6294 28.06C83.8094 26.54 82.2894 25.56 80.2694 25.56C77.7694 25.56 75.8894 27.04 75.8894 29.3C75.8894 31.06 77.0694 32.2 79.0894 33.1L80.5094 33.74C81.7694 34.32 82.1894 34.6 82.1894 35.38C82.1894 36.28 81.4894 36.84 80.3094 36.84C78.8694 36.84 77.9294 36.1 77.0694 34.92L75.2094 36.32ZM87.0213 34.64C87.0213 37.4 88.9613 39.24 91.6013 39.24C94.1813 39.24 96.1413 37.4 96.1413 34.64V29.1H93.4413V34.86C93.4413 36 92.6413 36.76 91.6013 36.76C90.5013 36.76 89.7213 36 89.7213 34.86V29.1H87.0213V34.64ZM98.1628 34.04C98.1228 36.9 100.563 39.3 103.463 39.24C105.383 39.24 106.903 38.3 107.763 36.78L105.883 35.34C105.243 36.24 104.523 36.76 103.503 36.76C101.983 36.76 100.903 35.62 100.903 34.04C100.903 32.5 101.983 31.34 103.503 31.34C104.543 31.34 105.263 31.88 105.883 32.78L107.763 31.32C106.903 29.8 105.403 28.88 103.463 28.88C100.523 28.88 98.1628 31.14 98.1628 34.04ZM109.003 34.04C108.963 36.9 111.403 39.3 114.303 39.24C116.223 39.24 117.743 38.3 118.603 36.78L116.723 35.34C116.083 36.24 115.363 36.76 114.343 36.76C112.823 36.76 111.743 35.62 111.743 34.04C111.743 32.5 112.823 31.34 114.343 31.34C115.383 31.34 116.103 31.88 116.723 32.78L118.603 31.32C117.743 29.8 116.243 28.88 114.303 28.88C111.363 28.88 109.003 31.14 109.003 34.04ZM120.498 34.64C120.498 37.4 122.438 39.24 125.078 39.24C127.658 39.24 129.618 37.4 129.618 34.64V29.1H126.918V34.86C126.918 36 126.118 36.76 125.078 36.76C123.978 36.76 123.198 36 123.198 34.86V29.1H120.498V34.64ZM132.199 39H134.899V24H132.199V39ZM146.67 34.96C146.79 34.46 146.85 33.96 146.85 33.48C146.85 30.9 144.93 28.88 142.19 28.88C139.33 28.82 136.95 31.2 137.01 34.06C136.95 36.92 139.37 39.3 142.43 39.24C143.89 39.24 145.21 38.74 146.39 37.76L145.27 35.92C144.41 36.58 143.49 36.92 142.51 36.92C141.07 36.92 140.05 36.22 139.73 34.96H146.67ZM139.73 33.06C140.03 31.84 140.95 31.06 142.09 31.06C143.27 31.06 144.21 31.84 144.23 33.06H139.73ZM158.057 32.86C158.057 30.46 156.637 28.88 154.337 28.88C153.157 28.88 152.137 29.3 151.437 30V29.1H148.957V39H151.657V33.22C151.657 32.08 152.437 31.3 153.537 31.3C154.637 31.3 155.377 32.08 155.377 33.22V39H158.057V32.86ZM167.016 36.74C166.316 36.8 165.896 36.82 165.736 36.82C164.456 36.82 163.896 36.4 163.896 35.28V31.38H166.696V29.1H163.896V26.6H161.196V29.1H159.636V31.38H161.196V35.52C161.196 38 162.656 39.24 165.156 39.24C165.756 39.24 166.376 39.16 167.016 39V36.74ZM0.76 58.4C0.68 62.18 3.92 65.32 7.78 65.24C10.32 65.24 12.48 64.02 13.62 61.96L11.58 60.52C10.64 62 9.38 62.74 7.8 62.74C5.34 62.74 3.54 60.94 3.54 58.42C3.54 55.9 5.34 54.06 7.8 54.06C9.38 54.06 10.64 54.8 11.58 56.28L13.62 54.84C12.44 52.78 10.3 51.56 7.8 51.56C3.96 51.48 0.7 54.62 0.76 58.4ZM23.9369 59.12C23.9369 56.38 22.2769 54.88 19.6969 54.88C17.9569 54.88 16.5169 55.56 15.3769 56.92L16.7769 58.58C17.6569 57.64 18.3769 57.22 19.3969 57.22C20.5969 57.22 21.2369 57.86 21.2369 58.96V59.4H18.7569C16.4569 59.4 15.0169 60.5 15.0169 62.28C15.0169 64.02 16.3369 65.24 18.4369 65.24C19.6969 65.24 20.7369 64.78 21.4569 64.04V65H23.9369V59.12ZM21.2369 61.3C21.2369 62.44 20.3369 63.26 19.1569 63.26C18.2969 63.26 17.7369 62.84 17.7369 62.18C17.7369 61.52 18.2369 61.18 19.1169 61.18H21.2369V61.3ZM32.6153 55.1C32.3553 55.02 32.0753 54.98 31.7353 54.98C30.6353 54.98 29.6753 55.46 29.0153 56.28V55.1H26.5353V65H29.2353V60.06C29.2353 58.36 30.2753 57.48 31.8953 57.48H32.6153V55.1ZM43.1939 60.96C43.3139 60.46 43.3739 59.96 43.3739 59.48C43.3739 56.9 41.4539 54.88 38.7139 54.88C35.8539 54.82 33.4739 57.2 33.5339 60.06C33.4739 62.92 35.8939 65.3 38.9539 65.24C40.4139 65.24 41.7339 64.74 42.9139 63.76L41.7939 61.92C40.9339 62.58 40.0139 62.92 39.0339 62.92C37.5939 62.92 36.5739 62.22 36.2539 60.96H43.1939ZM36.2539 59.06C36.5539 57.84 37.4739 57.06 38.6139 57.06C39.7939 57.06 40.7339 57.84 40.7539 59.06H36.2539ZM53.25 65H55.95V54.24H60.19V51.8H49.03V54.24H53.25V65ZM61.7892 65H64.4892V55.1H61.7892V65ZM61.4092 51.5C61.4092 52.44 62.1692 53.16 63.1292 53.16C64.0892 53.16 64.8692 52.44 64.8692 51.5C64.8692 50.54 64.0892 49.82 63.1292 49.82C62.1692 49.82 61.4092 50.54 61.4092 51.5ZM77.6203 60.04C77.6203 57.08 75.5803 54.88 72.8203 54.88C71.4603 54.88 70.3003 55.4 69.6403 56.34V55.1H67.1603V68.6H69.8603V64.04C70.5803 64.82 71.6203 65.24 72.8203 65.24C75.5803 65.24 77.6203 63 77.6203 60.04ZM74.8803 60.06C74.8803 61.68 73.7603 62.78 72.3203 62.78C70.9403 62.78 69.8203 61.8 69.8203 60.04C69.8203 58.26 70.9603 57.32 72.3203 57.32C73.7803 57.32 74.8803 58.4 74.8803 60.06ZM78.8384 63.32C79.7384 64.52 81.1984 65.24 82.9384 65.24C84.0584 65.24 84.9784 64.96 85.6984 64.4C86.4384 63.84 86.7984 63.06 86.7984 62.08C86.7984 60.62 85.9384 59.84 84.0184 59.06L83.0584 58.66C82.2784 58.34 82.0184 58.16 82.0184 57.78C82.0184 57.32 82.4184 57.08 83.0784 57.08C83.8984 57.08 84.6384 57.4 85.2984 58.02L86.6584 56.36C85.7584 55.38 84.5784 54.88 83.0984 54.88C80.9384 54.88 79.4584 55.98 79.4584 57.84C79.4584 59.3 80.3384 60.12 82.1584 60.86L83.2184 61.3C83.9584 61.62 84.2384 61.78 84.2384 62.2C84.2384 62.74 83.6984 63.02 82.9784 63.02C81.9984 63.02 81.0584 62.58 80.1984 61.68L78.8384 63.32Z" fill="#3D3D3D"/>
<path d="M0.504 10.152C1.218 11.398 2.478 12.154 3.99 12.154C5.768 12.154 7.084 11.09 7.084 9.48C7.084 8.262 6.37 7.534 4.872 6.848L3.836 6.372C2.926 5.91 2.604 5.784 2.548 5.056C2.548 4.328 3.164 3.936 3.948 3.936C4.732 3.936 5.404 4.328 5.894 5.056L6.93 4.258C6.356 3.264 5.25 2.606 3.948 2.606C2.352 2.606 1.036 3.6 1.036 5.112C1.036 6.344 1.848 7.058 3.192 7.674L4.214 8.15C5.18 8.598 5.572 8.878 5.572 9.536C5.572 10.32 4.928 10.824 3.976 10.824C2.912 10.824 2.17 10.25 1.554 9.354L0.504 10.152ZM15.0723 9.046C15.1423 8.724 15.1843 8.416 15.1843 8.122C15.1843 6.33 13.8263 4.972 12.0063 4.972C10.0603 4.93 8.40831 6.596 8.45031 8.57C8.45031 10.6 10.0463 12.154 12.1463 12.154C13.1963 12.154 14.1063 11.79 14.8903 11.048L14.1903 10.04C13.5743 10.586 12.9023 10.852 12.1883 10.852C11.0123 10.852 10.1303 10.166 9.94831 9.046H15.0723ZM9.97631 7.898C10.2003 6.876 10.9843 6.218 11.9503 6.218C12.9163 6.218 13.7003 6.848 13.7143 7.898H9.97631ZM24.0087 8.556C24.0087 6.526 22.5807 4.972 20.6347 4.972C19.6267 4.972 18.7447 5.378 18.2407 6.092V5.126H16.8687V14.52H18.3387V11.16C18.8847 11.79 19.6967 12.154 20.6347 12.154C22.5807 12.154 24.0087 10.614 24.0087 8.556ZM22.4967 8.57C22.4967 9.886 21.5727 10.81 20.3967 10.81C19.3187 10.81 18.3247 10.068 18.3247 8.556C18.3247 7.058 19.3187 6.316 20.3967 6.316C21.5867 6.316 22.4967 7.254 22.4967 8.57ZM29.7887 10.754C29.3827 10.796 29.0887 10.824 28.8787 10.824C27.9827 10.824 27.5207 10.516 27.5207 9.634V6.4H29.5647V5.126H27.5207V3.32H26.0367V5.126H24.9167V6.4H26.0367V9.76C26.0367 11.37 26.9887 12.154 28.5707 12.154C28.9207 12.154 29.3267 12.098 29.7887 12V10.754ZM37.3301 9.046C37.4001 8.724 37.4421 8.416 37.4421 8.122C37.4421 6.33 36.0841 4.972 34.2641 4.972C32.3181 4.93 30.6661 6.596 30.7081 8.57C30.7081 10.6 32.3041 12.154 34.4041 12.154C35.4541 12.154 36.3641 11.79 37.1481 11.048L36.4481 10.04C35.8321 10.586 35.1601 10.852 34.4461 10.852C33.2701 10.852 32.3881 10.166 32.2061 9.046H37.3301ZM32.2341 7.898C32.4581 6.876 33.2421 6.218 34.2081 6.218C35.1741 6.218 35.9581 6.848 35.9721 7.898H32.2341ZM49.4445 7.702C49.4445 6.064 48.4785 4.972 46.8965 4.972C45.9305 4.972 45.0765 5.392 44.5725 6.05C44.1665 5.378 43.4385 4.972 42.4865 4.972C41.6605 4.972 40.9885 5.266 40.4985 5.77V5.126H39.1265V12H40.5965V7.912C40.5965 6.96 41.2125 6.316 42.1085 6.316C42.9905 6.316 43.5505 6.96 43.5505 7.912V12H45.0205V7.842C45.0205 6.96 45.6365 6.316 46.5325 6.316C47.4145 6.316 47.9605 6.946 47.9605 7.912V12H49.4445V7.702ZM58.6259 8.57C58.6259 6.526 57.1979 4.972 55.2519 4.972C54.2999 4.972 53.4739 5.336 52.9559 5.966V1.5H51.4859V12H52.8579V11.048C53.3759 11.762 54.2579 12.154 55.2659 12.154C57.1839 12.154 58.6259 10.6 58.6259 8.57ZM57.1139 8.556C57.1139 9.872 56.2039 10.81 55.0139 10.81C53.9359 10.81 52.9419 10.068 52.9419 8.57C52.9419 7.058 53.9359 6.316 55.0139 6.316C56.1899 6.316 57.1139 7.24 57.1139 8.556ZM66.5059 9.046C66.5759 8.724 66.6179 8.416 66.6179 8.122C66.6179 6.33 65.2599 4.972 63.4399 4.972C61.4939 4.93 59.8419 6.596 59.8839 8.57C59.8839 10.6 61.4799 12.154 63.5799 12.154C64.6299 12.154 65.5399 11.79 66.3239 11.048L65.6239 10.04C65.0079 10.586 64.3359 10.852 63.6219 10.852C62.4459 10.852 61.5639 10.166 61.3819 9.046H66.5059ZM61.4099 7.898C61.6339 6.876 62.4179 6.218 63.3839 6.218C64.3499 6.218 65.1339 6.848 65.1479 7.898H61.4099ZM72.2363 5.126C72.0683 5.084 71.8863 5.056 71.6763 5.056C70.8923 5.056 70.1643 5.406 69.6743 6.022V5.126H68.3023V12H69.7723V8.332C69.7723 7.114 70.6263 6.428 71.7883 6.428H72.2363V5.126ZM79.9541 2.76L76.7481 3.81L77.1121 5.112L78.9881 4.51V12H80.4721V2.76H79.9541ZM89.0072 9.018C89.0072 7.156 87.5092 6.134 85.8572 6.134C85.4372 6.134 85.0452 6.176 84.6812 6.26V4.09H88.4892V2.76H83.2252V7.408H85.3532C86.7112 7.408 87.4812 7.996 87.4812 9.046C87.4812 10.11 86.6692 10.796 85.5632 10.796C84.5692 10.796 83.8832 10.278 83.3232 9.424L82.2872 10.166C82.9172 11.356 84.0792 12.154 85.6052 12.154C87.4392 12.154 89.0072 10.88 89.0072 9.018ZM98.6972 12H100.181V2.76H98.6972V12ZM113.939 12L111.167 8.192C112.273 7.758 112.945 6.806 112.945 5.588C112.945 3.922 111.671 2.76 109.809 2.76H106.435V12H107.919V8.43H109.613L112.245 12H113.939ZM107.919 4.076H109.781C110.803 4.076 111.419 4.692 111.419 5.602C111.419 6.498 110.803 7.114 109.781 7.114H107.919V4.076ZM121.152 9.046C121.222 8.724 121.264 8.416 121.264 8.122C121.264 6.33 119.906 4.972 118.086 4.972C116.14 4.93 114.488 6.596 114.53 8.57C114.53 10.6 116.126 12.154 118.226 12.154C119.276 12.154 120.186 11.79 120.97 11.048L120.27 10.04C119.654 10.586 118.982 10.852 118.268 10.852C117.092 10.852 116.21 10.166 116.028 9.046H121.152ZM116.056 7.898C116.28 6.876 117.064 6.218 118.03 6.218C118.996 6.218 119.78 6.848 119.794 7.898H116.056ZM128.409 7.842C128.409 5.994 127.289 4.972 125.595 4.972C124.405 4.972 123.383 5.448 122.697 6.442L123.551 7.31C124.125 6.624 124.685 6.288 125.455 6.288C126.393 6.288 126.925 6.806 126.925 7.758V8.206H124.979C123.425 8.206 122.445 8.976 122.445 10.166C122.445 11.356 123.397 12.154 124.839 12.154C125.777 12.154 126.533 11.832 127.037 11.23V12H128.409V7.842ZM126.925 9.396C126.925 10.334 126.141 11.02 125.147 11.02C124.433 11.02 123.943 10.684 123.943 10.11C123.943 9.55 124.377 9.27 125.161 9.27H126.925V9.396ZM135.677 1.5V5.966C135.159 5.336 134.333 4.972 133.381 4.972C131.477 4.93 129.979 6.568 130.021 8.57C130.021 10.6 131.449 12.154 133.381 12.154C134.403 12.154 135.285 11.734 135.789 11.02V12H137.161V1.5H135.677ZM135.705 8.57C135.705 10.068 134.711 10.81 133.633 10.81C132.415 10.81 131.519 9.872 131.519 8.556C131.519 7.24 132.457 6.316 133.633 6.316C134.697 6.316 135.705 7.086 135.705 8.57ZM143.21 12H144.68V5.126H143.21V12ZM142.944 2.564C142.944 3.11 143.392 3.53 143.952 3.53C144.498 3.53 144.946 3.11 144.946 2.564C144.946 2.018 144.498 1.584 143.952 1.584C143.392 1.584 142.944 2.018 142.944 2.564ZM152.812 7.702C152.812 6.064 151.846 4.972 150.236 4.972C149.382 4.972 148.696 5.252 148.178 5.798V5.126H146.806V12H148.276V7.898C148.276 6.96 148.934 6.302 149.844 6.302C150.74 6.302 151.342 6.946 151.342 7.898V12H152.812V7.702ZM164.635 9.032C164.635 8.234 164.397 7.59 163.921 7.1C163.445 6.61 162.871 6.302 162.185 6.19L164.425 3.166V2.76H158.671V4.118H162.115L159.959 7.016V7.422H160.981C162.339 7.422 163.109 7.996 163.109 9.046C163.109 10.096 162.325 10.796 161.219 10.796C160.267 10.796 159.609 10.278 159.049 9.424L158.013 10.152C158.629 11.342 159.763 12.154 161.261 12.154C163.081 12.154 164.635 10.908 164.635 9.032ZM180.626 7.702C180.626 6.064 179.66 4.972 178.078 4.972C177.112 4.972 176.258 5.392 175.754 6.05C175.348 5.378 174.62 4.972 173.668 4.972C172.842 4.972 172.17 5.266 171.68 5.77V5.126H170.308V12H171.778V7.912C171.778 6.96 172.394 6.316 173.29 6.316C174.172 6.316 174.732 6.96 174.732 7.912V12H176.202V7.842C176.202 6.96 176.818 6.316 177.714 6.316C178.596 6.316 179.142 6.946 179.142 7.912V12H180.626V7.702ZM182.668 12H184.138V5.126H182.668V12ZM182.402 2.564C182.402 3.11 182.85 3.53 183.41 3.53C183.956 3.53 184.404 3.11 184.404 2.564C184.404 2.018 183.956 1.584 183.41 1.584C182.85 1.584 182.402 2.018 182.402 2.564ZM192.269 7.702C192.269 6.064 191.303 4.972 189.693 4.972C188.839 4.972 188.153 5.252 187.635 5.798V5.126H186.263V12H187.733V7.898C187.733 6.96 188.391 6.302 189.301 6.302C190.197 6.302 190.799 6.946 190.799 7.898V12H192.269V7.702ZM194.246 9.116C194.246 10.964 195.534 12.154 197.256 12.154C198.936 12.154 200.238 10.964 200.238 9.116V5.126H198.768V9.228C198.768 10.18 198.11 10.796 197.256 10.796C196.36 10.796 195.702 10.18 195.702 9.228V5.126H194.246V9.116ZM206.388 10.754C205.982 10.796 205.688 10.824 205.478 10.824C204.582 10.824 204.12 10.516 204.12 9.634V6.4H206.164V5.126H204.12V3.32H202.636V5.126H201.516V6.4H202.636V9.76C202.636 11.37 203.588 12.154 205.17 12.154C205.52 12.154 205.926 12.098 206.388 12V10.754ZM213.93 9.046C214 8.724 214.042 8.416 214.042 8.122C214.042 6.33 212.684 4.972 210.864 4.972C208.918 4.93 207.266 6.596 207.308 8.57C207.308 10.6 208.904 12.154 211.004 12.154C212.054 12.154 212.964 11.79 213.748 11.048L213.048 10.04C212.432 10.586 211.76 10.852 211.046 10.852C209.87 10.852 208.988 10.166 208.806 9.046H213.93ZM208.834 7.898C209.058 6.876 209.842 6.218 210.808 6.218C211.774 6.218 212.558 6.848 212.572 7.898H208.834ZM215.082 10.824C215.698 11.622 216.678 12.154 217.854 12.154C218.582 12.154 219.184 11.972 219.674 11.608C220.164 11.23 220.402 10.712 220.402 10.054C220.402 9.088 219.828 8.528 218.526 7.982L217.868 7.716C217.196 7.436 216.958 7.254 216.958 6.904C216.958 6.47 217.322 6.246 217.896 6.246C218.498 6.246 219.072 6.498 219.506 6.946L220.304 6.036C219.702 5.322 218.918 4.972 217.924 4.972C216.524 4.972 215.502 5.728 215.502 6.96C215.502 7.926 216.076 8.458 217.294 8.962L217.994 9.256C218.666 9.536 218.96 9.704 218.96 10.11C218.96 10.614 218.484 10.88 217.854 10.88C217.126 10.88 216.524 10.53 215.922 9.9L215.082 10.824Z" fill="#46A358"/>
<path d="M0.672 86.38C0.616 89.026 2.856 91.196 5.474 91.154C7.112 91.154 8.54 90.384 9.31 89.166L8.498 88.522C7.784 89.544 6.762 90.146 5.488 90.146C3.402 90.146 1.806 88.522 1.806 86.38C1.806 84.238 3.402 82.614 5.488 82.614C6.762 82.614 7.784 83.216 8.498 84.238L9.31 83.594C8.526 82.376 7.112 81.606 5.474 81.606C2.856 81.564 0.616 83.734 0.672 86.38ZM16.2395 86.8C16.2395 85.008 15.1895 84.028 13.5795 84.028C12.4455 84.028 11.4235 84.518 10.8075 85.526L11.5215 86.114C12.0815 85.386 12.6835 85.022 13.5095 85.022C14.5315 85.022 15.1615 85.624 15.1615 86.744V87.332H13.0055C11.5355 87.332 10.5555 88.074 10.5555 89.236C10.5555 90.412 11.5355 91.154 12.9355 91.154C13.9295 91.154 14.7275 90.79 15.2315 90.118V91H16.2395V86.8ZM15.1615 88.382C15.1615 89.432 14.1955 90.258 13.0755 90.258C12.2775 90.258 11.6615 89.866 11.6615 89.18C11.6615 88.55 12.1795 88.214 13.1315 88.214H15.1615V88.382ZM18.0359 87.584C18.0359 89.558 19.6319 91.154 21.6059 91.154C22.7959 91.154 23.7899 90.58 24.4059 89.67L23.6359 89.068C23.0899 89.796 22.4179 90.16 21.6199 90.16C20.2059 90.16 19.1419 89.012 19.1419 87.584C19.1419 86.17 20.2059 85.022 21.6199 85.022C22.4179 85.022 23.1039 85.386 23.6499 86.128L24.4199 85.512C23.8039 84.602 22.7959 84.028 21.6059 84.028C19.6599 84 17.9939 85.638 18.0359 87.584ZM29.9609 90.09C29.6109 90.146 29.3169 90.174 29.0509 90.174C28.1129 90.174 27.6089 89.838 27.6089 88.872V85.148H29.7369V84.182H27.6089V82.32H26.5309V84.182H25.3829V85.148H26.5309V88.942C26.5309 90.44 27.4129 91.154 28.8269 91.154C29.1489 91.154 29.5269 91.098 29.9609 91V90.09ZM31.5689 91H32.6469V84.182H31.5689V91ZM31.3029 81.578C31.3029 82.026 31.6669 82.362 32.1149 82.362C32.5629 82.362 32.9129 82.026 32.9129 81.578C32.9129 81.144 32.5489 80.794 32.1149 80.794C31.6669 80.794 31.3029 81.144 31.3029 81.578ZM44.048 86.8C44.048 85.008 42.998 84.028 41.388 84.028C40.254 84.028 39.232 84.518 38.616 85.526L39.33 86.114C39.89 85.386 40.492 85.022 41.318 85.022C42.34 85.022 42.97 85.624 42.97 86.744V87.332H40.814C39.344 87.332 38.364 88.074 38.364 89.236C38.364 90.412 39.344 91.154 40.744 91.154C41.738 91.154 42.536 90.79 43.04 90.118V91H44.048V86.8ZM42.97 88.382C42.97 89.432 42.004 90.258 40.884 90.258C40.086 90.258 39.47 89.866 39.47 89.18C39.47 88.55 39.988 88.214 40.94 88.214H42.97V88.382ZM51.9765 86.716C51.9765 85.106 51.0245 84.028 49.4425 84.028C48.5885 84.028 47.8465 84.35 47.3425 84.91V84.182H46.3345V91H47.4125V86.842C47.4125 85.778 48.1545 85.022 49.2045 85.022C50.2545 85.022 50.8985 85.764 50.8985 86.842V91H51.9765V86.716ZM59.6682 80.5V85.19C59.1222 84.462 58.1702 84.028 57.1482 84.028C55.2302 84.028 53.7742 85.596 53.7742 87.598C53.7742 89.6 55.2302 91.154 57.1482 91.154C58.2122 91.154 59.2062 90.692 59.7242 89.922V91H60.7462V80.5H59.6682ZM59.6822 87.598C59.6822 89.32 58.5342 90.16 57.3022 90.16C55.9162 90.16 54.8802 89.054 54.8802 87.584C54.8802 86.114 55.9162 85.022 57.3022 85.022C58.5342 85.022 59.6822 85.862 59.6822 87.598ZM66.3898 89.824C66.9918 90.608 67.9158 91.154 69.0498 91.154C69.7218 91.154 70.2818 90.986 70.7438 90.636C71.2058 90.286 71.4438 89.782 71.4438 89.152C71.4438 88.214 70.9118 87.682 69.6378 87.136L69.0078 86.87C68.1818 86.52 67.9017 86.31 67.9017 85.876C67.9017 85.33 68.3638 85.022 69.0358 85.022C69.6658 85.022 70.2538 85.316 70.7158 85.778L71.3738 85.106C70.8138 84.434 70.0438 84.028 69.0918 84.028C67.7898 84.028 66.7958 84.742 66.7958 85.932C66.7958 86.842 67.3558 87.36 68.4898 87.822L69.1478 88.102C69.9878 88.438 70.3378 88.648 70.3378 89.194C70.3378 89.796 69.7778 90.16 69.0358 90.16C68.2658 90.16 67.7338 89.782 67.0758 89.11L66.3898 89.824ZM73.3072 88.284C73.3072 90.006 74.5392 91.154 76.1352 91.154C77.7172 91.154 78.9492 90.006 78.9492 88.284V84.182H77.8712V88.354C77.8712 89.432 77.1292 90.16 76.1352 90.16C75.1272 90.16 74.3712 89.46 74.3712 88.354V84.182H73.3072V88.284ZM80.7352 87.584C80.7352 89.558 82.3312 91.154 84.3052 91.154C85.4952 91.154 86.4892 90.58 87.1052 89.67L86.3352 89.068C85.7892 89.796 85.1172 90.16 84.3192 90.16C82.9052 90.16 81.8412 89.012 81.8412 87.584C81.8412 86.17 82.9052 85.022 84.3192 85.022C85.1172 85.022 85.8032 85.386 86.3492 86.128L87.1192 85.512C86.5032 84.602 85.4952 84.028 84.3052 84.028C82.3592 84 80.6932 85.638 80.7352 87.584ZM88.3094 87.584C88.3094 89.558 89.9054 91.154 91.8794 91.154C93.0694 91.154 94.0634 90.58 94.6794 89.67L93.9094 89.068C93.3634 89.796 92.6914 90.16 91.8934 90.16C90.4794 90.16 89.4154 89.012 89.4154 87.584C89.4154 86.17 90.4794 85.022 91.8934 85.022C92.6914 85.022 93.3774 85.386 93.9234 86.128L94.6934 85.512C94.0774 84.602 93.0694 84.028 91.8794 84.028C89.9334 84 88.2674 85.638 88.3094 87.584ZM96.4263 88.284C96.4263 90.006 97.6583 91.154 99.2543 91.154C100.836 91.154 102.068 90.006 102.068 88.284V84.182H100.99V88.354C100.99 89.432 100.248 90.16 99.2543 90.16C98.2463 90.16 97.4903 89.46 97.4903 88.354V84.182H96.4263V88.284ZM104.344 91H105.422V80.5H104.344V91ZM113.81 87.92C113.866 87.64 113.894 87.374 113.894 87.108C113.894 85.302 112.55 84.028 110.786 84.028C108.84 84.028 107.3 85.624 107.3 87.598C107.3 89.6 108.882 91.154 110.912 91.154C111.99 91.154 112.928 90.706 113.642 89.964L113.012 89.236C112.396 89.852 111.696 90.16 110.926 90.16C109.582 90.16 108.546 89.264 108.42 87.92H113.81ZM108.462 86.968C108.7 85.792 109.624 85.008 110.758 85.008C111.892 85.008 112.774 85.75 112.788 86.968H108.462ZM121.43 86.716C121.43 85.106 120.478 84.028 118.896 84.028C118.042 84.028 117.3 84.35 116.796 84.91V84.182H115.788V91H116.866V86.842C116.866 85.778 117.608 85.022 118.658 85.022C119.708 85.022 120.352 85.764 120.352 86.842V91H121.43V86.716ZM127.441 90.09C127.091 90.146 126.797 90.174 126.531 90.174C125.593 90.174 125.089 89.838 125.089 88.872V85.148H127.217V84.182H125.089V82.32H124.011V84.182H122.863V85.148H124.011V88.942C124.011 90.44 124.893 91.154 126.307 91.154C126.629 91.154 127.007 91.098 127.441 91V90.09ZM128.405 89.824C129.007 90.608 129.931 91.154 131.065 91.154C131.737 91.154 132.297 90.986 132.759 90.636C133.221 90.286 133.459 89.782 133.459 89.152C133.459 88.214 132.927 87.682 131.653 87.136L131.023 86.87C130.197 86.52 129.917 86.31 129.917 85.876C129.917 85.33 130.379 85.022 131.051 85.022C131.681 85.022 132.269 85.316 132.731 85.778L133.389 85.106C132.829 84.434 132.059 84.028 131.107 84.028C129.805 84.028 128.811 84.742 128.811 85.932C128.811 86.842 129.371 87.36 130.505 87.822L131.163 88.102C132.003 88.438 132.353 88.648 132.353 89.194C132.353 89.796 131.793 90.16 131.051 90.16C130.281 90.16 129.749 89.782 129.091 89.11L128.405 89.824ZM143.055 90.09C142.705 90.146 142.411 90.174 142.145 90.174C141.207 90.174 140.703 89.838 140.703 88.872V85.148H142.831V84.182H140.703V82.32H139.625V84.182H138.477V85.148H139.625V88.942C139.625 90.44 140.507 91.154 141.921 91.154C142.243 91.154 142.621 91.098 143.055 91V90.09ZM150.305 86.716C150.305 85.106 149.353 84.028 147.785 84.028C146.931 84.028 146.203 84.378 145.741 84.952V80.5H144.663V91H145.741V86.856C145.741 85.792 146.483 85.022 147.533 85.022C148.583 85.022 149.227 85.75 149.227 86.856V91H150.305V86.716ZM156.218 84.182C156.036 84.14 155.868 84.126 155.714 84.126C154.888 84.126 154.09 84.49 153.6 85.148V84.182H152.592V91H153.67V87.136C153.67 85.876 154.664 85.134 155.812 85.134H156.218V84.182ZM157.665 91H158.743V84.182H157.665V91ZM157.399 81.578C157.399 82.026 157.763 82.362 158.211 82.362C158.659 82.362 159.009 82.026 159.009 81.578C159.009 81.144 158.645 80.794 158.211 80.794C157.763 80.794 157.399 81.144 157.399 81.578ZM165.954 84.182L163.7 89.32L161.432 84.182H160.284L163.504 91.154H163.896L167.102 84.182H165.954ZM174.403 87.92C174.459 87.64 174.487 87.374 174.487 87.108C174.487 85.302 173.143 84.028 171.379 84.028C169.433 84.028 167.893 85.624 167.893 87.598C167.893 89.6 169.475 91.154 171.505 91.154C172.583 91.154 173.521 90.706 174.235 89.964L173.605 89.236C172.989 89.852 172.289 90.16 171.519 90.16C170.175 90.16 169.139 89.264 169.013 87.92H174.403ZM169.055 86.968C169.293 85.792 170.217 85.008 171.351 85.008C172.485 85.008 173.367 85.75 173.381 86.968H169.055ZM180.305 91H181.383V84.182H180.305V91ZM180.039 81.578C180.039 82.026 180.403 82.362 180.851 82.362C181.299 82.362 181.649 82.026 181.649 81.578C181.649 81.144 181.285 80.794 180.851 80.794C180.403 80.794 180.039 81.144 180.039 81.578ZM189.393 86.716C189.393 85.106 188.441 84.028 186.859 84.028C186.005 84.028 185.263 84.35 184.759 84.91V84.182H183.751V91H184.829V86.842C184.829 85.778 185.571 85.022 186.621 85.022C187.671 85.022 188.315 85.764 188.315 86.842V91H189.393V86.716ZM0.7 109.584C0.7 111.558 2.296 113.154 4.27 113.154C5.46 113.154 6.454 112.58 7.07 111.67L6.3 111.068C5.754 111.796 5.082 112.16 4.284 112.16C2.87 112.16 1.806 111.012 1.806 109.584C1.806 108.17 2.87 107.022 4.284 107.022C5.082 107.022 5.768 107.386 6.314 108.128L7.084 107.512C6.468 106.602 5.46 106.028 4.27 106.028C2.324 106 0.658 107.638 0.7 109.584ZM8.27422 109.584C8.24622 111.502 9.88422 113.182 11.8302 113.14C13.7762 113.182 15.4562 111.502 15.4142 109.584C15.4562 107.638 13.7902 106 11.8442 106.028C9.89822 105.986 8.23222 107.638 8.27422 109.584ZM14.3082 109.598C14.3082 111.026 13.2162 112.146 11.8302 112.146C10.4442 112.146 9.38022 111.026 9.38022 109.598C9.38022 108.128 10.4442 107.022 11.8442 107.022C13.2302 107.022 14.3082 108.128 14.3082 109.598ZM22.9511 108.716C22.9511 107.106 21.9991 106.028 20.4171 106.028C19.5631 106.028 18.8211 106.35 18.3171 106.91V106.182H17.3091V113H18.3871V108.842C18.3871 107.778 19.1291 107.022 20.1791 107.022C21.2291 107.022 21.8731 107.764 21.8731 108.842V113H22.9511V108.716ZM28.9628 112.09C28.6128 112.146 28.3188 112.174 28.0528 112.174C27.1148 112.174 26.6108 111.838 26.6108 110.872V107.148H28.7388V106.182H26.6108V104.32H25.5328V106.182H24.3848V107.148H25.5328V110.942C25.5328 112.44 26.4148 113.154 27.8288 113.154C28.1508 113.154 28.5288 113.098 28.9628 113V112.09ZM35.6809 108.8C35.6809 107.008 34.6309 106.028 33.0209 106.028C31.8869 106.028 30.8649 106.518 30.2489 107.526L30.9629 108.114C31.5229 107.386 32.1249 107.022 32.9509 107.022C33.9729 107.022 34.6029 107.624 34.6029 108.744V109.332H32.4469C30.9769 109.332 29.9969 110.074 29.9969 111.236C29.9969 112.412 30.9769 113.154 32.3769 113.154C33.3709 113.154 34.1689 112.79 34.6729 112.118V113H35.6809V108.8ZM34.6029 110.382C34.6029 111.432 33.6369 112.258 32.5169 112.258C31.7189 112.258 31.1029 111.866 31.1029 111.18C31.1029 110.55 31.6209 110.214 32.5729 110.214H34.6029V110.382ZM37.9673 113H39.0453V106.182H37.9673V113ZM37.7013 103.578C37.7013 104.026 38.0653 104.362 38.5133 104.362C38.9613 104.362 39.3113 104.026 39.3113 103.578C39.3113 103.144 38.9473 102.794 38.5133 102.794C38.0653 102.794 37.7013 103.144 37.7013 103.578ZM47.0547 108.716C47.0547 107.106 46.1027 106.028 44.5207 106.028C43.6667 106.028 42.9247 106.35 42.4207 106.91V106.182H41.4127V113H42.4907V108.842C42.4907 107.778 43.2327 107.022 44.2827 107.022C45.3327 107.022 45.9767 107.764 45.9767 108.842V113H47.0547V108.716ZM55.3623 109.92C55.4183 109.64 55.4463 109.374 55.4463 109.108C55.4463 107.302 54.1023 106.028 52.3383 106.028C50.3923 106.028 48.8523 107.624 48.8523 109.598C48.8523 111.6 50.4343 113.154 52.4643 113.154C53.5423 113.154 54.4803 112.706 55.1943 111.964L54.5643 111.236C53.9483 111.852 53.2483 112.16 52.4783 112.16C51.1343 112.16 50.0983 111.264 49.9723 109.92H55.3623ZM50.0143 108.968C50.2523 107.792 51.1763 107.008 52.3103 107.008C53.4443 107.008 54.3263 107.75 54.3403 108.968H50.0143ZM60.9664 106.182C60.7844 106.14 60.6164 106.126 60.4624 106.126C59.6364 106.126 58.8384 106.49 58.3484 107.148V106.182H57.3404V113H58.4184V109.136C58.4184 107.876 59.4124 107.134 60.5604 107.134H60.9664V106.182ZM61.7687 111.824C62.3707 112.608 63.2947 113.154 64.4287 113.154C65.1007 113.154 65.6607 112.986 66.1227 112.636C66.5847 112.286 66.8227 111.782 66.8227 111.152C66.8227 110.214 66.2907 109.682 65.0167 109.136L64.3867 108.87C63.5607 108.52 63.2807 108.31 63.2807 107.876C63.2807 107.33 63.7427 107.022 64.4147 107.022C65.0447 107.022 65.6327 107.316 66.0947 107.778L66.7527 107.106C66.1927 106.434 65.4227 106.028 64.4707 106.028C63.1687 106.028 62.1747 106.742 62.1747 107.932C62.1747 108.842 62.7347 109.36 63.8687 109.822L64.5267 110.102C65.3667 110.438 65.7167 110.648 65.7167 111.194C65.7167 111.796 65.1567 112.16 64.4147 112.16C63.6447 112.16 63.1127 111.782 62.4547 111.11L61.7687 111.824ZM77.8039 108.8C77.8039 107.008 76.7539 106.028 75.1439 106.028C74.0099 106.028 72.9879 106.518 72.3719 107.526L73.0859 108.114C73.6459 107.386 74.2479 107.022 75.0739 107.022C76.0959 107.022 76.7259 107.624 76.7259 108.744V109.332H74.5699C73.0999 109.332 72.1199 110.074 72.1199 111.236C72.1199 112.412 73.0999 113.154 74.4999 113.154C75.4939 113.154 76.2919 112.79 76.7959 112.118V113H77.8039V108.8ZM76.7259 110.382C76.7259 111.432 75.7599 112.258 74.6399 112.258C73.8419 112.258 73.2259 111.866 73.2259 111.18C73.2259 110.55 73.7439 110.214 74.6959 110.214H76.7259V110.382ZM85.7324 108.716C85.7324 107.106 84.7804 106.028 83.1984 106.028C82.3444 106.028 81.6024 106.35 81.0984 106.91V106.182H80.0904V113H81.1684V108.842C81.1684 107.778 81.9104 107.022 82.9604 107.022C84.0104 107.022 84.6544 107.764 84.6544 108.842V113H85.7324V108.716ZM93.4241 102.5V107.19C92.8781 106.462 91.9261 106.028 90.9041 106.028C88.9861 106.028 87.5301 107.596 87.5301 109.598C87.5301 111.6 88.9861 113.154 90.9041 113.154C91.9681 113.154 92.9621 112.692 93.4801 111.922V113H94.5021V102.5H93.4241ZM93.4381 109.598C93.4381 111.32 92.2901 112.16 91.0581 112.16C89.6721 112.16 88.6361 111.054 88.6361 109.584C88.6361 108.114 89.6721 107.022 91.0581 107.022C92.2901 107.022 93.4381 107.862 93.4381 109.598ZM107.748 109.598C107.748 107.596 106.292 106.028 104.374 106.028C103.352 106.028 102.414 106.462 101.868 107.176V102.5H100.79V113H101.798V111.922C102.316 112.692 103.324 113.154 104.388 113.154C106.306 113.154 107.748 111.6 107.748 109.598ZM106.642 109.584C106.642 111.054 105.606 112.16 104.22 112.16C103.002 112.16 101.854 111.32 101.854 109.598C101.854 107.862 102.96 107.022 104.22 107.022C105.606 107.022 106.642 108.114 106.642 109.584ZM115.655 109.92C115.711 109.64 115.739 109.374 115.739 109.108C115.739 107.302 114.395 106.028 112.631 106.028C110.685 106.028 109.145 107.624 109.145 109.598C109.145 111.6 110.727 113.154 112.757 113.154C113.835 113.154 114.773 112.706 115.487 111.964L114.857 111.236C114.241 111.852 113.541 112.16 112.771 112.16C111.427 112.16 110.391 111.264 110.265 109.92H115.655ZM110.307 108.968C110.545 107.792 111.469 107.008 112.603 107.008C113.737 107.008 114.619 107.75 114.633 108.968H110.307ZM117.143 109.584C117.143 111.558 118.739 113.154 120.713 113.154C121.903 113.154 122.897 112.58 123.513 111.67L122.743 111.068C122.197 111.796 121.525 112.16 120.727 112.16C119.313 112.16 118.249 111.012 118.249 109.584C118.249 108.17 119.313 107.022 120.727 107.022C121.525 107.022 122.211 107.386 122.757 108.128L123.527 107.512C122.911 106.602 121.903 106.028 120.713 106.028C118.767 106 117.101 107.638 117.143 109.584ZM130.454 108.8C130.454 107.008 129.404 106.028 127.794 106.028C126.66 106.028 125.638 106.518 125.022 107.526L125.736 108.114C126.296 107.386 126.898 107.022 127.724 107.022C128.746 107.022 129.376 107.624 129.376 108.744V109.332H127.22C125.75 109.332 124.77 110.074 124.77 111.236C124.77 112.412 125.75 113.154 127.15 113.154C128.144 113.154 128.942 112.79 129.446 112.118V113H130.454V108.8ZM129.376 110.382C129.376 111.432 128.41 112.258 127.29 112.258C126.492 112.258 125.876 111.866 125.876 111.18C125.876 110.55 126.394 110.214 127.346 110.214H129.376V110.382ZM132.657 110.284C132.657 112.006 133.889 113.154 135.485 113.154C137.067 113.154 138.299 112.006 138.299 110.284V106.182H137.221V110.354C137.221 111.432 136.479 112.16 135.485 112.16C134.477 112.16 133.721 111.46 133.721 110.354V106.182H132.657V110.284ZM139.931 111.824C140.533 112.608 141.457 113.154 142.591 113.154C143.263 113.154 143.823 112.986 144.285 112.636C144.747 112.286 144.985 111.782 144.985 111.152C144.985 110.214 144.453 109.682 143.179 109.136L142.549 108.87C141.723 108.52 141.443 108.31 141.443 107.876C141.443 107.33 141.905 107.022 142.577 107.022C143.207 107.022 143.795 107.316 144.257 107.778L144.915 107.106C144.355 106.434 143.585 106.028 142.633 106.028C141.331 106.028 140.337 106.742 140.337 107.932C140.337 108.842 140.897 109.36 142.031 109.822L142.689 110.102C143.529 110.438 143.879 110.648 143.879 111.194C143.879 111.796 143.319 112.16 142.577 112.16C141.807 112.16 141.275 111.782 140.617 111.11L139.931 111.824ZM152.952 109.92C153.008 109.64 153.036 109.374 153.036 109.108C153.036 107.302 151.692 106.028 149.928 106.028C147.982 106.028 146.442 107.624 146.442 109.598C146.442 111.6 148.024 113.154 150.054 113.154C151.132 113.154 152.07 112.706 152.784 111.964L152.154 111.236C151.538 111.852 150.838 112.16 150.068 112.16C148.724 112.16 147.688 111.264 147.562 109.92H152.952ZM147.604 108.968C147.842 107.792 148.766 107.008 149.9 107.008C151.034 107.008 151.916 107.75 151.93 108.968H147.604ZM168.808 108.716C168.808 107.092 167.898 106.028 166.33 106.028C165.322 106.028 164.496 106.49 163.992 107.204C163.6 106.462 162.886 106.028 161.892 106.028C161.052 106.028 160.352 106.336 159.862 106.896V106.182H158.854V113H159.932V108.856C159.932 107.778 160.646 107.022 161.668 107.022C162.662 107.022 163.292 107.75 163.292 108.856V113H164.37V108.758C164.37 107.792 165.098 107.022 166.12 107.022C167.128 107.022 167.73 107.75 167.73 108.856V113H168.808V108.716ZM170.6 109.584C170.572 111.502 172.21 113.182 174.156 113.14C176.102 113.182 177.782 111.502 177.74 109.584C177.782 107.638 176.116 106 174.17 106.028C172.224 105.986 170.558 107.638 170.6 109.584ZM176.634 109.598C176.634 111.026 175.542 112.146 174.156 112.146C172.77 112.146 171.706 111.026 171.706 109.598C171.706 108.128 172.77 107.022 174.17 107.022C175.556 107.022 176.634 108.128 176.634 109.598ZM178.991 111.824C179.593 112.608 180.517 113.154 181.651 113.154C182.323 113.154 182.883 112.986 183.345 112.636C183.807 112.286 184.045 111.782 184.045 111.152C184.045 110.214 183.513 109.682 182.239 109.136L181.609 108.87C180.783 108.52 180.503 108.31 180.503 107.876C180.503 107.33 180.965 107.022 181.637 107.022C182.267 107.022 182.855 107.316 183.317 107.778L183.975 107.106C183.415 106.434 182.645 106.028 181.693 106.028C180.391 106.028 179.397 106.742 179.397 107.932C179.397 108.842 179.957 109.36 181.091 109.822L181.749 110.102C182.589 110.438 182.939 110.648 182.939 111.194C182.939 111.796 182.379 112.16 181.637 112.16C180.867 112.16 180.335 111.782 179.677 111.11L178.991 111.824ZM189.717 112.09C189.367 112.146 189.073 112.174 188.807 112.174C187.869 112.174 187.365 111.838 187.365 110.872V107.148H189.493V106.182H187.365V104.32H186.287V106.182H185.139V107.148H186.287V110.942C186.287 112.44 187.169 113.154 188.583 113.154C188.905 113.154 189.283 113.098 189.717 113V112.09ZM200.359 108.8C200.359 107.008 199.309 106.028 197.699 106.028C196.565 106.028 195.543 106.518 194.927 107.526L195.641 108.114C196.201 107.386 196.803 107.022 197.629 107.022C198.651 107.022 199.281 107.624 199.281 108.744V109.332H197.125C195.655 109.332 194.675 110.074 194.675 111.236C194.675 112.412 195.655 113.154 197.055 113.154C198.049 113.154 198.847 112.79 199.351 112.118V113H200.359V108.8ZM199.281 110.382C199.281 111.432 198.315 112.258 197.195 112.258C196.397 112.258 195.781 111.866 195.781 111.18C195.781 110.55 196.299 110.214 197.251 110.214H199.281V110.382ZM206.271 106.182C206.089 106.14 205.921 106.126 205.767 106.126C204.941 106.126 204.143 106.49 203.653 107.148V106.182H202.645V113H203.723V109.136C203.723 107.876 204.717 107.134 205.865 107.134H206.271V106.182ZM213.601 109.92C213.657 109.64 213.685 109.374 213.685 109.108C213.685 107.302 212.341 106.028 210.577 106.028C208.631 106.028 207.091 107.624 207.091 109.598C207.091 111.6 208.673 113.154 210.703 113.154C211.781 113.154 212.719 112.706 213.433 111.964L212.803 111.236C212.187 111.852 211.487 112.16 210.717 112.16C209.373 112.16 208.337 111.264 208.211 109.92H213.601ZM208.253 108.968C208.491 107.792 209.415 107.008 210.549 107.008C211.683 107.008 212.565 107.75 212.579 108.968H208.253ZM215.467 112.272C215.467 112.776 215.859 113.154 216.349 113.154C216.839 113.154 217.231 112.776 217.231 112.272C217.231 111.768 216.839 111.39 216.349 111.39C215.859 111.39 215.467 111.768 215.467 112.272ZM219.391 112.272C219.391 112.776 219.783 113.154 220.273 113.154C220.763 113.154 221.155 112.776 221.155 112.272C221.155 111.768 220.763 111.39 220.273 111.39C219.783 111.39 219.391 111.768 219.391 112.272Z" fill="#727272"/>
<path d="M8.666 141L5.894 137.192C7 136.758 7.672 135.806 7.672 134.588C7.672 132.922 6.398 131.76 4.536 131.76H1.162V141H2.646V137.43H4.34L6.972 141H8.666ZM2.646 133.076H4.508C5.53 133.076 6.146 133.692 6.146 134.602C6.146 135.498 5.53 136.114 4.508 136.114H2.646V133.076ZM15.879 138.046C15.949 137.724 15.991 137.416 15.991 137.122C15.991 135.33 14.633 133.972 12.813 133.972C10.867 133.93 9.21495 135.596 9.25695 137.57C9.25695 139.6 10.853 141.154 12.953 141.154C14.003 141.154 14.913 140.79 15.697 140.048L14.997 139.04C14.381 139.586 13.709 139.852 12.995 139.852C11.819 139.852 10.937 139.166 10.755 138.046H15.879ZM10.783 136.898C11.007 135.876 11.791 135.218 12.757 135.218C13.723 135.218 14.507 135.848 14.521 136.898H10.783ZM23.1353 136.842C23.1353 134.994 22.0153 133.972 20.3213 133.972C19.1313 133.972 18.1093 134.448 17.4233 135.442L18.2773 136.31C18.8513 135.624 19.4113 135.288 20.1813 135.288C21.1193 135.288 21.6513 135.806 21.6513 136.758V137.206H19.7053C18.1513 137.206 17.1713 137.976 17.1713 139.166C17.1713 140.356 18.1233 141.154 19.5653 141.154C20.5033 141.154 21.2593 140.832 21.7633 140.23V141H23.1353V136.842ZM21.6513 138.396C21.6513 139.334 20.8673 140.02 19.8733 140.02C19.1593 140.02 18.6693 139.684 18.6693 139.11C18.6693 138.55 19.1033 138.27 19.8873 138.27H21.6513V138.396ZM30.4032 130.5V134.966C29.8852 134.336 29.0592 133.972 28.1072 133.972C26.2032 133.93 24.7052 135.568 24.7472 137.57C24.7472 139.6 26.1752 141.154 28.1072 141.154C29.1292 141.154 30.0112 140.734 30.5152 140.02V141H31.8872V130.5H30.4032ZM30.4312 137.57C30.4312 139.068 29.4372 139.81 28.3592 139.81C27.1412 139.81 26.2452 138.872 26.2452 137.556C26.2452 136.24 27.1832 135.316 28.3592 135.316C29.4232 135.316 30.4312 136.086 30.4312 137.57ZM46.309 131.606L42.431 136.772L38.553 131.606H38.035V141H39.519V135.19L42.179 138.676H42.683L45.329 135.204V141H46.813V131.606H46.309ZM48.5363 137.556C48.4943 139.502 50.1883 141.196 52.1623 141.154C54.1643 141.196 55.8583 139.502 55.8162 137.556C55.8583 135.61 54.1643 133.93 52.1623 133.972C50.1883 133.944 48.4943 135.582 48.5363 137.556ZM54.3043 137.57C54.3043 138.816 53.3803 139.796 52.1623 139.796C50.9583 139.796 50.0343 138.844 50.0343 137.57C50.0343 136.296 50.9583 135.316 52.1763 135.316C53.3663 135.316 54.3043 136.296 54.3043 137.57ZM61.4355 134.126C61.2675 134.084 61.0855 134.056 60.8755 134.056C60.0915 134.056 59.3635 134.406 58.8735 135.022V134.126H57.5015V141H58.9715V137.332C58.9715 136.114 59.8255 135.428 60.9875 135.428H61.4355V134.126ZM68.8028 138.046C68.8728 137.724 68.9148 137.416 68.9148 137.122C68.9148 135.33 67.5568 133.972 65.7368 133.972C63.7908 133.93 62.1388 135.596 62.1808 137.57C62.1808 139.6 63.7768 141.154 65.8768 141.154C66.9268 141.154 67.8368 140.79 68.6208 140.048L67.9208 139.04C67.3048 139.586 66.6328 139.852 65.9188 139.852C64.7428 139.852 63.8608 139.166 63.6788 138.046H68.8028ZM63.7068 136.898C63.9308 135.876 64.7148 135.218 65.6808 135.218C66.6468 135.218 67.4308 135.848 67.4448 136.898H63.7068Z" fill="#46A358"/>
<path d="M75.6667 137.817C75.6667 137.564 75.8548 137.355 76.0988 137.322L76.1667 137.317H86.1667C86.4428 137.317 86.6667 137.541 86.6667 137.817C86.6667 138.07 86.4786 138.279 86.2345 138.313L86.1667 138.317H76.1667C75.8905 138.317 75.6667 138.093 75.6667 137.817Z" fill="#46A358"/>
<path d="M81.7807 134.155C81.585 133.96 81.5843 133.644 81.7791 133.448C81.9563 133.27 82.234 133.253 82.4301 133.398L82.4863 133.447L86.5196 137.463C86.698 137.64 86.7142 137.919 86.5683 138.115L86.5196 138.171L82.4863 142.188C82.2906 142.383 81.974 142.382 81.7792 142.186C81.602 142.008 81.5865 141.731 81.7321 141.535L81.7806 141.479L85.458 137.817L81.7807 134.155Z" fill="#46A358"/>
</svg>
