<svg width="206" height="114" viewBox="0 0 206 114" fill="none" xmlns="http://www.w3.org/2000/svg">
<path d="M1.584 38H12.264V34.28H5.712V22.16H1.584V38ZM14.4277 38H25.7078V34.28H18.5558V31.52H23.4518V28.064H18.5558V25.88H25.4198V22.16H14.4277V38ZM31.6873 38H35.8153V25.88H40.5673V22.16H26.9353V25.88H31.6873V38ZM42.6287 29.168H45.7487L47.3087 22.16H42.6287V29.168ZM48.927 34.736C50.079 36.92 52.383 38.288 55.239 38.288C58.527 38.288 61.047 36.416 61.047 33.344C61.047 31.112 59.751 29.72 56.991 28.568L55.167 27.8C54.135 27.392 53.799 27.08 53.799 26.504C53.799 25.832 54.351 25.496 55.215 25.496C56.343 25.496 57.063 26.024 57.831 27.176L60.591 25.064C59.631 23.12 57.783 21.872 55.167 21.872C51.927 21.872 49.623 23.744 49.623 26.552C49.623 28.688 51.015 30.176 53.631 31.328L55.263 32.048C56.511 32.6 56.871 32.816 56.871 33.512C56.871 34.28 56.319 34.664 55.239 34.664C53.631 34.664 52.647 33.872 51.711 32.624L48.927 34.736ZM84.9233 21.872L78.1793 30.104L71.4353 21.872H70.1152V38H74.2433V31.376L77.5073 35.192H78.8273L82.1153 31.352V38H86.2433V21.872H84.9233ZM99.1483 38H103.588L96.3883 21.872H95.0683L87.8683 38H92.3083L92.8843 36.68H98.5723L99.1483 38ZM97.1083 33.368H94.3483L95.7403 29.696L97.1083 33.368ZM120.273 38L113.937 29.696L119.385 22.16H114.585L109.353 29.336V22.16H105.225V38H109.353V30.104L115.377 38H120.273ZM121.912 38H133.192V34.28H126.04V31.52H130.936V28.064H126.04V25.88H132.904V22.16H121.912V38ZM151.039 38H155.479L148.279 21.872H146.959L139.759 38H144.199L144.775 36.68H150.463L151.039 38ZM148.999 33.368H146.239L147.631 29.696L148.999 33.368ZM14.328 62.296C14.328 60.472 13.344 59.176 11.688 58.504C12.336 57.784 12.648 56.896 12.648 55.84C12.648 53.08 10.344 51.16 7.296 51.16H1.584V67H8.976C12.024 67 14.328 65.032 14.328 62.296ZM7.032 54.64C8.016 54.64 8.616 55.192 8.616 56.032C8.616 56.872 8.016 57.424 7.032 57.424H5.544V54.64H7.032ZM10.296 62.128C10.296 63.064 9.696 63.52 8.712 63.52H5.544V60.736H8.712C9.696 60.736 10.296 61.192 10.296 62.128ZM16.5606 67H27.8406V63.28H20.6886V60.52H25.5846V57.064H20.6886V54.88H27.5526V51.16H16.5606V67ZM33.8201 67H37.9481V54.88H42.7001V51.16H29.0681V54.88H33.8201V67ZM47.9295 67H52.0575V54.88H56.8095V51.16H43.1775V54.88H47.9295V67ZM58.6309 67H69.9109V63.28H62.7589V60.52H67.6549V57.064H62.7589V54.88H69.6229V51.16H58.6309V67ZM86.4984 67L82.3224 61.12C83.8824 60.16 84.8184 58.552 84.8184 56.608C84.8184 53.32 82.2264 51.16 78.6984 51.16H72.4824V67H76.6104V62.08H78.3144L81.8904 67H86.4984ZM76.6104 54.76H78.7224C79.8744 54.76 80.6184 55.48 80.6184 56.608C80.6184 57.736 79.8744 58.48 78.7224 58.48H76.6104V54.76Z" fill="#3D3D3D"/>
<path d="M94.8652 67H98.9933V62.08H101.081C104.537 62.08 107.201 59.848 107.201 56.608C107.201 53.32 104.609 51.16 101.081 51.16H94.8652V67ZM98.9933 58.48V54.76H101.105C102.257 54.76 103.001 55.48 103.001 56.608C103.001 57.736 102.257 58.48 101.105 58.48H98.9933ZM109.443 67H120.123V63.28H113.571V51.16H109.443V67ZM132.031 67H136.471L129.271 50.872H127.951L120.751 67H125.191L125.767 65.68H131.455L132.031 67ZM129.991 62.368H127.231L128.623 58.696L129.991 62.368ZM148.019 51.16V59.08L139.427 50.872H138.107V67H142.235V58.96L150.827 67.288H152.147V51.16H148.019ZM155.311 67H166.591V63.28H159.439V60.52H164.335V57.064H159.439V54.88H166.303V51.16H155.311V67ZM172.57 67H176.698V54.88H181.45V51.16H167.818V54.88H172.57V67Z" fill="#46A358"/>
<path d="M9.889 3.74L8.074 8.646L5.984 3.619H5.577L3.498 8.646L1.683 3.74H0.396L3.223 11.121H3.619L5.786 5.973L7.953 11.121H8.338L11.165 3.74H9.889ZM12.4716 11H17.3776V9.955H13.6376V7.656H16.3546V6.644H13.6376V4.785H17.2456V3.74H12.4716V11ZM18.7343 11H23.2223V9.955H19.9003V3.74H18.7343V11ZM23.7943 7.37C23.7503 9.449 25.5433 11.154 27.6113 11.121C28.9643 11.121 30.1083 10.472 30.7243 9.449L29.8443 8.8C29.3273 9.603 28.5793 10.054 27.6223 10.054C26.1373 10.054 25.0043 8.91 25.0043 7.37C25.0043 5.83 26.1373 4.686 27.6223 4.686C28.5793 4.686 29.3273 5.137 29.8443 5.94L30.7243 5.291C30.0973 4.268 28.9423 3.619 27.6113 3.619C25.5433 3.586 23.7503 5.291 23.7943 7.37ZM31.6253 7.37C31.5813 9.449 33.3523 11.154 35.4313 11.121C37.4883 11.154 39.2923 9.449 39.2483 7.37C39.2923 5.291 37.4883 3.586 35.4313 3.619C33.3633 3.586 31.5923 5.291 31.6253 7.37ZM38.0493 7.359C38.0493 8.91 36.9273 10.054 35.4423 10.054C33.9353 10.054 32.8353 8.91 32.8353 7.359C32.8353 5.83 33.9353 4.686 35.4423 4.686C36.9273 4.686 38.0493 5.841 38.0493 7.359ZM47.1494 3.619L44.1024 7.678L41.0554 3.619H40.6484V11H41.8144V6.435L43.9044 9.174H44.3004L46.3794 6.446V11H47.5454V3.619H47.1494ZM49.371 11H54.277V9.955H50.537V7.656H53.254V6.644H50.537V4.785H54.145V3.74H49.371V11ZM59.8739 11H61.0399V4.785H63.4929V3.74H57.4319V4.785H59.8739V11ZM63.9808 7.37C63.9368 9.449 65.7078 11.154 67.7868 11.121C69.8438 11.154 71.6478 9.449 71.6038 7.37C71.6478 5.291 69.8438 3.586 67.7868 3.619C65.7188 3.586 63.9478 5.291 63.9808 7.37ZM70.4048 7.359C70.4048 8.91 69.2828 10.054 67.7978 10.054C66.2908 10.054 65.1908 8.91 65.1908 7.359C65.1908 5.83 66.2908 4.686 67.7978 4.686C69.2828 4.686 70.4048 5.841 70.4048 7.359ZM75.6468 7.37C75.6138 9.449 77.3518 11.154 79.4748 11.121C80.9378 11.121 82.2138 10.362 82.8628 9.207V7.161H79.4638V8.195H81.6968V8.976C81.2458 9.669 80.4868 10.076 79.5298 10.076C77.9678 10.076 76.8568 8.91 76.8568 7.359C76.8568 5.83 77.9348 4.686 79.4638 4.686C80.3658 4.686 81.0918 5.071 81.6308 5.83L82.4778 5.137C81.7848 4.169 80.7398 3.619 79.4748 3.619C77.3738 3.586 75.6028 5.291 75.6468 7.37ZM90.1899 11L88.0119 8.008C88.8809 7.667 89.4089 6.919 89.4089 5.962C89.4089 4.653 88.4079 3.74 86.9449 3.74H84.2939V11H85.4599V8.195H86.7909L88.8589 11H90.1899ZM85.4599 4.774H86.9229C87.7259 4.774 88.2099 5.258 88.2099 5.973C88.2099 6.677 87.7259 7.161 86.9229 7.161H85.4599V4.774ZM91.2333 11H96.1393V9.955H92.3993V7.656H95.1163V6.644H92.3993V4.785H96.0073V3.74H91.2333V11ZM97.496 11H102.402V9.955H98.662V7.656H101.379V6.644H98.662V4.785H102.27V3.74H97.496V11ZM108.577 3.74V8.635L104.166 3.619H103.759V11H104.925V6.083L109.347 11.121H109.743V3.74H108.577ZM111.062 9.548C111.623 10.527 112.613 11.121 113.801 11.121C115.198 11.121 116.232 10.285 116.232 9.02C116.232 8.063 115.671 7.491 114.494 6.952L113.68 6.578C112.965 6.215 112.712 6.116 112.668 5.544C112.668 4.972 113.152 4.664 113.768 4.664C114.384 4.664 114.912 4.972 115.297 5.544L116.111 4.917C115.66 4.136 114.791 3.619 113.768 3.619C112.514 3.619 111.48 4.4 111.48 5.588C111.48 6.556 112.118 7.117 113.174 7.601L113.977 7.975C114.736 8.327 115.044 8.547 115.044 9.064C115.044 9.68 114.538 10.076 113.79 10.076C112.954 10.076 112.371 9.625 111.887 8.921L111.062 9.548ZM117.724 11H118.89V7.678H122.542V11H123.708V3.74H122.542V6.633H118.89V3.74H117.724V11ZM125.104 7.37C125.06 9.449 126.831 11.154 128.91 11.121C130.967 11.154 132.771 9.449 132.727 7.37C132.771 5.291 130.967 3.586 128.91 3.619C126.842 3.586 125.071 5.291 125.104 7.37ZM131.528 7.359C131.528 8.91 130.406 10.054 128.921 10.054C127.414 10.054 126.314 8.91 126.314 7.359C126.314 5.83 127.414 4.686 128.921 4.686C130.406 4.686 131.528 5.841 131.528 7.359ZM134.127 11H135.293V8.195H136.778C138.241 8.195 139.242 7.26 139.242 5.962C139.242 4.653 138.241 3.74 136.778 3.74H134.127V11ZM135.293 7.161V4.774H136.756C137.581 4.774 138.043 5.258 138.043 5.973C138.043 6.688 137.581 7.161 136.756 7.161H135.293Z" fill="#3D3D3D"/>
<path d="M11.22 82.08L9.036 88.104L6.564 81.948H6.228L3.756 88.116L1.572 82.08H0.54L3.552 90.132H3.888L6.396 83.844L8.904 90.132H9.24L12.24 82.08H11.22ZM18.2503 87.36C18.2983 87.12 18.3223 86.892 18.3223 86.664C18.3223 85.116 17.1703 84.024 15.6583 84.024C13.9903 84.024 12.6703 85.392 12.6703 87.084C12.6703 88.8 14.0263 90.132 15.7663 90.132C16.6903 90.132 17.4943 89.748 18.1063 89.112L17.5663 88.488C17.0383 89.016 16.4383 89.28 15.7783 89.28C14.6263 89.28 13.7383 88.512 13.6303 87.36H18.2503ZM13.6663 86.544C13.8703 85.536 14.6623 84.864 15.6343 84.864C16.6063 84.864 17.3623 85.5 17.3743 86.544H13.6663ZM27.6891 86.4C27.6891 84.864 26.7891 84.024 25.4091 84.024C24.4371 84.024 23.5611 84.444 23.0331 85.308L23.6451 85.812C24.1251 85.188 24.6411 84.876 25.3491 84.876C26.2251 84.876 26.7651 85.392 26.7651 86.352V86.856H24.9171C23.6571 86.856 22.8171 87.492 22.8171 88.488C22.8171 89.496 23.6571 90.132 24.8571 90.132C25.7091 90.132 26.3931 89.82 26.8251 89.244V90H27.6891V86.4ZM26.7651 87.756C26.7651 88.656 25.9371 89.364 24.9771 89.364C24.2931 89.364 23.7651 89.028 23.7651 88.44C23.7651 87.9 24.2091 87.612 25.0251 87.612H26.7651V87.756ZM32.7569 84.156C32.6009 84.12 32.4569 84.108 32.3249 84.108C31.6169 84.108 30.9329 84.42 30.5129 84.984V84.156H29.6489V90H30.5729V86.688C30.5729 85.608 31.4249 84.972 32.4089 84.972H32.7569V84.156ZM39.0394 87.36C39.0874 87.12 39.1114 86.892 39.1114 86.664C39.1114 85.116 37.9594 84.024 36.4474 84.024C34.7794 84.024 33.4594 85.392 33.4594 87.084C33.4594 88.8 34.8154 90.132 36.5554 90.132C37.4794 90.132 38.2834 89.748 38.8954 89.112L38.3554 88.488C37.8274 89.016 37.2274 89.28 36.5674 89.28C35.4154 89.28 34.5274 88.512 34.4194 87.36H39.0394ZM34.4554 86.544C34.6594 85.536 35.4514 84.864 36.4234 84.864C37.3954 84.864 38.1514 85.5 38.1634 86.544H34.4554ZM48.4781 86.4C48.4781 84.864 47.5781 84.024 46.1981 84.024C45.2261 84.024 44.3501 84.444 43.8221 85.308L44.4341 85.812C44.9141 85.188 45.4301 84.876 46.1381 84.876C47.0141 84.876 47.5541 85.392 47.5541 86.352V86.856H45.7061C44.4461 86.856 43.6061 87.492 43.6061 88.488C43.6061 89.496 44.4461 90.132 45.6461 90.132C46.4981 90.132 47.1821 89.82 47.6141 89.244V90H48.4781V86.4ZM47.5541 87.756C47.5541 88.656 46.7261 89.364 45.7661 89.364C45.0821 89.364 44.5541 89.028 44.5541 88.44C44.5541 87.9 44.9981 87.612 45.8141 87.612H47.5541V87.756ZM55.274 86.328C55.274 84.948 54.458 84.024 53.102 84.024C52.37 84.024 51.734 84.3 51.302 84.78V84.156H50.438V90H51.362V86.436C51.362 85.524 51.998 84.876 52.898 84.876C53.798 84.876 54.35 85.512 54.35 86.436V90H55.274V86.328ZM60.1781 87.072C60.1541 88.716 61.5581 90.156 63.2261 90.12C64.8941 90.156 66.3341 88.716 66.2981 87.072C66.3341 85.404 64.9061 84 63.2381 84.024C61.5701 83.988 60.1421 85.404 60.1781 87.072ZM65.3501 87.084C65.3501 88.308 64.4141 89.268 63.2261 89.268C62.0381 89.268 61.1261 88.308 61.1261 87.084C61.1261 85.824 62.0381 84.876 63.2381 84.876C64.4261 84.876 65.3501 85.824 65.3501 87.084ZM72.7583 86.328C72.7583 84.948 71.9423 84.024 70.5863 84.024C69.8543 84.024 69.2183 84.3 68.7863 84.78V84.156H67.9223V90H68.8463V86.436C68.8463 85.524 69.4823 84.876 70.3823 84.876C71.2823 84.876 71.8343 85.512 71.8343 86.436V90H72.7583V86.328ZM74.7192 90H75.6432V81H74.7192V90ZM77.6723 90H78.5963V84.156H77.6723V90ZM77.4443 81.924C77.4443 82.308 77.7563 82.596 78.1403 82.596C78.5243 82.596 78.8243 82.308 78.8243 81.924C78.8243 81.552 78.5123 81.252 78.1403 81.252C77.7563 81.252 77.4443 81.552 77.4443 81.924ZM85.4615 86.328C85.4615 84.948 84.6455 84.024 83.2895 84.024C82.5575 84.024 81.9215 84.3 81.4895 84.78V84.156H80.6255V90H81.5495V86.436C81.5495 85.524 82.1855 84.876 83.0855 84.876C83.9855 84.876 84.5375 85.512 84.5375 86.436V90H85.4615V86.328ZM92.5823 87.36C92.6303 87.12 92.6543 86.892 92.6543 86.664C92.6543 85.116 91.5023 84.024 89.9903 84.024C88.3223 84.024 87.0023 85.392 87.0023 87.084C87.0023 88.8 88.3583 90.132 90.0983 90.132C91.0223 90.132 91.8263 89.748 92.4383 89.112L91.8983 88.488C91.3703 89.016 90.7703 89.28 90.1103 89.28C88.9583 89.28 88.0703 88.512 87.9623 87.36H92.5823ZM87.9983 86.544C88.2023 85.536 88.9943 84.864 89.9663 84.864C90.9383 84.864 91.6943 85.5 91.7063 86.544H87.9983ZM103.605 87.072C103.605 85.356 102.381 84.024 100.713 84.024C99.8011 84.024 98.9491 84.42 98.5051 85.092V84.156H97.6411V92.16H98.5651V89.16C99.0451 89.772 99.8491 90.132 100.713 90.132C102.357 90.132 103.605 88.788 103.605 87.072ZM102.657 87.084C102.657 88.344 101.769 89.28 100.581 89.28C99.5011 89.28 98.5531 88.56 98.5531 87.072C98.5531 85.596 99.5371 84.876 100.581 84.876C101.769 84.876 102.657 85.824 102.657 87.084ZM105.223 90H106.147V81H105.223V90ZM112.556 86.4C112.556 84.864 111.656 84.024 110.276 84.024C109.304 84.024 108.428 84.444 107.9 85.308L108.512 85.812C108.992 85.188 109.508 84.876 110.216 84.876C111.092 84.876 111.632 85.392 111.632 86.352V86.856H109.784C108.524 86.856 107.684 87.492 107.684 88.488C107.684 89.496 108.524 90.132 109.724 90.132C110.576 90.132 111.26 89.82 111.692 89.244V90H112.556V86.4ZM111.632 87.756C111.632 88.656 110.804 89.364 109.844 89.364C109.16 89.364 108.632 89.028 108.632 88.44C108.632 87.9 109.076 87.612 109.892 87.612H111.632V87.756ZM119.352 86.328C119.352 84.948 118.536 84.024 117.18 84.024C116.448 84.024 115.812 84.3 115.38 84.78V84.156H114.516V90H115.44V86.436C115.44 85.524 116.076 84.876 116.976 84.876C117.876 84.876 118.428 85.512 118.428 86.436V90H119.352V86.328ZM124.505 89.22C124.205 89.268 123.953 89.292 123.725 89.292C122.921 89.292 122.489 89.004 122.489 88.176V84.984H124.313V84.156H122.489V82.56H121.565V84.156H120.581V84.984H121.565V88.236C121.565 89.52 122.321 90.132 123.533 90.132C123.809 90.132 124.133 90.084 124.505 90V89.22ZM128.695 88.992C129.211 89.664 130.003 90.132 130.975 90.132C131.551 90.132 132.031 89.988 132.427 89.688C132.823 89.388 133.027 88.956 133.027 88.416C133.027 87.612 132.571 87.156 131.479 86.688L130.939 86.46C130.231 86.16 129.991 85.98 129.991 85.608C129.991 85.14 130.387 84.876 130.963 84.876C131.503 84.876 132.007 85.128 132.403 85.524L132.967 84.948C132.487 84.372 131.827 84.024 131.011 84.024C129.895 84.024 129.043 84.636 129.043 85.656C129.043 86.436 129.523 86.88 130.495 87.276L131.059 87.516C131.779 87.804 132.079 87.984 132.079 88.452C132.079 88.968 131.599 89.28 130.963 89.28C130.303 89.28 129.847 88.956 129.283 88.38L128.695 88.992ZM139.532 86.328C139.532 84.948 138.716 84.024 137.372 84.024C136.64 84.024 136.016 84.324 135.62 84.816V81H134.696V90H135.62V86.448C135.62 85.536 136.256 84.876 137.156 84.876C138.056 84.876 138.608 85.5 138.608 86.448V90H139.532V86.328ZM141.073 87.072C141.049 88.716 142.453 90.156 144.121 90.12C145.789 90.156 147.229 88.716 147.193 87.072C147.229 85.404 145.801 84 144.133 84.024C142.465 83.988 141.037 85.404 141.073 87.072ZM146.245 87.084C146.245 88.308 145.309 89.268 144.121 89.268C142.933 89.268 142.021 88.308 142.021 87.084C142.021 85.824 142.933 84.876 144.133 84.876C145.321 84.876 146.245 85.824 146.245 87.084ZM154.781 87.072C154.781 85.356 153.557 84.024 151.889 84.024C150.977 84.024 150.125 84.42 149.681 85.092V84.156H148.817V92.16H149.741V89.16C150.221 89.772 151.025 90.132 151.889 90.132C153.533 90.132 154.781 88.788 154.781 87.072ZM153.833 87.084C153.833 88.344 152.945 89.28 151.757 89.28C150.677 89.28 149.729 88.56 149.729 87.072C149.729 85.596 150.713 84.876 151.757 84.876C152.945 84.876 153.833 85.824 153.833 87.084ZM159.342 87.072C159.318 88.716 160.722 90.156 162.39 90.12C164.058 90.156 165.498 88.716 165.462 87.072C165.498 85.404 164.07 84 162.402 84.024C160.734 83.988 159.306 85.404 159.342 87.072ZM164.514 87.084C164.514 88.308 163.578 89.268 162.39 89.268C161.202 89.268 160.29 88.308 160.29 87.084C160.29 85.824 161.202 84.876 162.402 84.876C163.59 84.876 164.514 85.824 164.514 87.084ZM168.154 82.824C168.154 81.996 168.598 81.708 169.378 81.708C169.534 81.708 169.702 81.72 169.894 81.744V80.964C169.666 80.904 169.414 80.868 169.162 80.868C167.974 80.868 167.23 81.48 167.23 82.764V84.156H166.39V84.984H167.23V90H168.154V84.984H169.618V84.156H168.154V82.824ZM171.424 82.824C171.424 81.996 171.868 81.708 172.648 81.708C172.804 81.708 172.972 81.72 173.164 81.744V80.964C172.936 80.904 172.684 80.868 172.432 80.868C171.244 80.868 170.5 81.48 170.5 82.764V84.156H169.66V84.984H170.5V90H171.424V84.984H172.888V84.156H171.424V82.824ZM179.149 87.36C179.197 87.12 179.221 86.892 179.221 86.664C179.221 85.116 178.069 84.024 176.557 84.024C174.889 84.024 173.569 85.392 173.569 87.084C173.569 88.8 174.925 90.132 176.665 90.132C177.589 90.132 178.393 89.748 179.005 89.112L178.465 88.488C177.937 89.016 177.337 89.28 176.677 89.28C175.525 89.28 174.637 88.512 174.529 87.36H179.149ZM174.565 86.544C174.769 85.536 175.561 84.864 176.533 84.864C177.505 84.864 178.261 85.5 178.273 86.544H174.565ZM183.952 84.156C183.796 84.12 183.652 84.108 183.52 84.108C182.812 84.108 182.128 84.42 181.708 84.984V84.156H180.844V90H181.768V86.688C181.768 85.608 182.62 84.972 183.604 84.972H183.952V84.156ZM185.192 90H186.116V84.156H185.192V90ZM184.964 81.924C184.964 82.308 185.276 82.596 185.66 82.596C186.044 82.596 186.344 82.308 186.344 81.924C186.344 81.552 186.032 81.252 185.66 81.252C185.276 81.252 184.964 81.552 184.964 81.924ZM192.981 86.328C192.981 84.948 192.165 84.024 190.809 84.024C190.077 84.024 189.441 84.3 189.009 84.78V84.156H188.145V90H189.069V86.436C189.069 85.524 189.705 84.876 190.605 84.876C191.505 84.876 192.057 85.512 192.057 86.436V90H192.981V86.328ZM199.682 84.156V85.092C199.238 84.42 198.386 84.024 197.462 84.024C195.818 84.024 194.594 85.308 194.594 86.988C194.594 88.68 195.818 89.94 197.462 89.94C198.338 89.94 199.166 89.58 199.634 88.968V89.484C199.634 90.744 198.902 91.44 197.69 91.44C196.814 91.44 196.166 91.092 195.506 90.516L194.966 91.164C195.626 91.824 196.574 92.292 197.714 92.292C199.442 92.292 200.558 91.212 200.558 89.436V84.156H199.682ZM199.646 86.988C199.646 88.404 198.674 89.088 197.606 89.088C196.418 89.088 195.53 88.236 195.53 87C195.53 85.776 196.418 84.9 197.606 84.9C198.662 84.9 199.646 85.584 199.646 86.988ZM5.4 104.4C5.4 102.864 4.5 102.024 3.12 102.024C2.148 102.024 1.272 102.444 0.744 103.308L1.356 103.812C1.836 103.188 2.352 102.876 3.06 102.876C3.936 102.876 4.476 103.392 4.476 104.352V104.856H2.628C1.368 104.856 0.528 105.492 0.528 106.488C0.528 107.496 1.368 108.132 2.568 108.132C3.42 108.132 4.104 107.82 4.536 107.244V108H5.4V104.4ZM4.476 105.756C4.476 106.656 3.648 107.364 2.688 107.364C2.004 107.364 1.476 107.028 1.476 106.44C1.476 105.9 1.92 105.612 2.736 105.612H4.476V105.756ZM18.2438 102.156L16.5878 106.452L14.6198 102.024H14.2718L12.3278 106.488L10.6358 102.156H9.65184L12.1358 108.132H12.4598L14.4398 103.716L16.4318 108.132H16.7678L19.2278 102.156H18.2438ZM20.5669 108H21.4909V102.156H20.5669V108ZM20.3389 99.924C20.3389 100.308 20.6509 100.596 21.0349 100.596C21.4189 100.596 21.7189 100.308 21.7189 99.924C21.7189 99.552 21.4069 99.252 21.0349 99.252C20.6509 99.252 20.3389 99.552 20.3389 99.924ZM28.152 99V103.02C27.684 102.396 26.868 102.024 25.992 102.024C24.348 102.024 23.1 103.368 23.1 105.084C23.1 106.8 24.348 108.132 25.992 108.132C26.904 108.132 27.756 107.736 28.2 107.076V108H29.076V99H28.152ZM28.164 105.084C28.164 106.56 27.18 107.28 26.124 107.28C24.936 107.28 24.048 106.332 24.048 105.072C24.048 103.812 24.936 102.876 26.124 102.876C27.18 102.876 28.164 103.596 28.164 105.084ZM36.262 105.36C36.31 105.12 36.334 104.892 36.334 104.664C36.334 103.116 35.182 102.024 33.67 102.024C32.002 102.024 30.682 103.392 30.682 105.084C30.682 106.8 32.038 108.132 33.778 108.132C34.702 108.132 35.506 107.748 36.118 107.112L35.578 106.488C35.05 107.016 34.45 107.28 33.79 107.28C32.638 107.28 31.75 106.512 31.642 105.36H36.262ZM31.678 104.544C31.882 103.536 32.674 102.864 33.646 102.864C34.618 102.864 35.374 103.5 35.386 104.544H31.678ZM44.4288 102.156C44.2728 102.12 44.1288 102.108 43.9968 102.108C43.2888 102.108 42.6048 102.42 42.1848 102.984V102.156H41.3208V108H42.2448V104.688C42.2448 103.608 43.0968 102.972 44.0808 102.972H44.4288V102.156ZM49.9313 104.4C49.9313 102.864 49.0313 102.024 47.6513 102.024C46.6793 102.024 45.8033 102.444 45.2753 103.308L45.8873 103.812C46.3673 103.188 46.8833 102.876 47.5913 102.876C48.4673 102.876 49.0073 103.392 49.0073 104.352V104.856H47.1593C45.8993 104.856 45.0593 105.492 45.0593 106.488C45.0593 107.496 45.8993 108.132 47.0993 108.132C47.9513 108.132 48.6353 107.82 49.0673 107.244V108H49.9313V104.4ZM49.0073 105.756C49.0073 106.656 48.1793 107.364 47.2193 107.364C46.5353 107.364 46.0073 107.028 46.0073 106.44C46.0073 105.9 46.4513 105.612 47.2673 105.612H49.0073V105.756ZM56.7271 104.328C56.7271 102.948 55.9111 102.024 54.5551 102.024C53.8231 102.024 53.1871 102.3 52.7551 102.78V102.156H51.8911V108H52.8151V104.436C52.8151 103.524 53.4511 102.876 54.3511 102.876C55.2511 102.876 55.8031 103.512 55.8031 104.436V108H56.7271V104.328ZM63.428 102.156V103.092C62.984 102.42 62.132 102.024 61.208 102.024C59.564 102.024 58.34 103.308 58.34 104.988C58.34 106.68 59.564 107.94 61.208 107.94C62.084 107.94 62.912 107.58 63.38 106.968V107.484C63.38 108.744 62.648 109.44 61.436 109.44C60.56 109.44 59.912 109.092 59.252 108.516L58.712 109.164C59.372 109.824 60.32 110.292 61.46 110.292C63.188 110.292 64.304 109.212 64.304 107.436V102.156H63.428ZM63.392 104.988C63.392 106.404 62.42 107.088 61.352 107.088C60.164 107.088 59.276 106.236 59.276 105C59.276 103.776 60.164 102.9 61.352 102.9C62.408 102.9 63.392 103.584 63.392 104.988ZM71.4886 105.36C71.5366 105.12 71.5606 104.892 71.5606 104.664C71.5606 103.116 70.4086 102.024 68.8966 102.024C67.2286 102.024 65.9086 103.392 65.9086 105.084C65.9086 106.8 67.2646 108.132 69.0046 108.132C69.9286 108.132 70.7326 107.748 71.3446 107.112L70.8046 106.488C70.2766 107.016 69.6766 107.28 69.0166 107.28C67.8646 107.28 66.9766 106.512 66.8686 105.36H71.4886ZM66.9046 104.544C67.1086 103.536 67.9006 102.864 68.8726 102.864C69.8446 102.864 70.6006 103.5 70.6126 104.544H66.9046Z" fill="#727272"/>
</svg>
