<svg width="242" height="146" viewBox="0 0 242 146" fill="none" xmlns="http://www.w3.org/2000/svg">
<path d="M11.74 35.12C11.74 33.52 10.86 32.4 9.4 31.86C10.06 31.24 10.38 30.44 10.38 29.48C10.38 27.32 8.64 25.8 6.2 25.8H1.52V39H7.4C9.94 39 11.74 37.4 11.74 35.12ZM5.98 28.12C7.08 28.12 7.7 28.68 7.7 29.62C7.7 30.56 7.08 31.14 5.98 31.14H4.12V28.12H5.98ZM9.08 35.02C9.08 36.06 8.38 36.68 7.2 36.68H4.12V33.36H7.2C8.38 33.36 9.08 34 9.08 35.02ZM22.8619 34.96C22.9819 34.46 23.0419 33.96 23.0419 33.48C23.0419 30.9 21.1219 28.88 18.3819 28.88C15.5219 28.82 13.1419 31.2 13.2019 34.06C13.1419 36.92 15.5619 39.3 18.6219 39.24C20.0819 39.24 21.4019 38.74 22.5819 37.76L21.4619 35.92C20.6019 36.58 19.6819 36.92 18.7019 36.92C17.2619 36.92 16.2419 36.22 15.9219 34.96H22.8619ZM15.9219 33.06C16.2219 31.84 17.1419 31.06 18.2819 31.06C19.4619 31.06 20.4019 31.84 20.4219 33.06H15.9219ZM24.2486 37.32C25.1486 38.52 26.6086 39.24 28.3486 39.24C29.4686 39.24 30.3886 38.96 31.1086 38.4C31.8486 37.84 32.2086 37.06 32.2086 36.08C32.2086 34.62 31.3486 33.84 29.4286 33.06L28.4686 32.66C27.6886 32.34 27.4286 32.16 27.4286 31.78C27.4286 31.32 27.8286 31.08 28.4886 31.08C29.3086 31.08 30.0486 31.4 30.7086 32.02L32.0686 30.36C31.1686 29.38 29.9886 28.88 28.5086 28.88C26.3486 28.88 24.8686 29.98 24.8686 31.84C24.8686 33.3 25.7486 34.12 27.5686 34.86L28.6286 35.3C29.3686 35.62 29.6486 35.78 29.6486 36.2C29.6486 36.74 29.1086 37.02 28.3886 37.02C27.4086 37.02 26.4686 36.58 25.6086 35.68L24.2486 37.32ZM40.6102 36.74C39.9102 36.8 39.4902 36.82 39.3302 36.82C38.0502 36.82 37.4902 36.4 37.4902 35.28V31.38H40.2902V29.1H37.4902V26.6H34.7902V29.1H33.2302V31.38H34.7902V35.52C34.7902 38 36.2502 39.24 38.7502 39.24C39.3502 39.24 39.9702 39.16 40.6102 39V36.74ZM48.3559 39H51.0559V33.3H56.8959V39H59.5959V25.8H56.8959V30.86H51.0559V25.8H48.3559V39ZM61.7761 34.04C61.7161 36.86 64.1561 39.28 67.0561 39.22C69.9561 39.28 72.4561 36.86 72.3961 34.04C72.4561 31.22 69.9761 28.84 67.0761 28.88C64.1761 28.82 61.7161 31.22 61.7761 34.04ZM69.6361 34.06C69.6361 35.6 68.5361 36.74 67.0761 36.74C65.5761 36.74 64.5161 35.6 64.5161 34.06C64.5161 32.48 65.5761 31.34 67.0761 31.34C68.5361 31.34 69.6361 32.52 69.6361 34.06ZM74.4041 34.64C74.4041 37.4 76.3441 39.24 78.9841 39.24C81.5641 39.24 83.5241 37.4 83.5241 34.64V29.1H80.8241V34.86C80.8241 36 80.0241 36.76 78.9841 36.76C77.8841 36.76 77.1041 36 77.1041 34.86V29.1H74.4041V34.64ZM85.2056 37.32C86.1056 38.52 87.5656 39.24 89.3056 39.24C90.4256 39.24 91.3456 38.96 92.0656 38.4C92.8056 37.84 93.1656 37.06 93.1656 36.08C93.1656 34.62 92.3056 33.84 90.3856 33.06L89.4256 32.66C88.6456 32.34 88.3856 32.16 88.3856 31.78C88.3856 31.32 88.7856 31.08 89.4456 31.08C90.2656 31.08 91.0056 31.4 91.6656 32.02L93.0256 30.36C92.1256 29.38 90.9456 28.88 89.4656 28.88C87.3056 28.88 85.8256 29.98 85.8256 31.84C85.8256 33.3 86.7056 34.12 88.5256 34.86L89.5856 35.3C90.3256 35.62 90.6056 35.78 90.6056 36.2C90.6056 36.74 90.0656 37.02 89.3456 37.02C88.3656 37.02 87.4256 36.58 86.5656 35.68L85.2056 37.32ZM104.307 34.96C104.427 34.46 104.487 33.96 104.487 33.48C104.487 30.9 102.567 28.88 99.8272 28.88C96.9672 28.82 94.5872 31.2 94.6472 34.06C94.5872 36.92 97.0072 39.3 100.067 39.24C101.527 39.24 102.847 38.74 104.027 37.76L102.907 35.92C102.047 36.58 101.127 36.92 100.147 36.92C98.7072 36.92 97.6872 36.22 97.3672 34.96H104.307ZM97.3672 33.06C97.6672 31.84 98.5872 31.06 99.7272 31.06C100.907 31.06 101.847 31.84 101.867 33.06H97.3672ZM117.054 34.04C117.054 31.08 115.014 28.88 112.254 28.88C110.894 28.88 109.734 29.4 109.074 30.34V29.1H106.594V42.6H109.294V38.04C110.014 38.82 111.054 39.24 112.254 39.24C115.014 39.24 117.054 37 117.054 34.04ZM114.314 34.06C114.314 35.68 113.194 36.78 111.754 36.78C110.374 36.78 109.254 35.8 109.254 34.04C109.254 32.26 110.394 31.32 111.754 31.32C113.214 31.32 114.314 32.4 114.314 34.06ZM119.172 39H121.872V24H119.172V39ZM132.843 33.12C132.843 30.38 131.183 28.88 128.603 28.88C126.863 28.88 125.423 29.56 124.283 30.92L125.683 32.58C126.563 31.64 127.283 31.22 128.303 31.22C129.503 31.22 130.143 31.86 130.143 32.96V33.4H127.663C125.363 33.4 123.923 34.5 123.923 36.28C123.923 38.02 125.243 39.24 127.343 39.24C128.603 39.24 129.643 38.78 130.363 38.04V39H132.843V33.12ZM130.143 35.3C130.143 36.44 129.243 37.26 128.063 37.26C127.203 37.26 126.643 36.84 126.643 36.18C126.643 35.52 127.143 35.18 128.023 35.18H130.143V35.3ZM144.542 32.86C144.542 30.46 143.122 28.88 140.822 28.88C139.642 28.88 138.622 29.3 137.922 30V29.1H135.442V39H138.142V33.22C138.142 32.08 138.922 31.3 140.022 31.3C141.122 31.3 141.862 32.08 141.862 33.22V39H144.542V32.86ZM153.501 36.74C152.801 36.8 152.381 36.82 152.221 36.82C150.941 36.82 150.381 36.4 150.381 35.28V31.38H153.181V29.1H150.381V26.6H147.681V29.1H146.121V31.38H147.681V35.52C147.681 38 149.141 39.24 151.641 39.24C152.241 39.24 152.861 39.16 153.501 39V36.74ZM154.561 37.32C155.461 38.52 156.921 39.24 158.661 39.24C159.781 39.24 160.701 38.96 161.421 38.4C162.161 37.84 162.521 37.06 162.521 36.08C162.521 34.62 161.661 33.84 159.741 33.06L158.781 32.66C158.001 32.34 157.741 32.16 157.741 31.78C157.741 31.32 158.141 31.08 158.801 31.08C159.621 31.08 160.361 31.4 161.021 32.02L162.381 30.36C161.481 29.38 160.301 28.88 158.821 28.88C156.661 28.88 155.181 29.98 155.181 31.84C155.181 33.3 156.061 34.12 157.881 34.86L158.941 35.3C159.681 35.62 159.961 35.78 159.961 36.2C159.961 36.74 159.421 37.02 158.701 37.02C157.721 37.02 156.781 36.58 155.921 35.68L154.561 37.32ZM12.66 65L8.92 59.82C10.36 59.1 11.24 57.74 11.24 56.06C11.24 53.52 9.24 51.8 6.48 51.8H1.52V65H4.22V60.34H6.2L9.62 65H12.66ZM4.22 54.18H6.48C7.7 54.18 8.48 54.94 8.48 56.06C8.48 57.2 7.74 57.96 6.48 57.96H4.22V54.18ZM13.28 60.04C13.22 62.86 15.66 65.28 18.56 65.22C21.46 65.28 23.96 62.86 23.9 60.04C23.96 57.22 21.48 54.84 18.58 54.88C15.68 54.82 13.22 57.22 13.28 60.04ZM21.14 60.06C21.14 61.6 20.04 62.74 18.58 62.74C17.08 62.74 16.02 61.6 16.02 60.06C16.02 58.48 17.08 57.34 18.58 57.34C20.04 57.34 21.14 58.52 21.14 60.06ZM25.448 60.04C25.388 62.86 27.828 65.28 30.728 65.22C33.628 65.28 36.128 62.86 36.068 60.04C36.128 57.22 33.648 54.84 30.748 54.88C27.848 54.82 25.388 57.22 25.448 60.04ZM33.308 60.06C33.308 61.6 32.208 62.74 30.748 62.74C29.248 62.74 28.188 61.6 28.188 60.06C28.188 58.48 29.248 57.34 30.748 57.34C32.208 57.34 33.308 58.52 33.308 60.06ZM53.4359 58.86C53.4359 56.46 52.0159 54.88 49.6959 54.88C48.3359 54.88 47.1759 55.42 46.3959 56.3C45.7359 55.36 44.7559 54.88 43.4559 54.88C42.3159 54.88 41.3159 55.28 40.6559 55.98V55.1H38.1759V65H40.8759V59.24C40.8759 58.06 41.5959 57.32 42.6959 57.32C43.7559 57.32 44.4559 58.06 44.4559 59.24V65H47.1559V59.18C47.1559 58.08 47.9159 57.32 48.9759 57.32C50.0359 57.32 50.7359 58.06 50.7359 59.24V65H53.4359V58.86ZM72.0134 61.12C72.0134 59.52 71.1334 58.4 69.6734 57.86C70.3334 57.24 70.6534 56.44 70.6534 55.48C70.6534 53.32 68.9134 51.8 66.4734 51.8H61.7934V65H67.6734C70.2134 65 72.0134 63.4 72.0134 61.12ZM66.2534 54.12C67.3534 54.12 67.9734 54.68 67.9734 55.62C67.9734 56.56 67.3534 57.14 66.2534 57.14H64.3934V54.12H66.2534ZM69.3534 61.02C69.3534 62.06 68.6534 62.68 67.4734 62.68H64.3934V59.36H67.4734C68.6534 59.36 69.3534 60 69.3534 61.02ZM80.6 55.1L78.02 61.6L75.6 55.1H72.74L76.54 64.4L76.24 65.08C75.78 66.12 75.14 66.42 74.18 66.42C74.02 66.42 73.64 66.4 73.02 66.34V68.6C73.62 68.76 74.2 68.84 74.76 68.84C76.6 68.84 77.8 67.92 78.7 65.86L83.44 55.1H80.6ZM101.937 65L98.1973 59.82C99.6373 59.1 100.517 57.74 100.517 56.06C100.517 53.52 98.5173 51.8 95.7573 51.8H90.7973V65H93.4973V60.34H95.4773L98.8973 65H101.937ZM93.4973 54.18H95.7573C96.9773 54.18 97.7573 54.94 97.7573 56.06C97.7573 57.2 97.0173 57.96 95.7573 57.96H93.4973V54.18ZM102.557 60.04C102.497 62.86 104.937 65.28 107.837 65.22C110.737 65.28 113.237 62.86 113.177 60.04C113.237 57.22 110.757 54.84 107.857 54.88C104.957 54.82 102.497 57.22 102.557 60.04ZM110.417 60.06C110.417 61.6 109.317 62.74 107.857 62.74C106.357 62.74 105.297 61.6 105.297 60.06C105.297 58.48 106.357 57.34 107.857 57.34C109.317 57.34 110.417 58.52 110.417 60.06ZM114.725 60.04C114.665 62.86 117.105 65.28 120.005 65.22C122.905 65.28 125.405 62.86 125.345 60.04C125.405 57.22 122.925 54.84 120.025 54.88C117.125 54.82 114.665 57.22 114.725 60.04ZM122.585 60.06C122.585 61.6 121.485 62.74 120.025 62.74C118.525 62.74 117.465 61.6 117.465 60.06C117.465 58.48 118.525 57.34 120.025 57.34C121.485 57.34 122.585 58.52 122.585 60.06ZM142.713 58.86C142.713 56.46 141.293 54.88 138.973 54.88C137.613 54.88 136.453 55.42 135.673 56.3C135.013 55.36 134.033 54.88 132.733 54.88C131.593 54.88 130.593 55.28 129.933 55.98V55.1H127.453V65H130.153V59.24C130.153 58.06 130.873 57.32 131.973 57.32C133.033 57.32 133.733 58.06 133.733 59.24V65H136.433V59.18C136.433 58.08 137.193 57.32 138.253 57.32C139.313 57.32 140.013 58.06 140.013 59.24V65H142.713V58.86Z" fill="#3D3D3D"/>
<path d="M0.504 10.152C1.218 11.398 2.478 12.154 3.99 12.154C5.768 12.154 7.084 11.09 7.084 9.48C7.084 8.262 6.37 7.534 4.872 6.848L3.836 6.372C2.926 5.91 2.604 5.784 2.548 5.056C2.548 4.328 3.164 3.936 3.948 3.936C4.732 3.936 5.404 4.328 5.894 5.056L6.93 4.258C6.356 3.264 5.25 2.606 3.948 2.606C2.352 2.606 1.036 3.6 1.036 5.112C1.036 6.344 1.848 7.058 3.192 7.674L4.214 8.15C5.18 8.598 5.572 8.878 5.572 9.536C5.572 10.32 4.928 10.824 3.976 10.824C2.912 10.824 2.17 10.25 1.554 9.354L0.504 10.152ZM15.0723 9.046C15.1423 8.724 15.1843 8.416 15.1843 8.122C15.1843 6.33 13.8263 4.972 12.0063 4.972C10.0603 4.93 8.40831 6.596 8.45031 8.57C8.45031 10.6 10.0463 12.154 12.1463 12.154C13.1963 12.154 14.1063 11.79 14.8903 11.048L14.1903 10.04C13.5743 10.586 12.9023 10.852 12.1883 10.852C11.0123 10.852 10.1303 10.166 9.94831 9.046H15.0723ZM9.97631 7.898C10.2003 6.876 10.9843 6.218 11.9503 6.218C12.9163 6.218 13.7003 6.848 13.7143 7.898H9.97631ZM24.0087 8.556C24.0087 6.526 22.5807 4.972 20.6347 4.972C19.6267 4.972 18.7447 5.378 18.2407 6.092V5.126H16.8687V14.52H18.3387V11.16C18.8847 11.79 19.6967 12.154 20.6347 12.154C22.5807 12.154 24.0087 10.614 24.0087 8.556ZM22.4967 8.57C22.4967 9.886 21.5727 10.81 20.3967 10.81C19.3187 10.81 18.3247 10.068 18.3247 8.556C18.3247 7.058 19.3187 6.316 20.3967 6.316C21.5867 6.316 22.4967 7.254 22.4967 8.57ZM29.7887 10.754C29.3827 10.796 29.0887 10.824 28.8787 10.824C27.9827 10.824 27.5207 10.516 27.5207 9.634V6.4H29.5647V5.126H27.5207V3.32H26.0367V5.126H24.9167V6.4H26.0367V9.76C26.0367 11.37 26.9887 12.154 28.5707 12.154C28.9207 12.154 29.3267 12.098 29.7887 12V10.754ZM37.3301 9.046C37.4001 8.724 37.4421 8.416 37.4421 8.122C37.4421 6.33 36.0841 4.972 34.2641 4.972C32.3181 4.93 30.6661 6.596 30.7081 8.57C30.7081 10.6 32.3041 12.154 34.4041 12.154C35.4541 12.154 36.3641 11.79 37.1481 11.048L36.4481 10.04C35.8321 10.586 35.1601 10.852 34.4461 10.852C33.2701 10.852 32.3881 10.166 32.2061 9.046H37.3301ZM32.2341 7.898C32.4581 6.876 33.2421 6.218 34.2081 6.218C35.1741 6.218 35.9581 6.848 35.9721 7.898H32.2341ZM49.4445 7.702C49.4445 6.064 48.4785 4.972 46.8965 4.972C45.9305 4.972 45.0765 5.392 44.5725 6.05C44.1665 5.378 43.4385 4.972 42.4865 4.972C41.6605 4.972 40.9885 5.266 40.4985 5.77V5.126H39.1265V12H40.5965V7.912C40.5965 6.96 41.2125 6.316 42.1085 6.316C42.9905 6.316 43.5505 6.96 43.5505 7.912V12H45.0205V7.842C45.0205 6.96 45.6365 6.316 46.5325 6.316C47.4145 6.316 47.9605 6.946 47.9605 7.912V12H49.4445V7.702ZM58.6259 8.57C58.6259 6.526 57.1979 4.972 55.2519 4.972C54.2999 4.972 53.4739 5.336 52.9559 5.966V1.5H51.4859V12H52.8579V11.048C53.3759 11.762 54.2579 12.154 55.2659 12.154C57.1839 12.154 58.6259 10.6 58.6259 8.57ZM57.1139 8.556C57.1139 9.872 56.2039 10.81 55.0139 10.81C53.9359 10.81 52.9419 10.068 52.9419 8.57C52.9419 7.058 53.9359 6.316 55.0139 6.316C56.1899 6.316 57.1139 7.24 57.1139 8.556ZM66.5059 9.046C66.5759 8.724 66.6179 8.416 66.6179 8.122C66.6179 6.33 65.2599 4.972 63.4399 4.972C61.4939 4.93 59.8419 6.596 59.8839 8.57C59.8839 10.6 61.4799 12.154 63.5799 12.154C64.6299 12.154 65.5399 11.79 66.3239 11.048L65.6239 10.04C65.0079 10.586 64.3359 10.852 63.6219 10.852C62.4459 10.852 61.5639 10.166 61.3819 9.046H66.5059ZM61.4099 7.898C61.6339 6.876 62.4179 6.218 63.3839 6.218C64.3499 6.218 65.1339 6.848 65.1479 7.898H61.4099ZM72.2363 5.126C72.0683 5.084 71.8863 5.056 71.6763 5.056C70.8923 5.056 70.1643 5.406 69.6743 6.022V5.126H68.3023V12H69.7723V8.332C69.7723 7.114 70.6263 6.428 71.7883 6.428H72.2363V5.126ZM79.9541 2.76L76.7481 3.81L77.1121 5.112L78.9881 4.51V12H80.4721V2.76H79.9541ZM89.0072 9.018C89.0072 7.156 87.5092 6.134 85.8572 6.134C85.4372 6.134 85.0452 6.176 84.6812 6.26V4.09H88.4892V2.76H83.2252V7.408H85.3532C86.7112 7.408 87.4812 7.996 87.4812 9.046C87.4812 10.11 86.6692 10.796 85.5632 10.796C84.5692 10.796 83.8832 10.278 83.3232 9.424L82.2872 10.166C82.9172 11.356 84.0792 12.154 85.6052 12.154C87.4392 12.154 89.0072 10.88 89.0072 9.018ZM98.6972 12H100.181V2.76H98.6972V12ZM113.939 12L111.167 8.192C112.273 7.758 112.945 6.806 112.945 5.588C112.945 3.922 111.671 2.76 109.809 2.76H106.435V12H107.919V8.43H109.613L112.245 12H113.939ZM107.919 4.076H109.781C110.803 4.076 111.419 4.692 111.419 5.602C111.419 6.498 110.803 7.114 109.781 7.114H107.919V4.076ZM121.152 9.046C121.222 8.724 121.264 8.416 121.264 8.122C121.264 6.33 119.906 4.972 118.086 4.972C116.14 4.93 114.488 6.596 114.53 8.57C114.53 10.6 116.126 12.154 118.226 12.154C119.276 12.154 120.186 11.79 120.97 11.048L120.27 10.04C119.654 10.586 118.982 10.852 118.268 10.852C117.092 10.852 116.21 10.166 116.028 9.046H121.152ZM116.056 7.898C116.28 6.876 117.064 6.218 118.03 6.218C118.996 6.218 119.78 6.848 119.794 7.898H116.056ZM128.409 7.842C128.409 5.994 127.289 4.972 125.595 4.972C124.405 4.972 123.383 5.448 122.697 6.442L123.551 7.31C124.125 6.624 124.685 6.288 125.455 6.288C126.393 6.288 126.925 6.806 126.925 7.758V8.206H124.979C123.425 8.206 122.445 8.976 122.445 10.166C122.445 11.356 123.397 12.154 124.839 12.154C125.777 12.154 126.533 11.832 127.037 11.23V12H128.409V7.842ZM126.925 9.396C126.925 10.334 126.141 11.02 125.147 11.02C124.433 11.02 123.943 10.684 123.943 10.11C123.943 9.55 124.377 9.27 125.161 9.27H126.925V9.396ZM135.677 1.5V5.966C135.159 5.336 134.333 4.972 133.381 4.972C131.477 4.93 129.979 6.568 130.021 8.57C130.021 10.6 131.449 12.154 133.381 12.154C134.403 12.154 135.285 11.734 135.789 11.02V12H137.161V1.5H135.677ZM135.705 8.57C135.705 10.068 134.711 10.81 133.633 10.81C132.415 10.81 131.519 9.872 131.519 8.556C131.519 7.24 132.457 6.316 133.633 6.316C134.697 6.316 135.705 7.086 135.705 8.57ZM143.21 12H144.68V5.126H143.21V12ZM142.944 2.564C142.944 3.11 143.392 3.53 143.952 3.53C144.498 3.53 144.946 3.11 144.946 2.564C144.946 2.018 144.498 1.584 143.952 1.584C143.392 1.584 142.944 2.018 142.944 2.564ZM152.812 7.702C152.812 6.064 151.846 4.972 150.236 4.972C149.382 4.972 148.696 5.252 148.178 5.798V5.126H146.806V12H148.276V7.898C148.276 6.96 148.934 6.302 149.844 6.302C150.74 6.302 151.342 6.946 151.342 7.898V12H152.812V7.702ZM161.079 10.712L162.703 8.99C163.347 8.304 163.837 7.716 164.159 7.198C164.495 6.68 164.663 6.106 164.663 5.476C164.663 3.852 163.361 2.606 161.597 2.606C159.707 2.606 158.489 4.048 158.489 5.56C158.489 5.84 158.517 6.106 158.587 6.358H160.085C160.043 6.078 160.015 5.84 160.015 5.644C160.015 4.692 160.645 3.964 161.583 3.964C162.521 3.964 163.123 4.65 163.123 5.588C163.123 6.372 162.675 7.044 161.653 8.122L158.363 11.664V12H164.985V10.712H161.079ZM181.036 7.702C181.036 6.064 180.07 4.972 178.488 4.972C177.522 4.972 176.668 5.392 176.164 6.05C175.758 5.378 175.03 4.972 174.078 4.972C173.252 4.972 172.58 5.266 172.09 5.77V5.126H170.718V12H172.188V7.912C172.188 6.96 172.804 6.316 173.7 6.316C174.582 6.316 175.142 6.96 175.142 7.912V12H176.612V7.842C176.612 6.96 177.228 6.316 178.124 6.316C179.006 6.316 179.552 6.946 179.552 7.912V12H181.036V7.702ZM183.078 12H184.548V5.126H183.078V12ZM182.812 2.564C182.812 3.11 183.26 3.53 183.82 3.53C184.366 3.53 184.814 3.11 184.814 2.564C184.814 2.018 184.366 1.584 183.82 1.584C183.26 1.584 182.812 2.018 182.812 2.564ZM192.679 7.702C192.679 6.064 191.713 4.972 190.103 4.972C189.249 4.972 188.563 5.252 188.045 5.798V5.126H186.673V12H188.143V7.898C188.143 6.96 188.801 6.302 189.711 6.302C190.607 6.302 191.209 6.946 191.209 7.898V12H192.679V7.702ZM194.656 9.116C194.656 10.964 195.944 12.154 197.666 12.154C199.346 12.154 200.648 10.964 200.648 9.116V5.126H199.178V9.228C199.178 10.18 198.52 10.796 197.666 10.796C196.77 10.796 196.112 10.18 196.112 9.228V5.126H194.656V9.116ZM206.798 10.754C206.392 10.796 206.098 10.824 205.888 10.824C204.992 10.824 204.53 10.516 204.53 9.634V6.4H206.574V5.126H204.53V3.32H203.046V5.126H201.926V6.4H203.046V9.76C203.046 11.37 203.998 12.154 205.58 12.154C205.93 12.154 206.336 12.098 206.798 12V10.754ZM214.34 9.046C214.41 8.724 214.452 8.416 214.452 8.122C214.452 6.33 213.094 4.972 211.274 4.972C209.328 4.93 207.676 6.596 207.718 8.57C207.718 10.6 209.314 12.154 211.414 12.154C212.464 12.154 213.374 11.79 214.158 11.048L213.458 10.04C212.842 10.586 212.17 10.852 211.456 10.852C210.28 10.852 209.398 10.166 209.216 9.046H214.34ZM209.244 7.898C209.468 6.876 210.252 6.218 211.218 6.218C212.184 6.218 212.968 6.848 212.982 7.898H209.244ZM215.492 10.824C216.108 11.622 217.088 12.154 218.264 12.154C218.992 12.154 219.594 11.972 220.084 11.608C220.574 11.23 220.812 10.712 220.812 10.054C220.812 9.088 220.238 8.528 218.936 7.982L218.278 7.716C217.606 7.436 217.368 7.254 217.368 6.904C217.368 6.47 217.732 6.246 218.306 6.246C218.908 6.246 219.482 6.498 219.916 6.946L220.714 6.036C220.112 5.322 219.328 4.972 218.334 4.972C216.934 4.972 215.912 5.728 215.912 6.96C215.912 7.926 216.486 8.458 217.704 8.962L218.404 9.256C219.076 9.536 219.37 9.704 219.37 10.11C219.37 10.614 218.894 10.88 218.264 10.88C217.536 10.88 216.934 10.53 216.332 9.9L215.492 10.824Z" fill="#46A358"/>
<path d="M3.514 91H4.606V82.74H7.868V81.76H0.266V82.74H3.514V91ZM14.9668 86.716C14.9668 85.106 14.0148 84.028 12.4468 84.028C11.5928 84.028 10.8648 84.378 10.4028 84.952V80.5H9.32477V91H10.4028V86.856C10.4028 85.792 11.1448 85.022 12.1948 85.022C13.2448 85.022 13.8888 85.75 13.8888 86.856V91H14.9668V86.716ZM23.2745 87.92C23.3305 87.64 23.3585 87.374 23.3585 87.108C23.3585 85.302 22.0145 84.028 20.2505 84.028C18.3045 84.028 16.7645 85.624 16.7645 87.598C16.7645 89.6 18.3465 91.154 20.3765 91.154C21.4545 91.154 22.3925 90.706 23.1065 89.964L22.4765 89.236C21.8605 89.852 21.1605 90.16 20.3905 90.16C19.0465 90.16 18.0105 89.264 17.8845 87.92H23.2745ZM17.9265 86.968C18.1645 85.792 19.0885 85.008 20.2225 85.008C21.3565 85.008 22.2385 85.75 22.2525 86.968H17.9265ZM36.1343 87.598C36.1343 85.596 34.6783 84.028 32.7603 84.028C31.7383 84.028 30.8003 84.462 30.2543 85.176V80.5H29.1763V91H30.1843V89.922C30.7023 90.692 31.7103 91.154 32.7743 91.154C34.6923 91.154 36.1343 89.6 36.1343 87.598ZM35.0283 87.584C35.0283 89.054 33.9923 90.16 32.6063 90.16C31.3883 90.16 30.2403 89.32 30.2403 87.598C30.2403 85.862 31.3463 85.022 32.6063 85.022C33.9923 85.022 35.0283 86.114 35.0283 87.584ZM44.042 87.92C44.098 87.64 44.126 87.374 44.126 87.108C44.126 85.302 42.782 84.028 41.018 84.028C39.072 84.028 37.532 85.624 37.532 87.598C37.532 89.6 39.114 91.154 41.144 91.154C42.222 91.154 43.16 90.706 43.874 89.964L43.244 89.236C42.628 89.852 41.928 90.16 41.158 90.16C39.814 90.16 38.778 89.264 38.652 87.92H44.042ZM38.694 86.968C38.932 85.792 39.856 85.008 40.99 85.008C42.124 85.008 43.006 85.75 43.02 86.968H38.694ZM51.6621 86.716C51.6621 85.106 50.7101 84.028 49.1281 84.028C48.2741 84.028 47.5321 84.35 47.0281 84.91V84.182H46.0201V91H47.0981V86.842C47.0981 85.778 47.8401 85.022 48.8901 85.022C49.9401 85.022 50.5841 85.764 50.5841 86.842V91H51.6621V86.716ZM59.9698 87.92C60.0258 87.64 60.0538 87.374 60.0538 87.108C60.0538 85.302 58.7098 84.028 56.9458 84.028C54.9998 84.028 53.4598 85.624 53.4598 87.598C53.4598 89.6 55.0418 91.154 57.0718 91.154C58.1498 91.154 59.0878 90.706 59.8018 89.964L59.1718 89.236C58.5558 89.852 57.8558 90.16 57.0858 90.16C55.7418 90.16 54.7058 89.264 54.5798 87.92H59.9698ZM54.6218 86.968C54.8598 85.792 55.7838 85.008 56.9178 85.008C58.0518 85.008 58.9338 85.75 58.9478 86.968H54.6218ZM63.1938 82.628C63.1938 81.662 63.7118 81.326 64.6218 81.326C64.8038 81.326 64.9998 81.34 65.2238 81.368V80.458C64.9578 80.388 64.6638 80.346 64.3698 80.346C62.9838 80.346 62.1158 81.06 62.1158 82.558V84.182H61.1358V85.148H62.1158V91H63.1938V85.148H64.9018V84.182H63.1938V82.628ZM66.3998 91H67.4778V84.182H66.3998V91ZM66.1338 81.578C66.1338 82.026 66.4978 82.362 66.9458 82.362C67.3938 82.362 67.7438 82.026 67.7438 81.578C67.7438 81.144 67.3798 80.794 66.9458 80.794C66.4978 80.794 66.1338 81.144 66.1338 81.578ZM73.5742 90.09C73.2242 90.146 72.9302 90.174 72.6642 90.174C71.7262 90.174 71.2222 89.838 71.2222 88.872V85.148H73.3502V84.182H71.2222V82.32H70.1442V84.182H68.9962V85.148H70.1442V88.942C70.1442 90.44 71.0262 91.154 72.4402 91.154C72.7622 91.154 73.1402 91.098 73.5742 91V90.09ZM74.5382 89.824C75.1402 90.608 76.0642 91.154 77.1982 91.154C77.8702 91.154 78.4302 90.986 78.8922 90.636C79.3542 90.286 79.5922 89.782 79.5922 89.152C79.5922 88.214 79.0602 87.682 77.7862 87.136L77.1562 86.87C76.3302 86.52 76.0502 86.31 76.0502 85.876C76.0502 85.33 76.5122 85.022 77.1842 85.022C77.8142 85.022 78.4022 85.316 78.8642 85.778L79.5222 85.106C78.9622 84.434 78.1922 84.028 77.2402 84.028C75.9382 84.028 74.9442 84.742 74.9442 85.932C74.9442 86.842 75.5042 87.36 76.6382 87.822L77.2962 88.102C78.1362 88.438 78.4862 88.648 78.4862 89.194C78.4862 89.796 77.9262 90.16 77.1842 90.16C76.4142 90.16 75.8822 89.782 75.2242 89.11L74.5382 89.824ZM84.9734 87.584C84.9454 89.502 86.5834 91.182 88.5294 91.14C90.4754 91.182 92.1554 89.502 92.1134 87.584C92.1554 85.638 90.4894 84 88.5434 84.028C86.5974 83.986 84.9314 85.638 84.9734 87.584ZM91.0074 87.598C91.0074 89.026 89.9154 90.146 88.5294 90.146C87.1434 90.146 86.0794 89.026 86.0794 87.598C86.0794 86.128 87.1434 85.022 88.5434 85.022C89.9294 85.022 91.0074 86.128 91.0074 87.598ZM95.2544 82.628C95.2544 81.662 95.7724 81.326 96.6824 81.326C96.8644 81.326 97.0604 81.34 97.2844 81.368V80.458C97.0184 80.388 96.7244 80.346 96.4304 80.346C95.0444 80.346 94.1764 81.06 94.1764 82.558V84.182H93.1964V85.148H94.1764V91H95.2544V85.148H96.9624V84.182H95.2544V82.628ZM107.389 86.716C107.389 85.106 106.437 84.028 104.869 84.028C104.015 84.028 103.287 84.378 102.825 84.952V80.5H101.747V91H102.825V86.856C102.825 85.792 103.567 85.022 104.617 85.022C105.667 85.022 106.311 85.75 106.311 86.856V91H107.389V86.716ZM109.186 87.584C109.158 89.502 110.796 91.182 112.742 91.14C114.688 91.182 116.368 89.502 116.326 87.584C116.368 85.638 114.702 84 112.756 84.028C110.81 83.986 109.144 85.638 109.186 87.584ZM115.22 87.598C115.22 89.026 114.128 90.146 112.742 90.146C111.356 90.146 110.292 89.026 110.292 87.598C110.292 86.128 111.356 85.022 112.756 85.022C114.142 85.022 115.22 86.128 115.22 87.598ZM118.137 88.284C118.137 90.006 119.369 91.154 120.965 91.154C122.547 91.154 123.779 90.006 123.779 88.284V84.182H122.701V88.354C122.701 89.432 121.959 90.16 120.965 90.16C119.957 90.16 119.201 89.46 119.201 88.354V84.182H118.137V88.284ZM125.411 89.824C126.013 90.608 126.937 91.154 128.071 91.154C128.743 91.154 129.303 90.986 129.765 90.636C130.227 90.286 130.465 89.782 130.465 89.152C130.465 88.214 129.933 87.682 128.659 87.136L128.029 86.87C127.203 86.52 126.923 86.31 126.923 85.876C126.923 85.33 127.385 85.022 128.057 85.022C128.687 85.022 129.275 85.316 129.737 85.778L130.395 85.106C129.835 84.434 129.065 84.028 128.113 84.028C126.811 84.028 125.817 84.742 125.817 85.932C125.817 86.842 126.377 87.36 127.511 87.822L128.169 88.102C129.009 88.438 129.359 88.648 129.359 89.194C129.359 89.796 128.799 90.16 128.057 90.16C127.287 90.16 126.755 89.782 126.097 89.11L125.411 89.824ZM138.433 87.92C138.489 87.64 138.517 87.374 138.517 87.108C138.517 85.302 137.173 84.028 135.409 84.028C133.463 84.028 131.923 85.624 131.923 87.598C131.923 89.6 133.505 91.154 135.535 91.154C136.613 91.154 137.551 90.706 138.265 89.964L137.635 89.236C137.019 89.852 136.319 90.16 135.549 90.16C134.205 90.16 133.169 89.264 133.043 87.92H138.433ZM133.085 86.968C133.323 85.792 134.247 85.008 135.381 85.008C136.515 85.008 137.397 85.75 137.411 86.968H133.085ZM147.369 87.584C147.369 85.582 145.941 84.028 143.995 84.028C142.931 84.028 141.937 84.49 141.419 85.274V84.182H140.411V93.52H141.489V90.02C142.049 90.734 142.987 91.154 143.995 91.154C145.913 91.154 147.369 89.586 147.369 87.584ZM146.263 87.598C146.263 89.068 145.227 90.16 143.841 90.16C142.581 90.16 141.475 89.32 141.475 87.584C141.475 85.862 142.623 85.022 143.841 85.022C145.227 85.022 146.263 86.128 146.263 87.598ZM149.256 91H150.334V80.5H149.256V91ZM157.812 86.8C157.812 85.008 156.762 84.028 155.152 84.028C154.018 84.028 152.996 84.518 152.38 85.526L153.094 86.114C153.654 85.386 154.256 85.022 155.082 85.022C156.104 85.022 156.734 85.624 156.734 86.744V87.332H154.578C153.108 87.332 152.128 88.074 152.128 89.236C152.128 90.412 153.108 91.154 154.508 91.154C155.502 91.154 156.3 90.79 156.804 90.118V91H157.812V86.8ZM156.734 88.382C156.734 89.432 155.768 90.258 154.648 90.258C153.85 90.258 153.234 89.866 153.234 89.18C153.234 88.55 153.752 88.214 154.704 88.214H156.734V88.382ZM165.74 86.716C165.74 85.106 164.788 84.028 163.206 84.028C162.352 84.028 161.61 84.35 161.106 84.91V84.182H160.098V91H161.176V86.842C161.176 85.778 161.918 85.022 162.968 85.022C164.018 85.022 164.662 85.764 164.662 86.842V91H165.74V86.716ZM171.752 90.09C171.402 90.146 171.108 90.174 170.842 90.174C169.904 90.174 169.4 89.838 169.4 88.872V85.148H171.528V84.182H169.4V82.32H168.322V84.182H167.174V85.148H168.322V88.942C168.322 90.44 169.204 91.154 170.618 91.154C170.94 91.154 171.318 91.098 171.752 91V90.09ZM172.716 89.824C173.318 90.608 174.242 91.154 175.376 91.154C176.048 91.154 176.608 90.986 177.07 90.636C177.532 90.286 177.77 89.782 177.77 89.152C177.77 88.214 177.238 87.682 175.964 87.136L175.334 86.87C174.508 86.52 174.228 86.31 174.228 85.876C174.228 85.33 174.69 85.022 175.362 85.022C175.992 85.022 176.58 85.316 177.042 85.778L177.7 85.106C177.14 84.434 176.37 84.028 175.418 84.028C174.116 84.028 173.122 84.742 173.122 85.932C173.122 86.842 173.682 87.36 174.816 87.822L175.474 88.102C176.314 88.438 176.664 88.648 176.664 89.194C176.664 89.796 176.104 90.16 175.362 90.16C174.592 90.16 174.06 89.782 173.402 89.11L172.716 89.824ZM188.751 86.8C188.751 85.008 187.701 84.028 186.091 84.028C184.957 84.028 183.935 84.518 183.319 85.526L184.033 86.114C184.593 85.386 185.195 85.022 186.021 85.022C187.043 85.022 187.673 85.624 187.673 86.744V87.332H185.517C184.047 87.332 183.067 88.074 183.067 89.236C183.067 90.412 184.047 91.154 185.447 91.154C186.441 91.154 187.239 90.79 187.743 90.118V91H188.751V86.8ZM187.673 88.382C187.673 89.432 186.707 90.258 185.587 90.258C184.789 90.258 184.173 89.866 184.173 89.18C184.173 88.55 184.691 88.214 185.643 88.214H187.673V88.382ZM194.664 84.182C194.482 84.14 194.314 84.126 194.16 84.126C193.334 84.126 192.536 84.49 192.046 85.148V84.182H191.038V91H192.116V87.136C192.116 85.876 193.11 85.134 194.258 85.134H194.664V84.182ZM201.993 87.92C202.049 87.64 202.077 87.374 202.077 87.108C202.077 85.302 200.733 84.028 198.969 84.028C197.023 84.028 195.483 85.624 195.483 87.598C195.483 89.6 197.065 91.154 199.095 91.154C200.173 91.154 201.111 90.706 201.825 89.964L201.195 89.236C200.579 89.852 199.879 90.16 199.109 90.16C197.765 90.16 196.729 89.264 196.603 87.92H201.993ZM196.645 86.968C196.883 85.792 197.807 85.008 198.941 85.008C200.075 85.008 200.957 85.75 200.971 86.968H196.645ZM7.21 109.92C7.266 109.64 7.294 109.374 7.294 109.108C7.294 107.302 5.95 106.028 4.186 106.028C2.24 106.028 0.7 107.624 0.7 109.598C0.7 111.6 2.282 113.154 4.312 113.154C5.39 113.154 6.328 112.706 7.042 111.964L6.412 111.236C5.796 111.852 5.096 112.16 4.326 112.16C2.982 112.16 1.946 111.264 1.82 109.92H7.21ZM1.862 108.968C2.1 107.792 3.024 107.008 4.158 107.008C5.292 107.008 6.174 107.75 6.188 108.968H1.862ZM14.83 108.716C14.83 107.106 13.878 106.028 12.296 106.028C11.442 106.028 10.7 106.35 10.196 106.91V106.182H9.18805V113H10.266V108.842C10.266 107.778 11.008 107.022 12.058 107.022C13.108 107.022 13.752 107.764 13.752 108.842V113H14.83V108.716ZM22.5217 102.5V107.19C21.9757 106.462 21.0237 106.028 20.0017 106.028C18.0837 106.028 16.6277 107.596 16.6277 109.598C16.6277 111.6 18.0837 113.154 20.0017 113.154C21.0657 113.154 22.0597 112.692 22.5777 111.922V113H23.5997V102.5H22.5217ZM22.5357 109.598C22.5357 111.32 21.3877 112.16 20.1557 112.16C18.7697 112.16 17.7337 111.054 17.7337 109.584C17.7337 108.114 18.7697 107.022 20.1557 107.022C21.3877 107.022 22.5357 107.862 22.5357 109.598ZM25.9634 113H27.0414V102.5H25.9634V113ZM35.4288 109.92C35.4848 109.64 35.5128 109.374 35.5128 109.108C35.5128 107.302 34.1688 106.028 32.4048 106.028C30.4588 106.028 28.9188 107.624 28.9188 109.598C28.9188 111.6 30.5008 113.154 32.5308 113.154C33.6088 113.154 34.5468 112.706 35.2608 111.964L34.6308 111.236C34.0148 111.852 33.3148 112.16 32.5448 112.16C31.2008 112.16 30.1648 111.264 30.0388 109.92H35.4288ZM30.0808 108.968C30.3188 107.792 31.2428 107.008 32.3768 107.008C33.5108 107.008 34.3928 107.75 34.4068 108.968H30.0808ZM36.7628 111.824C37.3648 112.608 38.2888 113.154 39.4228 113.154C40.0948 113.154 40.6548 112.986 41.1168 112.636C41.5788 112.286 41.8168 111.782 41.8168 111.152C41.8168 110.214 41.2848 109.682 40.0108 109.136L39.3808 108.87C38.5548 108.52 38.2748 108.31 38.2748 107.876C38.2748 107.33 38.7368 107.022 39.4088 107.022C40.0388 107.022 40.6268 107.316 41.0888 107.778L41.7468 107.106C41.1868 106.434 40.4168 106.028 39.4648 106.028C38.1628 106.028 37.1688 106.742 37.1688 107.932C37.1688 108.842 37.7288 109.36 38.8628 109.822L39.5208 110.102C40.3608 110.438 40.7108 110.648 40.7108 111.194C40.7108 111.796 40.1508 112.16 39.4088 112.16C38.6388 112.16 38.1068 111.782 37.4488 111.11L36.7628 111.824ZM43.1202 111.824C43.7222 112.608 44.6462 113.154 45.7802 113.154C46.4522 113.154 47.0122 112.986 47.4742 112.636C47.9362 112.286 48.1742 111.782 48.1742 111.152C48.1742 110.214 47.6422 109.682 46.3682 109.136L45.7382 108.87C44.9122 108.52 44.6322 108.31 44.6322 107.876C44.6322 107.33 45.0942 107.022 45.7662 107.022C46.3962 107.022 46.9842 107.316 47.4462 107.778L48.1042 107.106C47.5442 106.434 46.7742 106.028 45.8222 106.028C44.5202 106.028 43.5262 106.742 43.5262 107.932C43.5262 108.842 44.0862 109.36 45.2202 109.822L45.8782 110.102C46.7182 110.438 47.0682 110.648 47.0682 111.194C47.0682 111.796 46.5082 112.16 45.7662 112.16C44.9962 112.16 44.4642 111.782 43.8062 111.11L43.1202 111.824ZM50.0096 112.272C50.0096 112.776 50.4016 113.154 50.8916 113.154C51.3816 113.154 51.7736 112.776 51.7736 112.272C51.7736 111.768 51.3816 111.39 50.8916 111.39C50.4016 111.39 50.0096 111.768 50.0096 112.272ZM58.0533 113H59.1453V103.76H58.0533V113ZM67.166 108.716C67.166 107.106 66.214 106.028 64.632 106.028C63.778 106.028 63.036 106.35 62.532 106.91V106.182H61.524V113H62.602V108.842C62.602 107.778 63.344 107.022 64.394 107.022C65.444 107.022 66.088 107.764 66.088 108.842V113H67.166V108.716ZM78.4875 108.8C78.4875 107.008 77.4375 106.028 75.8275 106.028C74.6935 106.028 73.6715 106.518 73.0555 107.526L73.7695 108.114C74.3295 107.386 74.9315 107.022 75.7575 107.022C76.7795 107.022 77.4095 107.624 77.4095 108.744V109.332H75.2535C73.7835 109.332 72.8035 110.074 72.8035 111.236C72.8035 112.412 73.7835 113.154 75.1835 113.154C76.1775 113.154 76.9755 112.79 77.4795 112.118V113H78.4875V108.8ZM77.4095 110.382C77.4095 111.432 76.4435 112.258 75.3235 112.258C74.5255 112.258 73.9095 111.866 73.9095 111.18C73.9095 110.55 74.4275 110.214 75.3795 110.214H77.4095V110.382ZM86.178 102.5V107.19C85.632 106.462 84.68 106.028 83.658 106.028C81.74 106.028 80.284 107.596 80.284 109.598C80.284 111.6 81.74 113.154 83.658 113.154C84.722 113.154 85.716 112.692 86.234 111.922V113H87.256V102.5H86.178ZM86.192 109.598C86.192 111.32 85.044 112.16 83.812 112.16C82.426 112.16 81.39 111.054 81.39 109.584C81.39 108.114 82.426 107.022 83.812 107.022C85.044 107.022 86.192 107.862 86.192 109.598ZM95.0237 102.5V107.19C94.4777 106.462 93.5257 106.028 92.5037 106.028C90.5857 106.028 89.1297 107.596 89.1297 109.598C89.1297 111.6 90.5857 113.154 92.5037 113.154C93.5677 113.154 94.5617 112.692 95.0797 111.922V113H96.1017V102.5H95.0237ZM95.0377 109.598C95.0377 111.32 93.8897 112.16 92.6577 112.16C91.2717 112.16 90.2357 111.054 90.2357 109.584C90.2357 108.114 91.2717 107.022 92.6577 107.022C93.8897 107.022 95.0377 107.862 95.0377 109.598ZM98.4654 113H99.5434V106.182H98.4654V113ZM98.1994 103.578C98.1994 104.026 98.5634 104.362 99.0114 104.362C99.4594 104.362 99.8094 104.026 99.8094 103.578C99.8094 103.144 99.4454 102.794 99.0114 102.794C98.5634 102.794 98.1994 103.144 98.1994 103.578ZM105.635 112.09C105.285 112.146 104.991 112.174 104.725 112.174C103.787 112.174 103.283 111.838 103.283 110.872V107.148H105.411V106.182H103.283V104.32H102.205V106.182H101.057V107.148H102.205V110.942C102.205 112.44 103.087 113.154 104.501 113.154C104.823 113.154 105.201 113.098 105.635 113V112.09ZM107.243 113H108.321V106.182H107.243V113ZM106.977 103.578C106.977 104.026 107.341 104.362 107.789 104.362C108.237 104.362 108.587 104.026 108.587 103.578C108.587 103.144 108.223 102.794 107.789 102.794C107.341 102.794 106.977 103.144 106.977 103.578ZM110.198 109.584C110.17 111.502 111.808 113.182 113.754 113.14C115.7 113.182 117.38 111.502 117.338 109.584C117.38 107.638 115.714 106 113.768 106.028C111.822 105.986 110.156 107.638 110.198 109.584ZM116.232 109.598C116.232 111.026 115.14 112.146 113.754 112.146C112.368 112.146 111.304 111.026 111.304 109.598C111.304 108.128 112.368 107.022 113.768 107.022C115.154 107.022 116.232 108.128 116.232 109.598ZM124.875 108.716C124.875 107.106 123.923 106.028 122.341 106.028C121.487 106.028 120.745 106.35 120.241 106.91V106.182H119.233V113H120.311V108.842C120.311 107.778 121.053 107.022 122.103 107.022C123.153 107.022 123.797 107.764 123.797 108.842V113H124.875V108.716ZM134.81 112.09C134.46 112.146 134.166 112.174 133.9 112.174C132.962 112.174 132.458 111.838 132.458 110.872V107.148H134.586V106.182H132.458V104.32H131.38V106.182H130.232V107.148H131.38V110.942C131.38 112.44 132.262 113.154 133.676 113.154C133.998 113.154 134.376 113.098 134.81 113V112.09ZM135.792 109.584C135.764 111.502 137.402 113.182 139.348 113.14C141.294 113.182 142.974 111.502 142.932 109.584C142.974 107.638 141.308 106 139.362 106.028C137.416 105.986 135.75 107.638 135.792 109.584ZM141.826 109.598C141.826 111.026 140.734 112.146 139.348 112.146C137.962 112.146 136.898 111.026 136.898 109.598C136.898 108.128 137.962 107.022 139.362 107.022C140.748 107.022 141.826 108.128 141.826 109.598ZM144.578 112.272C144.578 112.776 144.97 113.154 145.46 113.154C145.95 113.154 146.342 112.776 146.342 112.272C146.342 111.768 145.95 111.39 145.46 111.39C144.97 111.39 144.578 111.768 144.578 112.272ZM148.502 112.272C148.502 112.776 148.894 113.154 149.384 113.154C149.874 113.154 150.266 112.776 150.266 112.272C150.266 111.768 149.874 111.39 149.384 111.39C148.894 111.39 148.502 111.768 148.502 112.272Z" fill="#727272"/>
<path d="M8.666 141L5.894 137.192C7 136.758 7.672 135.806 7.672 134.588C7.672 132.922 6.398 131.76 4.536 131.76H1.162V141H2.646V137.43H4.34L6.972 141H8.666ZM2.646 133.076H4.508C5.53 133.076 6.146 133.692 6.146 134.602C6.146 135.498 5.53 136.114 4.508 136.114H2.646V133.076ZM15.879 138.046C15.949 137.724 15.991 137.416 15.991 137.122C15.991 135.33 14.633 133.972 12.813 133.972C10.867 133.93 9.21495 135.596 9.25695 137.57C9.25695 139.6 10.853 141.154 12.953 141.154C14.003 141.154 14.913 140.79 15.697 140.048L14.997 139.04C14.381 139.586 13.709 139.852 12.995 139.852C11.819 139.852 10.937 139.166 10.755 138.046H15.879ZM10.783 136.898C11.007 135.876 11.791 135.218 12.757 135.218C13.723 135.218 14.507 135.848 14.521 136.898H10.783ZM23.1353 136.842C23.1353 134.994 22.0153 133.972 20.3213 133.972C19.1313 133.972 18.1093 134.448 17.4233 135.442L18.2773 136.31C18.8513 135.624 19.4113 135.288 20.1813 135.288C21.1193 135.288 21.6513 135.806 21.6513 136.758V137.206H19.7053C18.1513 137.206 17.1713 137.976 17.1713 139.166C17.1713 140.356 18.1233 141.154 19.5653 141.154C20.5033 141.154 21.2593 140.832 21.7633 140.23V141H23.1353V136.842ZM21.6513 138.396C21.6513 139.334 20.8673 140.02 19.8733 140.02C19.1593 140.02 18.6693 139.684 18.6693 139.11C18.6693 138.55 19.1033 138.27 19.8873 138.27H21.6513V138.396ZM30.4032 130.5V134.966C29.8852 134.336 29.0592 133.972 28.1072 133.972C26.2032 133.93 24.7052 135.568 24.7472 137.57C24.7472 139.6 26.1752 141.154 28.1072 141.154C29.1292 141.154 30.0112 140.734 30.5152 140.02V141H31.8872V130.5H30.4032ZM30.4312 137.57C30.4312 139.068 29.4372 139.81 28.3592 139.81C27.1412 139.81 26.2452 138.872 26.2452 137.556C26.2452 136.24 27.1832 135.316 28.3592 135.316C29.4232 135.316 30.4312 136.086 30.4312 137.57ZM46.309 131.606L42.431 136.772L38.553 131.606H38.035V141H39.519V135.19L42.179 138.676H42.683L45.329 135.204V141H46.813V131.606H46.309ZM48.5363 137.556C48.4943 139.502 50.1883 141.196 52.1623 141.154C54.1643 141.196 55.8583 139.502 55.8162 137.556C55.8583 135.61 54.1643 133.93 52.1623 133.972C50.1883 133.944 48.4943 135.582 48.5363 137.556ZM54.3043 137.57C54.3043 138.816 53.3803 139.796 52.1623 139.796C50.9583 139.796 50.0343 138.844 50.0343 137.57C50.0343 136.296 50.9583 135.316 52.1763 135.316C53.3663 135.316 54.3043 136.296 54.3043 137.57ZM61.4355 134.126C61.2675 134.084 61.0855 134.056 60.8755 134.056C60.0915 134.056 59.3635 134.406 58.8735 135.022V134.126H57.5015V141H58.9715V137.332C58.9715 136.114 59.8255 135.428 60.9875 135.428H61.4355V134.126ZM68.8028 138.046C68.8728 137.724 68.9148 137.416 68.9148 137.122C68.9148 135.33 67.5568 133.972 65.7368 133.972C63.7908 133.93 62.1388 135.596 62.1808 137.57C62.1808 139.6 63.7768 141.154 65.8768 141.154C66.9268 141.154 67.8368 140.79 68.6208 140.048L67.9208 139.04C67.3048 139.586 66.6328 139.852 65.9188 139.852C64.7428 139.852 63.8608 139.166 63.6788 138.046H68.8028ZM63.7068 136.898C63.9308 135.876 64.7148 135.218 65.6808 135.218C66.6468 135.218 67.4308 135.848 67.4448 136.898H63.7068Z" fill="#3D3D3D"/>
<path d="M75.6667 137.817C75.6667 137.564 75.8548 137.355 76.0988 137.322L76.1667 137.317H86.1667C86.4428 137.317 86.6667 137.541 86.6667 137.817C86.6667 138.07 86.4786 138.279 86.2345 138.313L86.1667 138.317H76.1667C75.8905 138.317 75.6667 138.093 75.6667 137.817Z" fill="#3D3D3D"/>
<path d="M81.7807 134.155C81.585 133.96 81.5843 133.644 81.7791 133.448C81.9563 133.27 82.234 133.253 82.4301 133.398L82.4862 133.447L86.5196 137.463C86.698 137.64 86.7142 137.919 86.5683 138.115L86.5196 138.171L82.4863 142.188C82.2906 142.383 81.974 142.382 81.7792 142.186C81.602 142.008 81.5865 141.731 81.7321 141.535L81.7806 141.479L85.458 137.817L81.7807 134.155Z" fill="#3D3D3D"/>
</svg>
