<svg width="242" height="146" viewBox="0 0 242 146" fill="none" xmlns="http://www.w3.org/2000/svg">
<path d="M4.5 39H7.2V28.24H11.44V25.8H0.28V28.24H4.5V39ZM11.0339 34.04C10.9739 36.86 13.4139 39.28 16.3139 39.22C19.2139 39.28 21.7139 36.86 21.6539 34.04C21.7139 31.22 19.2339 28.84 16.3339 28.88C13.4339 28.82 10.9739 31.22 11.0339 34.04ZM18.8939 34.06C18.8939 35.6 17.7939 36.74 16.3339 36.74C14.8339 36.74 13.7739 35.6 13.7739 34.06C13.7739 32.48 14.8339 31.34 16.3339 31.34C17.7939 31.34 18.8939 32.52 18.8939 34.06ZM34.2219 34.04C34.2219 31.08 32.1819 28.88 29.4219 28.88C28.0619 28.88 26.9019 29.4 26.2419 30.34V29.1H23.7619V42.6H26.4619V38.04C27.1819 38.82 28.2219 39.24 29.4219 39.24C32.1819 39.24 34.2219 37 34.2219 34.04ZM31.4819 34.06C31.4819 35.68 30.3619 36.78 28.9219 36.78C27.5419 36.78 26.4219 35.8 26.4219 34.04C26.4219 32.26 27.5619 31.32 28.9219 31.32C30.3819 31.32 31.4819 32.4 31.4819 34.06ZM45.9055 25.8L40.9655 27.42L41.6055 29.8L44.1055 29V39H46.8055V25.8H45.9055ZM49.7528 32.3C49.7528 36.2 51.5128 39.24 54.9928 39.24C58.4528 39.24 60.2128 36.2 60.2128 32.3C60.2128 30.28 59.7728 28.66 58.8728 27.42C57.9928 26.18 56.6928 25.56 54.9928 25.56C53.2928 25.56 51.9928 26.18 51.0928 27.42C50.1928 28.66 49.7528 30.28 49.7528 32.3ZM57.4328 32.32C57.4328 35.26 56.6128 36.74 54.9928 36.74C53.3528 36.74 52.5328 35.26 52.5328 32.32C52.5328 29.52 53.2928 28.06 54.9928 28.06C56.6728 28.06 57.4328 29.52 57.4328 32.32ZM67.5336 36.32C68.5536 38.1 70.3936 39.24 72.6336 39.24C75.2736 39.24 77.2536 37.7 77.2536 35.28C77.2536 33.5 76.2136 32.4 73.9936 31.42L72.4936 30.76C71.3736 30.26 70.9536 29.94 70.9536 29.24C70.9536 28.42 71.6536 27.96 72.5936 27.96C73.5936 27.96 74.4336 28.46 75.1136 29.48L76.9536 28.06C76.1336 26.54 74.6136 25.56 72.5936 25.56C70.0936 25.56 68.2136 27.04 68.2136 29.3C68.2136 31.06 69.3936 32.2 71.4136 33.1L72.8336 33.74C74.0936 34.32 74.5136 34.6 74.5136 35.38C74.5136 36.28 73.8136 36.84 72.6336 36.84C71.1936 36.84 70.2536 36.1 69.3936 34.92L67.5336 36.32ZM79.3455 34.64C79.3455 37.4 81.2855 39.24 83.9255 39.24C86.5055 39.24 88.4655 37.4 88.4655 34.64V29.1H85.7655V34.86C85.7655 36 84.9655 36.76 83.9255 36.76C82.8255 36.76 82.0455 36 82.0455 34.86V29.1H79.3455V34.64ZM90.487 34.04C90.447 36.9 92.887 39.3 95.787 39.24C97.707 39.24 99.227 38.3 100.087 36.78L98.207 35.34C97.567 36.24 96.847 36.76 95.827 36.76C94.307 36.76 93.227 35.62 93.227 34.04C93.227 32.5 94.307 31.34 95.827 31.34C96.867 31.34 97.587 31.88 98.207 32.78L100.087 31.32C99.227 29.8 97.727 28.88 95.787 28.88C92.847 28.88 90.487 31.14 90.487 34.04ZM101.327 34.04C101.287 36.9 103.727 39.3 106.627 39.24C108.547 39.24 110.067 38.3 110.927 36.78L109.047 35.34C108.407 36.24 107.687 36.76 106.667 36.76C105.147 36.76 104.067 35.62 104.067 34.04C104.067 32.5 105.147 31.34 106.667 31.34C107.707 31.34 108.427 31.88 109.047 32.78L110.927 31.32C110.067 29.8 108.567 28.88 106.627 28.88C103.687 28.88 101.327 31.14 101.327 34.04ZM112.822 34.64C112.822 37.4 114.762 39.24 117.402 39.24C119.982 39.24 121.942 37.4 121.942 34.64V29.1H119.242V34.86C119.242 36 118.442 36.76 117.402 36.76C116.302 36.76 115.522 36 115.522 34.86V29.1H112.822V34.64ZM124.524 39H127.224V24H124.524V39ZM138.995 34.96C139.115 34.46 139.175 33.96 139.175 33.48C139.175 30.9 137.255 28.88 134.515 28.88C131.655 28.82 129.275 31.2 129.335 34.06C129.275 36.92 131.695 39.3 134.755 39.24C136.215 39.24 137.535 38.74 138.715 37.76L137.595 35.92C136.735 36.58 135.815 36.92 134.835 36.92C133.395 36.92 132.375 36.22 132.055 34.96H138.995ZM132.055 33.06C132.355 31.84 133.275 31.06 134.415 31.06C135.595 31.06 136.535 31.84 136.555 33.06H132.055ZM150.381 32.86C150.381 30.46 148.961 28.88 146.661 28.88C145.481 28.88 144.461 29.3 143.761 30V29.1H141.281V39H143.981V33.22C143.981 32.08 144.761 31.3 145.861 31.3C146.961 31.3 147.701 32.08 147.701 33.22V39H150.381V32.86ZM159.341 36.74C158.641 36.8 158.221 36.82 158.061 36.82C156.781 36.82 156.221 36.4 156.221 35.28V31.38H159.021V29.1H156.221V26.6H153.521V29.1H151.961V31.38H153.521V35.52C153.521 38 154.981 39.24 157.481 39.24C158.081 39.24 158.701 39.16 159.341 39V36.74ZM160.401 37.32C161.301 38.52 162.761 39.24 164.501 39.24C165.621 39.24 166.541 38.96 167.261 38.4C168.001 37.84 168.361 37.06 168.361 36.08C168.361 34.62 167.501 33.84 165.581 33.06L164.621 32.66C163.841 32.34 163.581 32.16 163.581 31.78C163.581 31.32 163.981 31.08 164.641 31.08C165.461 31.08 166.201 31.4 166.861 32.02L168.221 30.36C167.321 29.38 166.141 28.88 164.661 28.88C162.501 28.88 161.021 29.98 161.021 31.84C161.021 33.3 161.901 34.12 163.721 34.86L164.781 35.3C165.521 35.62 165.801 35.78 165.801 36.2C165.801 36.74 165.261 37.02 164.541 37.02C163.561 37.02 162.621 36.58 161.761 35.68L160.401 37.32ZM179.168 27.72C179.168 26.6 179.748 26.18 180.968 26.18C181.208 26.18 181.468 26.2 181.768 26.24V23.98C181.308 23.84 180.808 23.76 180.288 23.76C177.908 23.76 176.468 25 176.468 27.48V29.1H175.068V31.38H176.468V39H179.168V31.38H181.348V29.1H179.168V27.72ZM182.284 34.04C182.224 36.86 184.664 39.28 187.564 39.22C190.464 39.28 192.964 36.86 192.904 34.04C192.964 31.22 190.484 28.84 187.584 28.88C184.684 28.82 182.224 31.22 182.284 34.04ZM190.144 34.06C190.144 35.6 189.044 36.74 187.584 36.74C186.084 36.74 185.024 35.6 185.024 34.06C185.024 32.48 186.084 31.34 187.584 31.34C189.044 31.34 190.144 32.52 190.144 34.06ZM201.092 29.1C200.832 29.02 200.552 28.98 200.212 28.98C199.112 28.98 198.152 29.46 197.492 30.28V29.1H195.012V39H197.712V34.06C197.712 32.36 198.752 31.48 200.372 31.48H201.092V29.1ZM12.14 51.8H9.16L6.26 57.04L3.34 51.8H0.34L4.9 59.82V65H7.6V59.8L12.14 51.8ZM11.6394 60.04C11.5794 62.86 14.0194 65.28 16.9194 65.22C19.8194 65.28 22.3194 62.86 22.2594 60.04C22.3194 57.22 19.8394 54.84 16.9394 54.88C14.0394 54.82 11.5794 57.22 11.6394 60.04ZM19.4994 60.06C19.4994 61.6 18.3994 62.74 16.9394 62.74C15.4394 62.74 14.3794 61.6 14.3794 60.06C14.3794 58.48 15.4394 57.34 16.9394 57.34C18.3994 57.34 19.4994 58.52 19.4994 60.06ZM24.2673 60.64C24.2673 63.4 26.2073 65.24 28.8473 65.24C31.4273 65.24 33.3873 63.4 33.3873 60.64V55.1H30.6873V60.86C30.6873 62 29.8873 62.76 28.8473 62.76C27.7473 62.76 26.9673 62 26.9673 60.86V55.1H24.2673V60.64ZM42.0489 55.1C41.7889 55.02 41.5089 54.98 41.1689 54.98C40.0689 54.98 39.1089 55.46 38.4489 56.28V55.1H35.9689V65H38.6689V60.06C38.6689 58.36 39.7089 57.48 41.3289 57.48H42.0489V55.1ZM49.5083 65H52.2083V59.3H58.0483V65H60.7483V51.8H58.0483V56.86H52.2083V51.8H49.5083V65ZM62.9284 60.04C62.8684 62.86 65.3084 65.28 68.2084 65.22C71.1084 65.28 73.6084 62.86 73.5484 60.04C73.6084 57.22 71.1284 54.84 68.2284 54.88C65.3284 54.82 62.8684 57.22 62.9284 60.04ZM70.7884 60.06C70.7884 61.6 69.6884 62.74 68.2284 62.74C66.7284 62.74 65.6684 61.6 65.6684 60.06C65.6684 58.48 66.7284 57.34 68.2284 57.34C69.6884 57.34 70.7884 58.52 70.7884 60.06ZM90.9164 58.86C90.9164 56.46 89.4964 54.88 87.1764 54.88C85.8164 54.88 84.6564 55.42 83.8764 56.3C83.2164 55.36 82.2364 54.88 80.9364 54.88C79.7964 54.88 78.7964 55.28 78.1364 55.98V55.1H75.6564V65H78.3564V59.24C78.3564 58.06 79.0764 57.32 80.1764 57.32C81.2364 57.32 81.9364 58.06 81.9364 59.24V65H84.6364V59.18C84.6364 58.08 85.3964 57.32 86.4564 57.32C87.5164 57.32 88.2164 58.06 88.2164 59.24V65H90.9164V58.86ZM102.588 60.96C102.708 60.46 102.768 59.96 102.768 59.48C102.768 56.9 100.848 54.88 98.1084 54.88C95.2484 54.82 92.8684 57.2 92.9284 60.06C92.8684 62.92 95.2884 65.3 98.3484 65.24C99.8084 65.24 101.128 64.74 102.308 63.76L101.188 61.92C100.328 62.58 99.4084 62.92 98.4284 62.92C96.9884 62.92 95.9684 62.22 95.6484 60.96H102.588ZM95.6484 59.06C95.9484 57.84 96.8684 57.06 98.0084 57.06C99.1884 57.06 100.128 57.84 100.148 59.06H95.6484Z" fill="#3D3D3D"/>
<path d="M0.504 10.152C1.218 11.398 2.478 12.154 3.99 12.154C5.768 12.154 7.084 11.09 7.084 9.48C7.084 8.262 6.37 7.534 4.872 6.848L3.836 6.372C2.926 5.91 2.604 5.784 2.548 5.056C2.548 4.328 3.164 3.936 3.948 3.936C4.732 3.936 5.404 4.328 5.894 5.056L6.93 4.258C6.356 3.264 5.25 2.606 3.948 2.606C2.352 2.606 1.036 3.6 1.036 5.112C1.036 6.344 1.848 7.058 3.192 7.674L4.214 8.15C5.18 8.598 5.572 8.878 5.572 9.536C5.572 10.32 4.928 10.824 3.976 10.824C2.912 10.824 2.17 10.25 1.554 9.354L0.504 10.152ZM15.0723 9.046C15.1423 8.724 15.1843 8.416 15.1843 8.122C15.1843 6.33 13.8263 4.972 12.0063 4.972C10.0603 4.93 8.40831 6.596 8.45031 8.57C8.45031 10.6 10.0463 12.154 12.1463 12.154C13.1963 12.154 14.1063 11.79 14.8903 11.048L14.1903 10.04C13.5743 10.586 12.9023 10.852 12.1883 10.852C11.0123 10.852 10.1303 10.166 9.94831 9.046H15.0723ZM9.97631 7.898C10.2003 6.876 10.9843 6.218 11.9503 6.218C12.9163 6.218 13.7003 6.848 13.7143 7.898H9.97631ZM24.0087 8.556C24.0087 6.526 22.5807 4.972 20.6347 4.972C19.6267 4.972 18.7447 5.378 18.2407 6.092V5.126H16.8687V14.52H18.3387V11.16C18.8847 11.79 19.6967 12.154 20.6347 12.154C22.5807 12.154 24.0087 10.614 24.0087 8.556ZM22.4967 8.57C22.4967 9.886 21.5727 10.81 20.3967 10.81C19.3187 10.81 18.3247 10.068 18.3247 8.556C18.3247 7.058 19.3187 6.316 20.3967 6.316C21.5867 6.316 22.4967 7.254 22.4967 8.57ZM29.7887 10.754C29.3827 10.796 29.0887 10.824 28.8787 10.824C27.9827 10.824 27.5207 10.516 27.5207 9.634V6.4H29.5647V5.126H27.5207V3.32H26.0367V5.126H24.9167V6.4H26.0367V9.76C26.0367 11.37 26.9887 12.154 28.5707 12.154C28.9207 12.154 29.3267 12.098 29.7887 12V10.754ZM37.3301 9.046C37.4001 8.724 37.4421 8.416 37.4421 8.122C37.4421 6.33 36.0841 4.972 34.2641 4.972C32.3181 4.93 30.6661 6.596 30.7081 8.57C30.7081 10.6 32.3041 12.154 34.4041 12.154C35.4541 12.154 36.3641 11.79 37.1481 11.048L36.4481 10.04C35.8321 10.586 35.1601 10.852 34.4461 10.852C33.2701 10.852 32.3881 10.166 32.2061 9.046H37.3301ZM32.2341 7.898C32.4581 6.876 33.2421 6.218 34.2081 6.218C35.1741 6.218 35.9581 6.848 35.9721 7.898H32.2341ZM49.4445 7.702C49.4445 6.064 48.4785 4.972 46.8965 4.972C45.9305 4.972 45.0765 5.392 44.5725 6.05C44.1665 5.378 43.4385 4.972 42.4865 4.972C41.6605 4.972 40.9885 5.266 40.4985 5.77V5.126H39.1265V12H40.5965V7.912C40.5965 6.96 41.2125 6.316 42.1085 6.316C42.9905 6.316 43.5505 6.96 43.5505 7.912V12H45.0205V7.842C45.0205 6.96 45.6365 6.316 46.5325 6.316C47.4145 6.316 47.9605 6.946 47.9605 7.912V12H49.4445V7.702ZM58.6259 8.57C58.6259 6.526 57.1979 4.972 55.2519 4.972C54.2999 4.972 53.4739 5.336 52.9559 5.966V1.5H51.4859V12H52.8579V11.048C53.3759 11.762 54.2579 12.154 55.2659 12.154C57.1839 12.154 58.6259 10.6 58.6259 8.57ZM57.1139 8.556C57.1139 9.872 56.2039 10.81 55.0139 10.81C53.9359 10.81 52.9419 10.068 52.9419 8.57C52.9419 7.058 53.9359 6.316 55.0139 6.316C56.1899 6.316 57.1139 7.24 57.1139 8.556ZM66.5059 9.046C66.5759 8.724 66.6179 8.416 66.6179 8.122C66.6179 6.33 65.2599 4.972 63.4399 4.972C61.4939 4.93 59.8419 6.596 59.8839 8.57C59.8839 10.6 61.4799 12.154 63.5799 12.154C64.6299 12.154 65.5399 11.79 66.3239 11.048L65.6239 10.04C65.0079 10.586 64.3359 10.852 63.6219 10.852C62.4459 10.852 61.5639 10.166 61.3819 9.046H66.5059ZM61.4099 7.898C61.6339 6.876 62.4179 6.218 63.3839 6.218C64.3499 6.218 65.1339 6.848 65.1479 7.898H61.4099ZM72.2363 5.126C72.0683 5.084 71.8863 5.056 71.6763 5.056C70.8923 5.056 70.1643 5.406 69.6743 6.022V5.126H68.3023V12H69.7723V8.332C69.7723 7.114 70.6263 6.428 71.7883 6.428H72.2363V5.126ZM79.9541 2.76L76.7481 3.81L77.1121 5.112L78.9881 4.51V12H80.4721V2.76H79.9541ZM88.7832 9.032C88.7832 8.234 88.5452 7.59 88.0692 7.1C87.5932 6.61 87.0192 6.302 86.3332 6.19L88.5732 3.166V2.76H82.8192V4.118H86.2632L84.1072 7.016V7.422H85.1292C86.4872 7.422 87.2572 7.996 87.2572 9.046C87.2572 10.096 86.4732 10.796 85.3672 10.796C84.4152 10.796 83.7572 10.278 83.1972 9.424L82.1612 10.152C82.7772 11.342 83.9112 12.154 85.4092 12.154C87.2292 12.154 88.7832 10.908 88.7832 9.032ZM98.4784 12H99.9624V2.76H98.4784V12ZM113.721 12L110.949 8.192C112.055 7.758 112.727 6.806 112.727 5.588C112.727 3.922 111.453 2.76 109.591 2.76H106.217V12H107.701V8.43H109.395L112.027 12H113.721ZM107.701 4.076H109.563C110.585 4.076 111.201 4.692 111.201 5.602C111.201 6.498 110.585 7.114 109.563 7.114H107.701V4.076ZM120.934 9.046C121.004 8.724 121.046 8.416 121.046 8.122C121.046 6.33 119.688 4.972 117.868 4.972C115.922 4.93 114.27 6.596 114.312 8.57C114.312 10.6 115.908 12.154 118.008 12.154C119.058 12.154 119.968 11.79 120.752 11.048L120.052 10.04C119.436 10.586 118.764 10.852 118.05 10.852C116.874 10.852 115.992 10.166 115.81 9.046H120.934ZM115.838 7.898C116.062 6.876 116.846 6.218 117.812 6.218C118.778 6.218 119.562 6.848 119.576 7.898H115.838ZM128.19 7.842C128.19 5.994 127.07 4.972 125.376 4.972C124.186 4.972 123.164 5.448 122.478 6.442L123.332 7.31C123.906 6.624 124.466 6.288 125.236 6.288C126.174 6.288 126.706 6.806 126.706 7.758V8.206H124.76C123.206 8.206 122.226 8.976 122.226 10.166C122.226 11.356 123.178 12.154 124.62 12.154C125.558 12.154 126.314 11.832 126.818 11.23V12H128.19V7.842ZM126.706 9.396C126.706 10.334 125.922 11.02 124.928 11.02C124.214 11.02 123.724 10.684 123.724 10.11C123.724 9.55 124.158 9.27 124.942 9.27H126.706V9.396ZM135.458 1.5V5.966C134.94 5.336 134.114 4.972 133.162 4.972C131.258 4.93 129.76 6.568 129.802 8.57C129.802 10.6 131.23 12.154 133.162 12.154C134.184 12.154 135.066 11.734 135.57 11.02V12H136.942V1.5H135.458ZM135.486 8.57C135.486 10.068 134.492 10.81 133.414 10.81C132.196 10.81 131.3 9.872 131.3 8.556C131.3 7.24 132.238 6.316 133.414 6.316C134.478 6.316 135.486 7.086 135.486 8.57ZM142.992 12H144.462V5.126H142.992V12ZM142.726 2.564C142.726 3.11 143.174 3.53 143.734 3.53C144.28 3.53 144.728 3.11 144.728 2.564C144.728 2.018 144.28 1.584 143.734 1.584C143.174 1.584 142.726 2.018 142.726 2.564ZM152.593 7.702C152.593 6.064 151.627 4.972 150.017 4.972C149.163 4.972 148.477 5.252 147.959 5.798V5.126H146.587V12H148.057V7.898C148.057 6.96 148.715 6.302 149.625 6.302C150.521 6.302 151.123 6.946 151.123 7.898V12H152.593V7.702ZM160.86 10.712L162.484 8.99C163.128 8.304 163.618 7.716 163.94 7.198C164.276 6.68 164.444 6.106 164.444 5.476C164.444 3.852 163.142 2.606 161.378 2.606C159.488 2.606 158.27 4.048 158.27 5.56C158.27 5.84 158.298 6.106 158.368 6.358H159.866C159.824 6.078 159.796 5.84 159.796 5.644C159.796 4.692 160.426 3.964 161.364 3.964C162.302 3.964 162.904 4.65 162.904 5.588C162.904 6.372 162.456 7.044 161.434 8.122L158.144 11.664V12H164.766V10.712H160.86ZM180.818 7.702C180.818 6.064 179.852 4.972 178.27 4.972C177.304 4.972 176.45 5.392 175.946 6.05C175.54 5.378 174.812 4.972 173.86 4.972C173.034 4.972 172.362 5.266 171.872 5.77V5.126H170.5V12H171.97V7.912C171.97 6.96 172.586 6.316 173.482 6.316C174.364 6.316 174.924 6.96 174.924 7.912V12H176.394V7.842C176.394 6.96 177.01 6.316 177.906 6.316C178.788 6.316 179.334 6.946 179.334 7.912V12H180.818V7.702ZM182.859 12H184.329V5.126H182.859V12ZM182.593 2.564C182.593 3.11 183.041 3.53 183.601 3.53C184.147 3.53 184.595 3.11 184.595 2.564C184.595 2.018 184.147 1.584 183.601 1.584C183.041 1.584 182.593 2.018 182.593 2.564ZM192.461 7.702C192.461 6.064 191.495 4.972 189.885 4.972C189.031 4.972 188.345 5.252 187.827 5.798V5.126H186.455V12H187.925V7.898C187.925 6.96 188.583 6.302 189.493 6.302C190.389 6.302 190.991 6.946 190.991 7.898V12H192.461V7.702ZM194.437 9.116C194.437 10.964 195.725 12.154 197.447 12.154C199.127 12.154 200.429 10.964 200.429 9.116V5.126H198.959V9.228C198.959 10.18 198.301 10.796 197.447 10.796C196.551 10.796 195.893 10.18 195.893 9.228V5.126H194.437V9.116ZM206.58 10.754C206.174 10.796 205.88 10.824 205.67 10.824C204.774 10.824 204.312 10.516 204.312 9.634V6.4H206.356V5.126H204.312V3.32H202.828V5.126H201.708V6.4H202.828V9.76C202.828 11.37 203.78 12.154 205.362 12.154C205.712 12.154 206.118 12.098 206.58 12V10.754ZM214.121 9.046C214.191 8.724 214.233 8.416 214.233 8.122C214.233 6.33 212.875 4.972 211.055 4.972C209.109 4.93 207.457 6.596 207.499 8.57C207.499 10.6 209.095 12.154 211.195 12.154C212.245 12.154 213.155 11.79 213.939 11.048L213.239 10.04C212.623 10.586 211.951 10.852 211.237 10.852C210.061 10.852 209.179 10.166 208.997 9.046H214.121ZM209.025 7.898C209.249 6.876 210.033 6.218 210.999 6.218C211.965 6.218 212.749 6.848 212.763 7.898H209.025ZM215.274 10.824C215.89 11.622 216.87 12.154 218.046 12.154C218.774 12.154 219.376 11.972 219.866 11.608C220.356 11.23 220.594 10.712 220.594 10.054C220.594 9.088 220.02 8.528 218.718 7.982L218.06 7.716C217.388 7.436 217.15 7.254 217.15 6.904C217.15 6.47 217.514 6.246 218.088 6.246C218.69 6.246 219.264 6.498 219.698 6.946L220.496 6.036C219.894 5.322 219.11 4.972 218.116 4.972C216.716 4.972 215.694 5.728 215.694 6.96C215.694 7.926 216.268 8.458 217.486 8.962L218.186 9.256C218.858 9.536 219.152 9.704 219.152 10.11C219.152 10.614 218.676 10.88 218.046 10.88C217.318 10.88 216.716 10.53 216.114 9.9L215.274 10.824Z" fill="#46A358"/>
<path d="M8.008 88.34C8.008 87.15 7.336 86.254 6.202 85.918C6.762 85.484 7.084 84.868 7.084 84.098C7.084 83.412 6.846 82.852 6.37 82.418C5.894 81.984 5.25 81.76 4.452 81.76H1.274V91H5.082C6.888 91 8.008 89.88 8.008 88.34ZM4.34 82.74C5.404 82.74 5.964 83.286 5.964 84.168C5.964 85.05 5.39 85.61 4.34 85.61H2.366V82.74H4.34ZM6.888 88.312C6.888 89.334 6.188 90.02 4.97 90.02H2.366V86.604H4.97C6.188 86.604 6.888 87.29 6.888 88.312ZM15.837 87.92C15.893 87.64 15.921 87.374 15.921 87.108C15.921 85.302 14.577 84.028 12.813 84.028C10.867 84.028 9.32695 85.624 9.32695 87.598C9.32695 89.6 10.909 91.154 12.939 91.154C14.017 91.154 14.955 90.706 15.669 89.964L15.039 89.236C14.423 89.852 13.723 90.16 12.953 90.16C11.609 90.16 10.573 89.264 10.447 87.92H15.837ZM10.489 86.968C10.727 85.792 11.651 85.008 12.785 85.008C13.919 85.008 14.801 85.75 14.815 86.968H10.489ZM17.171 89.824C17.773 90.608 18.697 91.154 19.831 91.154C20.503 91.154 21.063 90.986 21.525 90.636C21.987 90.286 22.225 89.782 22.225 89.152C22.225 88.214 21.693 87.682 20.419 87.136L19.789 86.87C18.963 86.52 18.683 86.31 18.683 85.876C18.683 85.33 19.145 85.022 19.817 85.022C20.447 85.022 21.035 85.316 21.497 85.778L22.155 85.106C21.595 84.434 20.825 84.028 19.873 84.028C18.571 84.028 17.577 84.742 17.577 85.932C17.577 86.842 18.137 87.36 19.271 87.822L19.929 88.102C20.769 88.438 21.119 88.648 21.119 89.194C21.119 89.796 20.559 90.16 19.817 90.16C19.047 90.16 18.515 89.782 17.857 89.11L17.171 89.824ZM27.8964 90.09C27.5464 90.146 27.2524 90.174 26.9864 90.174C26.0484 90.174 25.5444 89.838 25.5444 88.872V85.148H27.6724V84.182H25.5444V82.32H24.4664V84.182H23.3184V85.148H24.4664V88.942C24.4664 90.44 25.3484 91.154 26.7624 91.154C27.0844 91.154 27.4624 91.098 27.8964 91V90.09ZM33.4283 91H34.5063V84.182H33.4283V91ZM33.1623 81.578C33.1623 82.026 33.5263 82.362 33.9743 82.362C34.4223 82.362 34.7723 82.026 34.7723 81.578C34.7723 81.144 34.4083 80.794 33.9743 80.794C33.5263 80.794 33.1623 81.144 33.1623 81.578ZM42.5156 86.716C42.5156 85.106 41.5636 84.028 39.9816 84.028C39.1276 84.028 38.3856 84.35 37.8816 84.91V84.182H36.8736V91H37.9516V86.842C37.9516 85.778 38.6936 85.022 39.7436 85.022C40.7936 85.022 41.4376 85.764 41.4376 86.842V91H42.5156V86.716ZM54.3691 86.716C54.3691 85.106 53.4171 84.028 51.8491 84.028C50.9951 84.028 50.2671 84.378 49.8051 84.952V80.5H48.7271V91H49.8051V86.856C49.8051 85.792 50.5471 85.022 51.5971 85.022C52.6471 85.022 53.2911 85.75 53.2911 86.856V91H54.3691V86.716ZM61.7668 86.8C61.7668 85.008 60.7168 84.028 59.1068 84.028C57.9728 84.028 56.9508 84.518 56.3348 85.526L57.0488 86.114C57.6088 85.386 58.2108 85.022 59.0368 85.022C60.0588 85.022 60.6888 85.624 60.6888 86.744V87.332H58.5328C57.0628 87.332 56.0828 88.074 56.0828 89.236C56.0828 90.412 57.0628 91.154 58.4628 91.154C59.4568 91.154 60.2548 90.79 60.7588 90.118V91H61.7668V86.8ZM60.6888 88.382C60.6888 89.432 59.7228 90.258 58.6028 90.258C57.8048 90.258 57.1888 89.866 57.1888 89.18C57.1888 88.55 57.7068 88.214 58.6588 88.214H60.6888V88.382ZM69.6953 86.716C69.6953 85.106 68.7433 84.028 67.1613 84.028C66.3073 84.028 65.5653 84.35 65.0613 84.91V84.182H64.0533V91H65.1313V86.842C65.1313 85.778 65.8733 85.022 66.9233 85.022C67.9733 85.022 68.6173 85.764 68.6173 86.842V91H69.6953V86.716ZM77.513 84.182V85.274C76.995 84.49 76.001 84.028 74.923 84.028C73.005 84.028 71.577 85.526 71.577 87.486C71.577 89.46 73.005 90.93 74.923 90.93C75.945 90.93 76.911 90.51 77.457 89.796V90.398C77.457 91.868 76.603 92.68 75.189 92.68C74.167 92.68 73.411 92.274 72.641 91.602L72.011 92.358C72.781 93.128 73.887 93.674 75.217 93.674C77.233 93.674 78.535 92.414 78.535 90.342V84.182H77.513ZM77.471 87.486C77.471 89.138 76.337 89.936 75.091 89.936C73.705 89.936 72.669 88.942 72.669 87.5C72.669 86.072 73.705 85.05 75.091 85.05C76.323 85.05 77.471 85.848 77.471 87.486ZM80.897 91H81.975V84.182H80.897V91ZM80.631 81.578C80.631 82.026 80.995 82.362 81.443 82.362C81.891 82.362 82.241 82.026 82.241 81.578C82.241 81.144 81.877 80.794 81.443 80.794C80.995 80.794 80.631 81.144 80.631 81.578ZM89.9843 86.716C89.9843 85.106 89.0323 84.028 87.4503 84.028C86.5963 84.028 85.8543 84.35 85.3503 84.91V84.182H84.3423V91H85.4203V86.842C85.4203 85.778 86.1623 85.022 87.2123 85.022C88.2623 85.022 88.9063 85.764 88.9063 86.842V91H89.9843V86.716ZM97.802 84.182V85.274C97.284 84.49 96.29 84.028 95.212 84.028C93.294 84.028 91.866 85.526 91.866 87.486C91.866 89.46 93.294 90.93 95.212 90.93C96.234 90.93 97.2 90.51 97.746 89.796V90.398C97.746 91.868 96.892 92.68 95.478 92.68C94.456 92.68 93.7 92.274 92.93 91.602L92.3 92.358C93.07 93.128 94.176 93.674 95.506 93.674C97.522 93.674 98.824 92.414 98.824 90.342V84.182H97.802ZM97.76 87.486C97.76 89.138 96.626 89.936 95.38 89.936C93.994 89.936 92.958 88.942 92.958 87.5C92.958 86.072 93.994 85.05 95.38 85.05C96.612 85.05 97.76 85.848 97.76 87.486ZM112.068 87.598C112.068 85.596 110.612 84.028 108.694 84.028C107.672 84.028 106.734 84.462 106.188 85.176V80.5H105.11V91H106.118V89.922C106.636 90.692 107.644 91.154 108.708 91.154C110.626 91.154 112.068 89.6 112.068 87.598ZM110.962 87.584C110.962 89.054 109.926 90.16 108.54 90.16C107.322 90.16 106.174 89.32 106.174 87.598C106.174 85.862 107.28 85.022 108.54 85.022C109.926 85.022 110.962 86.114 110.962 87.584ZM119.066 86.8C119.066 85.008 118.016 84.028 116.406 84.028C115.272 84.028 114.25 84.518 113.634 85.526L114.348 86.114C114.908 85.386 115.51 85.022 116.336 85.022C117.358 85.022 117.988 85.624 117.988 86.744V87.332H115.832C114.362 87.332 113.382 88.074 113.382 89.236C113.382 90.412 114.362 91.154 115.762 91.154C116.756 91.154 117.554 90.79 118.058 90.118V91H119.066V86.8ZM117.988 88.382C117.988 89.432 117.022 90.258 115.902 90.258C115.104 90.258 114.488 89.866 114.488 89.18C114.488 88.55 115.006 88.214 115.958 88.214H117.988V88.382ZM120.708 89.824C121.31 90.608 122.234 91.154 123.368 91.154C124.04 91.154 124.6 90.986 125.062 90.636C125.524 90.286 125.762 89.782 125.762 89.152C125.762 88.214 125.23 87.682 123.956 87.136L123.326 86.87C122.5 86.52 122.22 86.31 122.22 85.876C122.22 85.33 122.682 85.022 123.354 85.022C123.984 85.022 124.572 85.316 125.034 85.778L125.692 85.106C125.132 84.434 124.362 84.028 123.41 84.028C122.108 84.028 121.114 84.742 121.114 85.932C121.114 86.842 121.674 87.36 122.808 87.822L123.466 88.102C124.306 88.438 124.656 88.648 124.656 89.194C124.656 89.796 124.096 90.16 123.354 90.16C122.584 90.16 122.052 89.782 121.394 89.11L120.708 89.824ZM127.71 91H128.788V80.5H127.71V91ZM130.202 87.178L133.156 84.182H131.742L128.9 87.164L132.036 91H133.422L130.202 87.178ZM140.538 87.92C140.594 87.64 140.622 87.374 140.622 87.108C140.622 85.302 139.278 84.028 137.514 84.028C135.568 84.028 134.028 85.624 134.028 87.598C134.028 89.6 135.61 91.154 137.64 91.154C138.718 91.154 139.656 90.706 140.37 89.964L139.74 89.236C139.124 89.852 138.424 90.16 137.654 90.16C136.31 90.16 135.274 89.264 135.148 87.92H140.538ZM135.19 86.968C135.428 85.792 136.352 85.008 137.486 85.008C138.62 85.008 139.502 85.75 139.516 86.968H135.19ZM146.24 90.09C145.89 90.146 145.596 90.174 145.33 90.174C144.392 90.174 143.888 89.838 143.888 88.872V85.148H146.016V84.182H143.888V82.32H142.81V84.182H141.662V85.148H142.81V88.942C142.81 90.44 143.692 91.154 145.106 91.154C145.428 91.154 145.806 91.098 146.24 91V90.09ZM147.204 89.824C147.806 90.608 148.73 91.154 149.864 91.154C150.536 91.154 151.096 90.986 151.558 90.636C152.02 90.286 152.258 89.782 152.258 89.152C152.258 88.214 151.726 87.682 150.452 87.136L149.822 86.87C148.996 86.52 148.716 86.31 148.716 85.876C148.716 85.33 149.178 85.022 149.85 85.022C150.48 85.022 151.068 85.316 151.53 85.778L152.188 85.106C151.628 84.434 150.858 84.028 149.906 84.028C148.604 84.028 147.61 84.742 147.61 85.932C147.61 86.842 148.17 87.36 149.304 87.822L149.962 88.102C150.802 88.438 151.152 88.648 151.152 89.194C151.152 89.796 150.592 90.16 149.85 90.16C149.08 90.16 148.548 89.782 147.89 89.11L147.204 89.824ZM154.094 90.272C154.094 90.776 154.486 91.154 154.976 91.154C155.466 91.154 155.858 90.776 155.858 90.272C155.858 89.768 155.466 89.39 154.976 89.39C154.486 89.39 154.094 89.768 154.094 90.272ZM162.137 91H163.229V87.136H165.385C167.177 87.136 168.339 86.016 168.339 84.434C168.339 82.88 167.177 81.76 165.385 81.76H162.137V91ZM163.229 86.156V82.74H165.357C166.533 82.74 167.205 83.44 167.205 84.448C167.205 85.47 166.533 86.156 165.357 86.156H163.229ZM173.691 84.182C173.509 84.14 173.341 84.126 173.187 84.126C172.361 84.126 171.563 84.49 171.073 85.148V84.182H170.065V91H171.143V87.136C171.143 85.876 172.137 85.134 173.285 85.134H173.691V84.182ZM181.021 87.92C181.077 87.64 181.105 87.374 181.105 87.108C181.105 85.302 179.761 84.028 177.997 84.028C176.051 84.028 174.511 85.624 174.511 87.598C174.511 89.6 176.093 91.154 178.123 91.154C179.201 91.154 180.139 90.706 180.853 89.964L180.223 89.236C179.607 89.852 178.907 90.16 178.137 90.16C176.793 90.16 175.757 89.264 175.631 87.92H181.021ZM175.673 86.968C175.911 85.792 176.835 85.008 177.969 85.008C179.103 85.008 179.985 85.75 179.999 86.968H175.673ZM184.245 82.628C184.245 81.662 184.763 81.326 185.673 81.326C185.855 81.326 186.051 81.34 186.275 81.368V80.458C186.009 80.388 185.715 80.346 185.421 80.346C184.035 80.346 183.167 81.06 183.167 82.558V84.182H182.187V85.148H183.167V91H184.245V85.148H185.953V84.182H184.245V82.628ZM193.257 87.92C193.313 87.64 193.341 87.374 193.341 87.108C193.341 85.302 191.997 84.028 190.233 84.028C188.287 84.028 186.747 85.624 186.747 87.598C186.747 89.6 188.329 91.154 190.359 91.154C191.437 91.154 192.375 90.706 193.089 89.964L192.459 89.236C191.843 89.852 191.143 90.16 190.373 90.16C189.029 90.16 187.993 89.264 187.867 87.92H193.257ZM187.909 86.968C188.147 85.792 189.071 85.008 190.205 85.008C191.339 85.008 192.221 85.75 192.235 86.968H187.909ZM198.861 84.182C198.679 84.14 198.511 84.126 198.357 84.126C197.531 84.126 196.733 84.49 196.243 85.148V84.182H195.235V91H196.313V87.136C196.313 85.876 197.307 85.134 198.455 85.134H198.861V84.182ZM199.663 89.824C200.265 90.608 201.189 91.154 202.323 91.154C202.995 91.154 203.555 90.986 204.017 90.636C204.479 90.286 204.717 89.782 204.717 89.152C204.717 88.214 204.185 87.682 202.911 87.136L202.281 86.87C201.455 86.52 201.175 86.31 201.175 85.876C201.175 85.33 201.637 85.022 202.309 85.022C202.939 85.022 203.527 85.316 203.989 85.778L204.647 85.106C204.087 84.434 203.317 84.028 202.365 84.028C201.063 84.028 200.069 84.742 200.069 85.932C200.069 86.842 200.629 87.36 201.763 87.822L202.421 88.102C203.261 88.438 203.611 88.648 203.611 89.194C203.611 89.796 203.051 90.16 202.309 90.16C201.539 90.16 201.007 89.782 200.349 89.11L199.663 89.824ZM11.144 108.716C11.144 107.092 10.234 106.028 8.666 106.028C7.658 106.028 6.832 106.49 6.328 107.204C5.936 106.462 5.222 106.028 4.228 106.028C3.388 106.028 2.688 106.336 2.198 106.896V106.182H1.19V113H2.268V108.856C2.268 107.778 2.982 107.022 4.004 107.022C4.998 107.022 5.628 107.75 5.628 108.856V113H6.706V108.758C6.706 107.792 7.434 107.022 8.456 107.022C9.464 107.022 10.066 107.75 10.066 108.856V113H11.144V108.716ZM19.4463 109.92C19.5023 109.64 19.5303 109.374 19.5303 109.108C19.5303 107.302 18.1863 106.028 16.4223 106.028C14.4763 106.028 12.9363 107.624 12.9363 109.598C12.9363 111.6 14.5183 113.154 16.5483 113.154C17.6263 113.154 18.5643 112.706 19.2783 111.964L18.6483 111.236C18.0323 111.852 17.3323 112.16 16.5623 112.16C15.2183 112.16 14.1823 111.264 14.0563 109.92H19.4463ZM14.0983 108.968C14.3363 107.792 15.2603 107.008 16.3943 107.008C17.5283 107.008 18.4103 107.75 18.4243 108.968H14.0983ZM26.8284 102.5V107.19C26.2824 106.462 25.3304 106.028 24.3084 106.028C22.3904 106.028 20.9344 107.596 20.9344 109.598C20.9344 111.6 22.3904 113.154 24.3084 113.154C25.3724 113.154 26.3664 112.692 26.8844 111.922V113H27.9064V102.5H26.8284ZM26.8424 109.598C26.8424 111.32 25.6944 112.16 24.4624 112.16C23.0764 112.16 22.0404 111.054 22.0404 109.584C22.0404 108.114 23.0764 107.022 24.4624 107.022C25.6944 107.022 26.8424 107.862 26.8424 109.598ZM30.2701 113H31.3481V106.182H30.2701V113ZM30.0041 103.578C30.0041 104.026 30.3681 104.362 30.8161 104.362C31.2641 104.362 31.6141 104.026 31.6141 103.578C31.6141 103.144 31.2501 102.794 30.8161 102.794C30.3681 102.794 30.0041 103.144 30.0041 103.578ZM33.6314 110.284C33.6314 112.006 34.8634 113.154 36.4594 113.154C38.0414 113.154 39.2734 112.006 39.2734 110.284V106.182H38.1954V110.354C38.1954 111.432 37.4534 112.16 36.4594 112.16C35.4514 112.16 34.6954 111.46 34.6954 110.354V106.182H33.6314V110.284ZM51.5034 108.716C51.5034 107.092 50.5934 106.028 49.0254 106.028C48.0174 106.028 47.1914 106.49 46.6874 107.204C46.2954 106.462 45.5814 106.028 44.5874 106.028C43.7474 106.028 43.0474 106.336 42.5574 106.896V106.182H41.5494V113H42.6274V108.856C42.6274 107.778 43.3414 107.022 44.3634 107.022C45.3574 107.022 45.9874 107.75 45.9874 108.856V113H47.0654V108.758C47.0654 107.792 47.7934 107.022 48.8154 107.022C49.8234 107.022 50.4254 107.75 50.4254 108.856V113H51.5034V108.716ZM61.4335 112.09C61.0835 112.146 60.7895 112.174 60.5235 112.174C59.5855 112.174 59.0815 111.838 59.0815 110.872V107.148H61.2095V106.182H59.0815V104.32H58.0035V106.182H56.8555V107.148H58.0035V110.942C58.0035 112.44 58.8855 113.154 60.2995 113.154C60.6215 113.154 60.9995 113.098 61.4335 113V112.09ZM62.4148 109.584C62.3868 111.502 64.0248 113.182 65.9708 113.14C67.9168 113.182 69.5968 111.502 69.5548 109.584C69.5968 107.638 67.9308 106 65.9848 106.028C64.0388 105.986 62.3728 107.638 62.4148 109.584ZM68.4488 109.598C68.4488 111.026 67.3568 112.146 65.9708 112.146C64.5848 112.146 63.5208 111.026 63.5208 109.598C63.5208 108.128 64.5848 107.022 65.9848 107.022C67.3708 107.022 68.4488 108.128 68.4488 109.598ZM81.0156 108.716C81.0156 107.106 80.0636 106.028 78.4956 106.028C77.6416 106.028 76.9136 106.378 76.4516 106.952V102.5H75.3736V113H76.4516V108.856C76.4516 107.792 77.1936 107.022 78.2436 107.022C79.2936 107.022 79.9376 107.75 79.9376 108.856V113H81.0156V108.716ZM83.3033 113H84.3813V106.182H83.3033V113ZM83.0373 103.578C83.0373 104.026 83.4013 104.362 83.8493 104.362C84.2973 104.362 84.6473 104.026 84.6473 103.578C84.6473 103.144 84.2833 102.794 83.8493 102.794C83.4013 102.794 83.0373 103.144 83.0373 103.578ZM92.2786 106.182V107.274C91.7606 106.49 90.7666 106.028 89.6886 106.028C87.7706 106.028 86.3426 107.526 86.3426 109.486C86.3426 111.46 87.7706 112.93 89.6886 112.93C90.7106 112.93 91.6766 112.51 92.2226 111.796V112.398C92.2226 113.868 91.3686 114.68 89.9546 114.68C88.9326 114.68 88.1766 114.274 87.4066 113.602L86.7766 114.358C87.5466 115.128 88.6526 115.674 89.9826 115.674C91.9986 115.674 93.3006 114.414 93.3006 112.342V106.182H92.2786ZM92.2366 109.486C92.2366 111.138 91.1026 111.936 89.8566 111.936C88.4706 111.936 87.4346 110.942 87.4346 109.5C87.4346 108.072 88.4706 107.05 89.8566 107.05C91.0886 107.05 92.2366 107.848 92.2366 109.486ZM101.305 108.716C101.305 107.106 100.353 106.028 98.7847 106.028C97.9307 106.028 97.2027 106.378 96.7407 106.952V102.5H95.6627V113H96.7407V108.856C96.7407 107.792 97.4827 107.022 98.5327 107.022C99.5827 107.022 100.227 107.75 100.227 108.856V113H101.305V108.716ZM107.516 113H108.594V102.5H107.516V113ZM110.961 113H112.039V106.182H110.961V113ZM110.695 103.578C110.695 104.026 111.059 104.362 111.507 104.362C111.955 104.362 112.305 104.026 112.305 103.578C112.305 103.144 111.941 102.794 111.507 102.794C111.059 102.794 110.695 103.144 110.695 103.578ZM119.937 106.182V107.274C119.419 106.49 118.425 106.028 117.347 106.028C115.429 106.028 114.001 107.526 114.001 109.486C114.001 111.46 115.429 112.93 117.347 112.93C118.369 112.93 119.335 112.51 119.881 111.796V112.398C119.881 113.868 119.027 114.68 117.613 114.68C116.591 114.68 115.835 114.274 115.065 113.602L114.435 114.358C115.205 115.128 116.311 115.674 117.641 115.674C119.657 115.674 120.959 114.414 120.959 112.342V106.182H119.937ZM119.895 109.486C119.895 111.138 118.761 111.936 117.515 111.936C116.129 111.936 115.093 110.942 115.093 109.5C115.093 108.072 116.129 107.05 117.515 107.05C118.747 107.05 119.895 107.848 119.895 109.486ZM128.963 108.716C128.963 107.106 128.011 106.028 126.443 106.028C125.589 106.028 124.861 106.378 124.399 106.952V102.5H123.321V113H124.399V108.856C124.399 107.792 125.141 107.022 126.191 107.022C127.241 107.022 127.885 107.75 127.885 108.856V113H128.963V108.716ZM134.975 112.09C134.625 112.146 134.331 112.174 134.065 112.174C133.127 112.174 132.623 111.838 132.623 110.872V107.148H134.751V106.182H132.623V104.32H131.545V106.182H130.397V107.148H131.545V110.942C131.545 112.44 132.427 113.154 133.841 113.154C134.163 113.154 134.541 113.098 134.975 113V112.09ZM136.471 112.272C136.471 112.776 136.863 113.154 137.353 113.154C137.843 113.154 138.235 112.776 138.235 112.272C138.235 111.768 137.843 111.39 137.353 111.39C136.863 111.39 136.471 111.768 136.471 112.272Z" fill="#727272"/>
<path d="M8.666 141L5.894 137.192C7 136.758 7.672 135.806 7.672 134.588C7.672 132.922 6.398 131.76 4.536 131.76H1.162V141H2.646V137.43H4.34L6.972 141H8.666ZM2.646 133.076H4.508C5.53 133.076 6.146 133.692 6.146 134.602C6.146 135.498 5.53 136.114 4.508 136.114H2.646V133.076ZM15.879 138.046C15.949 137.724 15.991 137.416 15.991 137.122C15.991 135.33 14.633 133.972 12.813 133.972C10.867 133.93 9.21495 135.596 9.25695 137.57C9.25695 139.6 10.853 141.154 12.953 141.154C14.003 141.154 14.913 140.79 15.697 140.048L14.997 139.04C14.381 139.586 13.709 139.852 12.995 139.852C11.819 139.852 10.937 139.166 10.755 138.046H15.879ZM10.783 136.898C11.007 135.876 11.791 135.218 12.757 135.218C13.723 135.218 14.507 135.848 14.521 136.898H10.783ZM23.1353 136.842C23.1353 134.994 22.0153 133.972 20.3213 133.972C19.1313 133.972 18.1093 134.448 17.4233 135.442L18.2773 136.31C18.8513 135.624 19.4113 135.288 20.1813 135.288C21.1193 135.288 21.6513 135.806 21.6513 136.758V137.206H19.7053C18.1513 137.206 17.1713 137.976 17.1713 139.166C17.1713 140.356 18.1233 141.154 19.5653 141.154C20.5033 141.154 21.2593 140.832 21.7633 140.23V141H23.1353V136.842ZM21.6513 138.396C21.6513 139.334 20.8673 140.02 19.8733 140.02C19.1593 140.02 18.6693 139.684 18.6693 139.11C18.6693 138.55 19.1033 138.27 19.8873 138.27H21.6513V138.396ZM30.4032 130.5V134.966C29.8852 134.336 29.0592 133.972 28.1072 133.972C26.2032 133.93 24.7052 135.568 24.7472 137.57C24.7472 139.6 26.1752 141.154 28.1072 141.154C29.1292 141.154 30.0112 140.734 30.5152 140.02V141H31.8872V130.5H30.4032ZM30.4312 137.57C30.4312 139.068 29.4372 139.81 28.3592 139.81C27.1412 139.81 26.2452 138.872 26.2452 137.556C26.2452 136.24 27.1832 135.316 28.3592 135.316C29.4232 135.316 30.4312 136.086 30.4312 137.57ZM46.309 131.606L42.431 136.772L38.553 131.606H38.035V141H39.519V135.19L42.179 138.676H42.683L45.329 135.204V141H46.813V131.606H46.309ZM48.5363 137.556C48.4943 139.502 50.1883 141.196 52.1623 141.154C54.1643 141.196 55.8583 139.502 55.8162 137.556C55.8583 135.61 54.1643 133.93 52.1623 133.972C50.1883 133.944 48.4943 135.582 48.5363 137.556ZM54.3043 137.57C54.3043 138.816 53.3803 139.796 52.1623 139.796C50.9583 139.796 50.0343 138.844 50.0343 137.57C50.0343 136.296 50.9583 135.316 52.1763 135.316C53.3663 135.316 54.3043 136.296 54.3043 137.57ZM61.4355 134.126C61.2675 134.084 61.0855 134.056 60.8755 134.056C60.0915 134.056 59.3635 134.406 58.8735 135.022V134.126H57.5015V141H58.9715V137.332C58.9715 136.114 59.8255 135.428 60.9875 135.428H61.4355V134.126ZM68.8028 138.046C68.8728 137.724 68.9148 137.416 68.9148 137.122C68.9148 135.33 67.5568 133.972 65.7368 133.972C63.7908 133.93 62.1388 135.596 62.1808 137.57C62.1808 139.6 63.7768 141.154 65.8768 141.154C66.9268 141.154 67.8368 140.79 68.6208 140.048L67.9208 139.04C67.3048 139.586 66.6328 139.852 65.9188 139.852C64.7428 139.852 63.8608 139.166 63.6788 138.046H68.8028ZM63.7068 136.898C63.9308 135.876 64.7148 135.218 65.6808 135.218C66.6468 135.218 67.4308 135.848 67.4448 136.898H63.7068Z" fill="#3D3D3D"/>
<path d="M75.6667 137.817C75.6667 137.564 75.8548 137.355 76.0988 137.322L76.1667 137.317H86.1667C86.4428 137.317 86.6667 137.541 86.6667 137.817C86.6667 138.07 86.4786 138.279 86.2345 138.313L86.1667 138.317H76.1667C75.8905 138.317 75.6667 138.093 75.6667 137.817Z" fill="#3D3D3D"/>
<path d="M81.7807 134.155C81.585 133.96 81.5843 133.644 81.7792 133.448C81.9563 133.27 82.234 133.253 82.4301 133.398L82.4863 133.447L86.5196 137.463C86.698 137.64 86.7142 137.919 86.5683 138.115L86.5196 138.171L82.4863 142.188C82.2906 142.383 81.974 142.382 81.7792 142.186C81.602 142.008 81.5865 141.731 81.7321 141.535L81.7806 141.479L85.458 137.817L81.7807 134.155Z" fill="#3D3D3D"/>
</svg>
